<svg width="420" height="448" viewBox="0 0 420 448" fill="none" xmlns="http://www.w3.org/2000/svg">
<path fill-rule="evenodd" clip-rule="evenodd" d="M347.189 309.484C337.194 309.481 328.317 309.473 317.09 309.461C316.472 309.461 315.972 308.958 315.972 308.341C315.975 307.726 316.475 307.225 317.09 307.225H317.093C328.317 307.237 337.197 307.245 347.189 307.248C347.807 307.248 348.307 307.748 348.307 308.366C348.307 308.981 347.807 309.484 347.189 309.484Z" fill="#5F5F79"/>
<path fill-rule="evenodd" clip-rule="evenodd" d="M81.7538 308.886C81.7527 308.886 81.7516 308.886 81.7505 308.886C74.787 308.866 68.7235 308.844 63.0757 308.827C56.4325 308.805 50.3643 308.785 44.0831 308.766C43.4657 308.766 42.9665 308.262 42.9681 307.645C42.9698 307.03 43.4701 306.53 44.0859 306.53C44.087 306.53 44.0881 306.53 44.0892 306.53C50.371 306.549 56.4395 306.569 63.0829 306.591C68.7308 306.611 74.794 306.63 81.7572 306.65C82.3746 306.653 82.8738 307.156 82.8718 307.771C82.8699 308.388 82.3699 308.886 81.7538 308.886Z" fill="#5F5F79"/>
<path fill-rule="evenodd" clip-rule="evenodd" d="M366.964 74.0642C366.346 74.0642 365.846 73.5645 365.846 72.9473C365.821 48.9905 365.634 21.0008 365.631 20.7208C365.628 20.1033 366.126 19.5994 366.743 19.5952C366.746 19.5952 366.749 19.5952 366.752 19.5952C367.364 19.5952 367.864 20.0908 367.867 20.7057C367.87 20.9857 368.057 48.9816 368.082 72.9448C368.082 73.5625 367.582 74.0634 366.964 74.0642Z" fill="#5F5F79"/>
<path fill-rule="evenodd" clip-rule="evenodd" d="M307.123 109.161H307.12C291.37 109.14 277.211 109.048 260.338 108.931C259.72 108.926 259.222 108.422 259.228 107.805C259.231 107.19 259.731 106.695 260.346 106.695C260.349 106.695 260.352 106.695 260.352 106.695C277.222 106.812 291.379 106.904 307.123 106.925C307.741 106.926 308.241 107.427 308.241 108.045C308.241 108.661 307.741 109.161 307.123 109.161Z" fill="#5F5F79"/>
<path fill-rule="evenodd" clip-rule="evenodd" d="M154.272 107.832C154.267 107.832 154.262 107.832 154.257 107.832C109.667 107.263 65.5781 106.8 55.9762 106.8C55.3761 106.8 54.8828 106.326 54.859 105.727C54.8503 105.507 53.9858 83.5679 53.9858 66.0446C53.9858 65.4272 54.4864 64.9266 55.1038 64.9266C55.7213 64.9266 56.2218 65.4272 56.2218 66.0446C56.2218 81.3112 56.8801 99.9466 57.0525 104.566C68.5307 104.595 111.177 105.046 154.286 105.596C154.903 105.604 155.397 106.111 155.39 106.729C155.382 107.341 154.883 107.832 154.272 107.832Z" fill="#5F5F79"/>
<path fill-rule="evenodd" clip-rule="evenodd" d="M106.379 57.386C106.458 56.844 107.072 47.4866 107.066 43.4085C107.052 33.6986 106.201 23.9989 106.263 14.2888C106.285 10.7372 106.135 6.7895 103.286 4.22816C100.436 1.66543 95.9012 1.40325 91.816 1.30543C67.4221 0.720994 64.339 1.67717 39.952 1.74257C36.1053 1.75291 6.59201 0.528975 3.70673 2.64535C1.78796 4.05235 1.62837 7.75545 1.38352 9.71251C0.718034 15.0342 1.51992 20.3486 1.46234 25.6739C1.35893 35.242 1.65995 44.8116 1.92463 54.378C2.13118 61.8496 9.46219 60.3308 15.7073 60.3182C25.2743 60.2986 34.8428 60.3353 44.41 60.3439C63.5396 60.361 82.6694 60.378 101.8 60.3951C105.859 60.3987 106.058 59.5965 106.379 57.386Z" fill="#090919"/>
<path fill-rule="evenodd" clip-rule="evenodd" d="M19.7544 2.51769C18.8673 2.51769 17.9868 2.52133 17.1187 2.52915C6.49604 2.62558 4.6737 3.33272 4.36821 3.54737C3.07804 4.49376 2.78065 7.24152 2.58388 9.05967C2.55286 9.34448 2.52407 9.61084 2.49389 9.85149C2.08637 13.1107 2.25044 16.4715 2.40948 19.7212C2.50451 21.6702 2.60317 23.6856 2.58137 25.686C2.48661 34.4385 2.73593 43.3484 2.97686 51.9649L3.0431 54.347C3.08838 55.9863 3.50707 57.1552 4.32265 57.9205C6.02285 59.5161 9.53504 59.3903 12.9312 59.2688C13.8447 59.2358 14.7891 59.2022 15.7058 59.2003C22.0919 59.1877 28.5832 59.1995 34.8611 59.2112C38.0449 59.2171 41.2284 59.2232 44.4122 59.226L101.802 59.2771C102.409 59.2783 104.253 59.2794 104.795 58.847C105.031 58.6583 105.13 58.215 105.273 57.2279C105.35 56.6308 105.955 47.4669 105.949 43.4099C105.943 38.7887 105.741 34.0808 105.547 29.5277C105.334 24.5364 105.113 19.3749 105.146 14.2818C105.169 10.6774 104.987 7.25996 102.54 5.05974C100.032 2.80446 95.8541 2.52049 91.7902 2.42322C77.4214 2.0786 70.3512 2.27313 62.1643 2.4984C56.4455 2.65548 49.9633 2.83381 39.9561 2.86064C39.2448 2.85813 37.7271 2.82459 35.6269 2.77176C31.4814 2.66779 25.4995 2.51769 19.7544 2.51769ZM10.2058 61.5707C7.31665 61.5707 4.59433 61.242 2.79239 59.5508C1.53743 58.3732 0.869708 56.6431 0.807938 54.4088L0.741697 52.0272C0.500209 43.3895 0.250336 34.4578 0.345366 25.662C0.366329 23.7281 0.269625 21.7465 0.175993 19.8302C0.0124853 16.4851 -0.156334 13.0258 0.275214 9.57395C0.303723 9.34476 0.331393 9.09069 0.360741 8.81902C0.599713 6.61069 0.961105 3.27346 3.04645 1.74376C4.64994 0.567902 10.814 -0.0878054 35.6831 0.536597C37.6868 0.586908 39.2708 0.628554 39.9499 0.624641C49.9298 0.598088 56.3968 0.420047 62.1028 0.263247C70.3204 0.0374114 77.4177 -0.157681 91.8439 0.187781C96.3262 0.295389 100.959 0.63163 104.035 3.397C107.17 6.21576 107.407 10.3269 107.382 14.2961C107.349 19.3344 107.569 24.4677 107.781 29.4324C107.976 34.0081 108.179 38.7395 108.185 43.4069C108.191 47.4951 107.585 56.8648 107.486 57.547C107.054 60.5204 106.174 61.5131 101.825 61.5131C101.817 61.5131 101.809 61.5131 101.8 61.5131L44.4102 61.462C41.2259 61.4592 38.0415 61.4531 34.8569 61.4472C28.581 61.4355 22.091 61.4234 15.7106 61.4363C14.8316 61.438 13.9061 61.4712 13.0112 61.5034C12.0757 61.5366 11.1321 61.5707 10.2058 61.5707Z" fill="#5F5F79"/>
<path fill-rule="evenodd" clip-rule="evenodd" d="M87.5155 18.4167C87.4847 18.4167 87.4537 18.4153 87.4227 18.4128C76.7815 17.5366 65.9733 17.2884 55.2972 17.6747C54.6812 17.6914 54.1619 17.2149 54.1395 16.5977C54.1174 15.9809 54.5993 15.4624 55.2164 15.4401C65.98 15.051 76.8774 15.3014 87.606 16.1844C88.2215 16.2349 88.6793 16.7749 88.6284 17.3904C88.5804 17.9746 88.0915 18.4167 87.5155 18.4167Z" fill="#5F5F79"/>
<path fill-rule="evenodd" clip-rule="evenodd" d="M57.571 32.2076C57.5682 32.2076 57.5657 32.2076 57.5632 32.2076L56.0405 32.1976C55.4231 32.1934 54.9258 31.6894 54.9297 31.072C54.9339 30.4549 55.4401 29.959 56.055 29.9616H56.0553C58.7211 29.9803 61.4384 29.9202 64.0666 29.8632C66.712 29.8056 69.4469 29.7463 72.1455 29.7642C72.7629 29.7681 73.2599 30.2721 73.256 30.8898C73.2518 31.5044 72.752 32.0002 72.138 32.0002C72.1354 32.0002 72.1329 32.0002 72.1304 32.0002C69.4651 31.9829 66.745 32.0413 64.1152 32.0986C62.0148 32.1442 59.857 32.1911 57.7068 32.1995C57.6624 32.2048 57.6168 32.2076 57.571 32.2076Z" fill="#5F5F79"/>
<path fill-rule="evenodd" clip-rule="evenodd" d="M54.7214 45.1409C54.1065 45.1409 53.6067 44.6442 53.6037 44.0285C53.6003 43.4111 54.0984 42.9083 54.7161 42.9049C59.2465 42.8823 64.019 42.7573 69.0718 42.6251C77.9453 42.3929 87.121 42.153 96.0002 42.4446C96.6173 42.465 97.1011 42.9815 97.0807 43.5986C97.0606 44.2158 96.546 44.7021 95.9267 44.6795C87.114 44.3899 77.9713 44.6294 69.1302 44.8603C64.0653 44.9928 59.2814 45.118 54.7273 45.1409C54.7253 45.1409 54.7233 45.1409 54.7214 45.1409Z" fill="#5F5F79"/>
<path fill-rule="evenodd" clip-rule="evenodd" d="M13.235 31.5447C13.4208 36.0871 16.2438 40.3112 20.1179 42.6895C27.3318 47.1176 37.9836 45.4713 41.3719 36.9888C44.2801 29.7086 39.5228 20.3873 32.1484 17.7757C23.6145 14.7531 12.861 22.3966 13.235 31.5447Z" fill="#5F5F79"/>
<path fill-rule="evenodd" clip-rule="evenodd" d="M28.2259 38.2998C28.2259 38.2998 28.2259 38.2998 28.2256 38.2998C27.9017 38.2998 27.594 38.1592 27.3816 37.9143L19.7269 29.0914C19.3222 28.6249 19.3725 27.9189 19.8387 27.5141C20.3055 27.1094 21.0115 27.1597 21.4159 27.6262L28.2416 35.4939C33.4366 29.9178 40.8431 25.1784 41.1732 24.9685C41.6942 24.637 42.3848 24.7907 42.7163 25.3114C43.0478 25.8324 42.8941 26.5233 42.3734 26.8548C42.2906 26.9076 34.0465 32.1852 29.07 37.9149C28.8579 38.1595 28.5499 38.2998 28.2259 38.2998Z" fill="#090919"/>
<path fill-rule="evenodd" clip-rule="evenodd" d="M417.445 133.792C417.523 133.25 418.138 123.893 418.132 119.815C418.118 110.105 417.266 100.405 417.327 90.6951C417.352 87.1435 417.201 83.1959 414.353 80.6345C411.502 78.0718 406.966 77.8096 402.883 77.7118C378.488 77.1271 375.405 78.0835 351.018 78.1487C347.17 78.1593 317.657 76.9351 314.773 79.0514C312.853 80.4587 312.693 84.1615 312.45 86.1189C311.785 91.4406 312.584 96.755 312.529 102.08C312.425 111.648 312.727 121.218 312.99 130.784C313.196 138.256 320.528 136.737 326.772 136.725C336.339 136.705 345.909 136.741 355.476 136.75C374.605 136.767 393.735 136.784 412.866 136.801C416.925 136.805 417.123 136.003 417.445 133.792Z" fill="#090919"/>
<path fill-rule="evenodd" clip-rule="evenodd" d="M330.819 78.9237C329.93 78.9237 329.05 78.9273 328.181 78.9351C317.56 79.0316 315.737 79.739 315.433 79.9534C314.141 80.9 313.845 83.6481 313.649 85.4665C313.619 85.751 313.588 86.0171 313.56 86.2575C313.152 89.5173 313.317 92.878 313.473 96.1283C313.568 98.077 313.669 100.092 313.647 102.092C313.552 110.842 313.8 119.75 314.041 128.364L314.108 130.753C314.152 132.392 314.572 133.561 315.388 134.327C317.087 135.922 320.601 135.797 323.996 135.675C324.91 135.642 325.852 135.609 326.772 135.607C333.172 135.593 339.679 135.606 345.974 135.617C349.14 135.623 352.31 135.629 355.477 135.632L412.866 135.683C413.467 135.684 415.317 135.686 415.86 135.253C416.094 135.064 416.195 134.621 416.338 133.634C416.413 133.037 417.02 123.873 417.014 119.817C417.008 115.195 416.807 110.488 416.612 105.935C416.399 100.943 416.178 95.7815 416.209 90.6881C416.234 87.0837 416.053 83.666 413.604 81.466C411.097 79.2107 406.918 78.9268 402.855 78.8295C388.488 78.4849 381.417 78.6794 373.23 78.9047C367.512 79.0618 361.03 79.2401 351.021 79.2666C350.303 79.2663 348.791 79.2309 346.689 79.1777C342.544 79.0738 336.563 78.9237 330.819 78.9237ZM321.271 137.977C318.381 137.977 315.659 137.648 313.856 135.957C312.601 134.779 311.933 133.049 311.872 130.815L311.807 128.427C311.564 119.791 311.316 110.862 311.411 102.068C311.43 100.135 311.335 98.1533 311.24 96.2373C311.078 92.892 310.907 89.4323 311.341 85.9802C311.369 85.751 311.397 85.4973 311.425 85.2259C311.665 83.0175 312.025 79.6797 314.111 78.15C315.715 76.9739 321.878 76.319 346.745 76.9426C348.752 76.9929 350.339 77.0301 351.016 77.0306C360.997 77.0041 367.461 76.8263 373.169 76.6695C381.386 76.4434 388.483 76.2483 402.908 76.5938C407.391 76.7014 412.025 77.0379 415.099 79.8033C418.235 82.6218 418.473 86.7329 418.445 90.7024C418.414 95.7407 418.632 100.875 418.845 105.84C419.04 110.415 419.244 115.146 419.25 119.813C419.256 123.902 418.649 133.271 418.551 133.953C418.118 136.927 417.238 137.919 412.889 137.919C412.88 137.919 412.875 137.919 412.863 137.919L412.659 137.919L355.474 137.868C352.307 137.865 349.137 137.859 345.968 137.853C339.676 137.841 333.172 137.829 326.775 137.843C325.897 137.844 324.972 137.878 324.075 137.909C323.141 137.943 322.196 137.977 321.271 137.977Z" fill="#5F5F79"/>
<path fill-rule="evenodd" clip-rule="evenodd" d="M400.728 96.4956C400.716 96.4956 400.705 96.4956 400.694 96.4951C394.852 96.3179 388.905 96.3693 383.153 96.4188C377.378 96.4685 371.408 96.5202 365.525 96.3416C364.91 96.3229 364.423 95.8075 364.443 95.1904C364.46 94.5732 364.988 94.0838 365.594 94.1067C371.433 94.2837 377.381 94.2322 383.133 94.183C388.908 94.133 394.878 94.0816 400.761 94.2602C401.379 94.2789 401.862 94.7943 401.843 95.4114C401.826 96.0171 401.328 96.4956 400.728 96.4956Z" fill="#5F5F79"/>
<path fill-rule="evenodd" clip-rule="evenodd" d="M389.321 108.406C389.307 108.406 389.296 108.405 389.282 108.405C389.218 108.403 382.842 108.18 379.388 108.383C378.773 108.419 378.245 107.949 378.208 107.333C378.172 106.717 378.642 106.188 379.257 106.151C382.817 105.941 389.095 106.161 389.36 106.17C389.978 106.192 390.462 106.71 390.439 107.327C390.417 107.931 389.922 108.406 389.321 108.406Z" fill="#5F5F79"/>
<path fill-rule="evenodd" clip-rule="evenodd" d="M380.341 122.373C375.732 122.373 371.087 122.331 367.652 122.202C367.034 122.179 366.553 121.66 366.576 121.043C366.601 120.426 367.126 119.944 367.735 119.968C377.538 120.336 397.34 119.991 397.539 119.988C398.151 119.972 398.665 120.469 398.676 121.086C398.687 121.703 398.195 122.212 397.578 122.223C397.446 122.226 388.963 122.373 380.341 122.373Z" fill="#5F5F79"/>
<path fill-rule="evenodd" clip-rule="evenodd" d="M324.399 107.177C324.583 111.72 327.406 115.944 331.28 118.322C338.494 122.75 349.146 121.104 352.536 112.621C355.443 105.341 350.686 96.0197 343.313 93.408C334.777 90.3858 324.024 98.029 324.399 107.177Z" fill="#5F5F79"/>
<path fill-rule="evenodd" clip-rule="evenodd" d="M339.388 113.933C339.064 113.933 338.757 113.792 338.544 113.547L330.892 104.724C330.486 104.258 330.537 103.552 331.004 103.147C331.47 102.742 332.175 102.792 332.58 103.259L339.405 111.127C344.601 105.551 352.005 100.811 352.335 100.601C352.858 100.27 353.548 100.424 353.88 100.944C354.21 101.465 354.057 102.156 353.537 102.488C353.453 102.54 345.21 107.818 340.233 113.548C340.02 113.792 339.713 113.933 339.388 113.933Z" fill="#090919"/>
<path fill-rule="evenodd" clip-rule="evenodd" d="M12.3563 202.954C13.5106 205.997 15.6711 209.042 18.1193 211.184C22.5667 215.077 29.4793 215.34 34.7574 212.682C40.0354 210.021 43.7598 204.883 45.7691 199.321C47.7784 193.76 48.2402 187.764 48.3388 181.852C48.3388 181.852 40.2618 183.653 29.0447 183.02C21.5596 182.599 10.8883 179.257 10.8883 179.257C10.1538 187.928 9.21833 194.682 12.3563 202.954Z" fill="#090919"/>
<path fill-rule="evenodd" clip-rule="evenodd" d="M13.4016 202.557C14.4729 205.381 16.5116 208.291 18.8555 210.342C22.7391 213.744 29.0718 214.292 34.2542 211.681C38.8741 209.355 42.5898 204.83 44.7176 198.941C46.5905 193.757 47.0576 188.164 47.1912 183.21C44.3959 183.697 37.6454 184.626 28.9818 184.137C22.9311 183.796 15.0034 181.634 11.8839 180.723C11.8632 180.957 11.8428 181.19 11.8221 181.421C11.1441 189.116 10.6083 195.193 13.4016 202.557ZM27.3713 215.547C23.6413 215.547 20.0366 214.348 17.3828 212.025C14.7759 209.744 12.5061 206.501 11.3112 203.351C8.33592 195.507 8.91924 188.889 9.59508 181.225C9.65433 180.549 9.71498 179.862 9.77423 179.162C9.80302 178.825 9.98358 178.518 10.265 178.329C10.5468 178.139 10.8989 178.089 11.2223 178.19C11.3277 178.223 21.8503 181.495 29.1075 181.904C40.0206 182.52 48.0163 180.778 48.0959 180.76C48.4305 180.685 48.7802 180.769 49.0457 180.986C49.3106 181.202 49.4624 181.528 49.457 181.87C49.3654 187.332 48.9808 193.722 46.8206 199.701C44.4979 206.13 40.3923 211.094 35.2602 213.68C32.7693 214.935 30.0383 215.547 27.3713 215.547Z" fill="#5F5F79"/>
<path fill-rule="evenodd" clip-rule="evenodd" d="M26.5204 172.368C26.3921 172.368 26.2638 172.361 26.1352 172.347C25.5215 172.279 25.0793 171.726 25.1475 171.112C25.2154 170.499 25.7674 170.056 26.382 170.125C27.2611 170.225 28.2326 169.402 28.4576 168.369C28.6815 167.34 28.3075 166.079 27.4573 164.996C26.6012 163.904 25.3839 163.05 24.207 162.224C23.7016 161.869 23.5795 161.172 23.9342 160.667C24.2891 160.161 24.9862 160.039 25.4916 160.394C26.7406 161.27 28.1563 162.264 29.2165 163.616C30.4924 165.241 31.012 167.147 30.6422 168.845C30.2031 170.862 28.4026 172.368 26.5204 172.368Z" fill="#5F5F79"/>
<path fill-rule="evenodd" clip-rule="evenodd" d="M37.3243 171.417C36.8391 171.417 36.3924 171.099 36.2507 170.61C36.0791 170.016 36.4206 169.396 37.0137 169.225C39.0024 168.649 40.6224 166.858 41.0455 164.767C41.4612 162.711 40.7247 160.412 39.1693 158.908C38.7715 158.523 38.3159 158.177 37.8338 157.809C37.0769 157.232 36.294 156.636 35.6498 155.827C34.3644 154.212 34.0234 151.592 35.7141 150.174C36.1873 149.778 36.8924 149.84 37.289 150.313C37.6857 150.786 37.6236 151.491 37.1504 151.888C36.55 152.391 36.791 153.67 37.3992 154.434C37.8704 155.026 38.5107 155.514 39.1888 156.031C39.7011 156.421 40.2311 156.824 40.7236 157.3C42.8137 159.321 43.8003 162.426 43.2368 165.21C42.6535 168.095 40.4024 170.572 37.6356 171.373C37.5317 171.403 37.4271 171.417 37.3243 171.417Z" fill="#5F5F79"/>
<path fill-rule="evenodd" clip-rule="evenodd" d="M41.9105 207.662C41.65 207.662 41.3884 207.571 41.1765 207.387C40.7109 206.981 40.6625 206.275 41.0681 205.809C42.3608 204.326 45.8375 202.793 48.9047 201.44C50.2301 200.855 51.482 200.303 52.1872 199.906C53.1878 199.343 54.2225 198.76 54.8466 197.906C55.5227 196.982 55.6767 195.652 55.2301 194.597C54.7834 193.542 53.7219 192.729 52.5882 192.572C51.5451 192.429 49.3301 193.409 47.9927 194.379C47.4927 194.742 46.7939 194.63 46.4314 194.13C46.0686 193.631 46.1801 192.932 46.6799 192.569C47.6688 191.852 50.7153 190.056 52.894 190.357C54.8094 190.622 56.5345 191.943 57.2889 193.725C58.0432 195.505 57.7928 197.665 56.6513 199.226C55.7416 200.471 54.3793 201.238 53.2845 201.854C52.484 202.305 51.2436 202.852 49.8072 203.486C47.2378 204.619 43.7191 206.171 42.7538 207.278C42.5327 207.532 42.2224 207.662 41.9105 207.662Z" fill="#5F5F79"/>
<path fill-rule="evenodd" clip-rule="evenodd" d="M372.571 275.03C368.742 276.019 362.33 276.824 360.365 272.545C357.601 266.533 357.774 258.05 357.514 251.555C357.117 241.8 357.651 231.911 359.717 222.358C360.248 219.898 360.893 217.389 362.364 215.351C363.836 213.311 366.321 211.818 368.806 212.207C372.269 212.752 374.211 216.444 375.299 219.778C380.165 234.698 378.681 250.691 376.299 265.924C375.986 267.914 375.835 270.066 375.296 272.006C374.516 274.82 375.212 274.345 372.571 275.03Z" fill="#EA7868"/>
<path fill-rule="evenodd" clip-rule="evenodd" d="M346.628 268.551C347.03 269.761 365.508 270.513 367.744 270.438C374.348 270.217 389.679 269.982 389.679 269.982C386.934 283.714 385.305 294.631 381.221 308.044C369.002 309.366 362.126 308.542 352.494 307.499C349.878 294.139 348.022 283.373 346.628 268.551Z" fill="#090919"/>
<path fill-rule="evenodd" clip-rule="evenodd" d="M353.433 306.476C362.478 307.458 369.069 308.173 380.366 307.01C383.371 296.996 384.986 288.507 386.85 278.714C387.314 276.263 387.795 273.741 388.312 271.123C384.388 271.187 373.138 271.377 367.78 271.556C366.603 271.595 361.312 271.419 356.424 271.092C353.607 270.905 351.323 270.698 349.638 270.477C348.956 270.387 348.386 270.298 347.91 270.209C349.218 283.46 350.949 293.728 353.433 306.476ZM369.452 309.85C363.792 309.85 358.987 309.327 353.187 308.698L352.374 308.612C351.888 308.559 351.491 308.195 351.399 307.715C348.704 293.955 346.876 283.152 345.515 268.657C345.462 268.09 345.842 267.576 346.398 267.458C346.792 267.374 347.189 267.511 347.449 267.791C349.537 268.663 365.279 269.401 367.707 269.323C374.245 269.102 389.508 268.867 389.659 268.864C390.006 268.859 390.322 269.007 390.537 269.267C390.752 269.527 390.842 269.87 390.775 270.2C390.154 273.3 389.592 276.263 389.045 279.13C387.205 288.798 385.467 297.929 382.289 308.369C382.16 308.799 381.786 309.107 381.341 309.157C376.763 309.652 372.942 309.85 369.452 309.85Z" fill="#5F5F79"/>
<path fill-rule="evenodd" clip-rule="evenodd" d="M374.508 253.872C374.13 253.872 373.761 253.682 373.552 253.335C373.23 252.81 373.395 252.122 373.923 251.798C377.216 249.791 381.14 248.936 384.967 249.389C385.579 249.464 386.018 250.017 385.945 250.632C385.872 251.244 385.316 251.686 384.704 251.611C381.367 251.214 377.954 251.96 375.086 253.707C374.905 253.819 374.706 253.872 374.508 253.872Z" fill="#5F5F79"/>
<path fill-rule="evenodd" clip-rule="evenodd" d="M353.788 255.23C353.199 255.23 352.707 254.769 352.673 254.174C352.64 253.556 353.112 253.028 353.727 252.994L360.896 252.6C361.514 252.564 362.039 253.036 362.076 253.654C362.109 254.271 361.637 254.797 361.019 254.83L353.85 255.227C353.83 255.227 353.808 255.23 353.788 255.23Z" fill="#5F5F79"/>
<path fill-rule="evenodd" clip-rule="evenodd" d="M371.106 241.769C370.762 241.769 370.422 241.61 370.204 241.311C370.058 241.113 369.988 240.881 369.988 240.651C369.988 240.308 370.148 239.967 370.447 239.749L373.571 237.471C374.069 237.107 374.768 237.216 375.134 237.714C375.276 237.912 375.346 238.144 375.346 238.373C375.346 238.717 375.187 239.058 374.888 239.276L371.763 241.554C371.565 241.7 371.335 241.769 371.106 241.769Z" fill="#5F5F79"/>
<path fill-rule="evenodd" clip-rule="evenodd" d="M360.167 240.484C359.977 240.484 359.784 240.436 359.608 240.333L353.777 236.959C353.241 236.652 353.059 235.967 353.369 235.433C353.677 234.899 354.361 234.715 354.895 235.025L360.728 238.399C361.262 238.709 361.444 239.391 361.134 239.928C360.927 240.285 360.552 240.484 360.167 240.484Z" fill="#5F5F79"/>
<path fill-rule="evenodd" clip-rule="evenodd" d="M361.08 225.779C360.818 225.779 360.555 225.69 360.343 225.5L353.811 219.739C353.347 219.331 353.302 218.624 353.71 218.163C354.118 217.699 354.825 217.654 355.289 218.062L361.821 223.823C362.285 224.234 362.327 224.938 361.919 225.402C361.698 225.653 361.391 225.779 361.08 225.779Z" fill="#5F5F79"/>
<path fill-rule="evenodd" clip-rule="evenodd" d="M368.96 228.798C368.63 228.798 368.308 228.652 368.088 228.381C367.738 227.945 367.763 227.319 368.144 226.914L370.72 224.172C371.103 223.767 371.727 223.702 372.182 224.027C372.638 224.348 372.786 224.957 372.529 225.452C371.844 226.774 370.81 227.875 369.533 228.638C369.354 228.745 369.155 228.798 368.96 228.798Z" fill="#5F5F79"/>
<path fill-rule="evenodd" clip-rule="evenodd" d="M366.833 218.56C366.33 218.56 365.874 218.219 365.748 217.71L363.635 209.182C363.487 208.582 363.85 207.976 364.451 207.828C365.049 207.679 365.656 208.045 365.804 208.644L367.917 217.173C368.065 217.772 367.702 218.378 367.101 218.526C367.012 218.549 366.922 218.56 366.833 218.56Z" fill="#5F5F79"/>
<path fill-rule="evenodd" clip-rule="evenodd" d="M373.563 218.375C373.225 218.375 372.892 218.224 372.671 217.936C372.3 217.445 372.395 216.743 372.884 216.368L377.342 212.975C377.834 212.601 378.535 212.696 378.91 213.188C379.282 213.677 379.187 214.378 378.697 214.753L374.239 218.149C374.038 218.303 373.798 218.375 373.563 218.375Z" fill="#5F5F79"/>
<path fill-rule="evenodd" clip-rule="evenodd" d="M376.394 263.945C376.249 263.945 376.104 263.917 375.961 263.858L371.165 261.843C370.595 261.605 370.329 260.949 370.567 260.378C370.807 259.811 371.461 259.543 372.031 259.783L376.828 261.796C377.398 262.036 377.663 262.69 377.426 263.26C377.244 263.688 376.83 263.945 376.394 263.945Z" fill="#5F5F79"/>
<path fill-rule="evenodd" clip-rule="evenodd" d="M375.791 229.088C375.179 229.088 374.678 228.594 374.673 227.979C374.67 227.361 375.165 226.855 375.782 226.852L381.928 226.805C381.934 226.805 381.934 226.805 381.94 226.805C382.552 226.805 383.052 227.3 383.055 227.915C383.06 228.532 382.563 229.038 381.948 229.041L375.799 229.088C375.796 229.088 375.793 229.088 375.791 229.088Z" fill="#5F5F79"/>
<path fill-rule="evenodd" clip-rule="evenodd" d="M240.678 320.809C247.433 327.134 252.52 335.477 256.098 344.206C262.481 359.788 265.178 377.609 262.889 394.343C262.694 395.771 262.456 397.194 262.174 398.608C260.656 406.157 257.962 412.628 254.524 419.311C251.117 425.938 247.777 432.819 248.425 440.692C248.515 441.799 248.699 442.934 249.267 443.856C250.371 445.656 252.593 446.137 254.569 446.076C268.362 445.651 280.721 427.944 288.433 417.089C297.212 404.729 304.608 390.503 308.948 375.328C314.751 355.045 316.799 331.897 310.15 311.373C286.834 239.405 202.808 234.234 142.824 258.9C117.803 269.188 87.7276 289.416 87.7197 319.451C87.7172 328.529 94.3579 338.029 99.9512 344.17C112.329 357.762 128.4 366.197 144.747 372.43C151.929 375.169 210.821 397.47 210.408 381.43C210.234 374.742 205.551 369.507 200.951 365.16C195.024 359.559 188.644 354.123 181.99 349.265C176.224 345.053 168.687 341.369 166.009 334.273C164.145 329.303 166.331 324.007 169.901 320.407C175.928 314.328 184.43 311.589 192.695 310.28C201.479 308.889 210.475 308.52 219.276 309.973C227.728 311.371 234.828 315.334 240.678 320.809Z" fill="#090919"/>
<path fill-rule="evenodd" clip-rule="evenodd" d="M254.239 447.199C251.505 447.199 249.409 446.227 248.314 444.441C247.595 443.272 247.4 441.872 247.31 440.785C246.662 432.9 249.745 426.164 253.529 418.799C257.492 411.096 259.751 404.992 261.078 398.387C261.349 397.04 261.584 395.629 261.783 394.192C263.977 378.163 261.59 360.56 255.063 344.631C251.226 335.268 245.988 327.313 239.912 321.625C233.794 315.898 226.789 312.349 219.095 311.077C211.098 309.755 202.52 309.856 192.871 311.384C182.932 312.958 175.678 316.167 170.695 321.195C167.749 324.163 165.247 329.057 167.056 333.879C169.059 339.189 174.069 342.543 178.913 345.785C180.162 346.624 181.453 347.488 182.649 348.362C188.932 352.949 195.348 358.327 201.719 364.347C203.751 366.267 206.332 368.85 208.274 371.804C210.377 375.002 211.442 378.143 211.526 381.399C211.579 383.498 210.743 385.22 209.104 386.38C204.522 389.625 193 388.708 174.86 383.652C162.496 380.209 150.436 375.798 144.348 373.475C124.258 365.814 109.888 356.742 99.1245 344.924C94.4465 339.787 86.599 329.647 86.6018 319.451C86.608 295.78 104.845 279.139 120.142 269.345C120.662 269.012 121.354 269.163 121.687 269.683C122.02 270.203 121.868 270.893 121.348 271.229C106.52 280.721 88.8437 296.792 88.8378 319.451C88.8367 323.504 90.3863 332.009 100.778 343.418C111.296 354.967 125.394 363.855 145.145 371.388C151.197 373.693 163.183 378.079 175.46 381.497C197.209 387.557 205.057 386.506 207.812 384.555C208.856 383.817 209.326 382.833 209.29 381.458C209.13 375.259 204.819 370.351 200.183 365.971C193.881 360.018 187.538 354.699 181.331 350.168C180.171 349.321 178.955 348.505 177.669 347.644C172.532 344.206 167.22 340.648 164.963 334.667C162.782 328.853 165.674 323.082 169.107 319.619C174.437 314.244 182.095 310.828 192.521 309.176C202.41 307.611 211.221 307.511 219.458 308.872C227.597 310.216 234.993 313.959 241.441 319.993C247.749 325.899 253.174 334.125 257.132 343.784C263.806 360.071 266.243 378.082 263.996 394.494C263.795 395.978 263.549 397.434 263.27 398.829C261.9 405.646 259.58 411.926 255.519 419.822C251.891 426.874 248.94 433.305 249.538 440.6C249.613 441.492 249.75 442.509 250.22 443.269C251.173 444.826 253.333 444.997 254.535 444.958C267.56 444.558 279.83 427.274 287.161 416.949L287.522 416.443C296.835 403.329 303.873 389.004 307.875 375.018C312.52 358.779 316.503 334.611 309.085 311.717C304.65 298.024 297.782 286.213 288.671 276.606C288.246 276.156 288.262 275.449 288.71 275.024C289.16 274.599 289.867 274.619 290.292 275.066C299.635 284.916 306.673 297.015 311.212 311.03C318.803 334.46 314.756 359.095 310.024 375.636C305.955 389.863 298.802 404.422 289.344 417.737L288.986 418.243C280.923 429.599 268.739 446.758 254.602 447.194C254.482 447.196 254.359 447.199 254.239 447.199Z" fill="#5F5F79"/>
<path fill-rule="evenodd" clip-rule="evenodd" d="M175.641 135.548C176.535 141.473 170.047 149.727 167.327 154.458C160.704 165.98 153.832 177.347 147.829 189.217C135.853 212.897 126.334 238.337 124.989 265.055C124.364 277.478 133.47 277.246 142.97 277.99C156.555 279.052 170.117 280.041 183.74 280.477C210.958 281.347 238.224 281.78 265.36 279.494C271.593 278.968 282.91 275.944 288.179 272.213C288.179 272.213 287.516 260.244 286.742 253.581C284.981 238.432 281.311 223.577 276.605 209.09C267.7 181.666 251.936 159.762 248.428 153.11C239.096 123.583 246.119 75.148 214.796 59.5902C200.896 52.6871 182.825 56.0548 175.304 72.1526C167.136 89.6353 172.896 117.344 175.641 135.548Z" fill="#090919"/>
<path fill-rule="evenodd" clip-rule="evenodd" d="M196.689 45.1398C192.999 46.8271 189.523 49.5953 187.406 52.4043C176.331 48.3336 163.42 55.1968 161.063 66.7709C160.079 71.6043 162.134 77.4439 166.802 79.027C161.235 80.3823 156.658 85.1726 155.554 90.7995C154.451 96.4264 156.879 102.593 161.521 105.954C165.307 108.695 172.835 110.375 176.95 107.25C180.503 104.551 181.749 98.4139 182.116 94.2731C186.851 96.2794 190.645 97.5553 195.429 95.6402C197.528 94.7997 205.528 90.3503 205.13 87.159C205.767 92.2699 209.31 96.941 213.851 98.6574C218.787 100.523 223.385 98.6568 227.066 95.3341C226.873 103.015 229.285 110.404 234.719 116.05C237.447 118.886 241.119 121.227 245.043 120.935C248 120.714 250.72 118.973 252.528 116.62C254.337 114.266 255.301 111.351 255.72 108.412C257.188 98.0835 251.57 87.1196 242.329 82.2887C246.013 74.5088 244.616 64.5933 238.922 58.1388C233.232 51.684 223.575 49.0623 215.402 51.753C214.363 51.753 211.719 46.7464 210.573 45.8637C208.507 44.2717 205.383 43.3795 202.803 43.5081C200.828 43.6062 198.726 44.2085 196.689 45.1398Z" fill="#EA7868"/>
<path fill-rule="evenodd" clip-rule="evenodd" d="M287.894 270.779C287.29 270.779 286.792 270.298 286.776 269.692C286.267 250.613 282.698 231.464 275.542 209.436C268.597 188.053 257.322 169.824 251.265 160.031C249.56 157.276 248.213 155.1 247.439 153.632C247.408 153.572 247.383 153.511 247.363 153.447C244.476 144.317 243.168 133.636 241.782 122.327C238.693 97.1533 235.501 71.1229 214.298 60.5916C206.945 56.9394 198.552 56.3047 191.271 58.8506C184.61 61.1794 179.439 65.9429 176.317 72.6258C169.181 87.8996 172.987 111.731 175.766 129.132C176.117 131.327 176.448 133.4 176.746 135.381C177.374 139.54 172.332 148.15 164.7 161.183C156.532 175.132 145.345 194.234 138.006 214.264C137.793 214.842 137.151 215.139 136.571 214.929C135.992 214.717 135.694 214.074 135.906 213.492C143.315 193.277 154.559 174.075 162.77 160.053C169.357 148.806 175.045 139.092 174.536 135.715C174.238 133.743 173.908 131.675 173.558 129.484C170.733 111.798 166.865 87.5749 174.291 71.6794C177.674 64.4381 183.291 59.2721 190.533 56.7398C198.379 53.9965 207.403 54.6704 215.293 58.589C225.297 63.558 232.362 72.2409 236.893 85.134C240.854 96.4034 242.452 109.443 244.001 122.055C245.368 133.218 246.662 143.764 249.465 152.677C250.211 154.079 251.519 156.193 253.166 158.855C259.273 168.728 270.64 187.106 277.669 208.745C284.892 230.984 288.497 250.331 289.012 269.633C289.028 270.248 288.542 270.762 287.924 270.779C287.913 270.779 287.905 270.779 287.894 270.779Z" fill="#5F5F79"/>
<path fill-rule="evenodd" clip-rule="evenodd" d="M263.077 280.122C261.277 280.122 259.527 280.016 257.856 279.798C257.243 279.717 256.813 279.155 256.891 278.543C256.972 277.931 257.534 277.501 258.146 277.579C263.733 278.311 270.271 277.733 276.551 275.958C283.427 274.012 289.582 270.773 294.353 266.586C301.544 260.272 305.343 251.963 305.343 242.555C305.343 214.689 281.211 191.417 265.243 176.018C259.857 170.822 255.6 166.718 253.442 163.561C253.093 163.051 253.224 162.356 253.733 162.007C254.242 161.658 254.938 161.789 255.287 162.299C257.316 165.267 261.5 169.301 266.797 174.408C274.86 182.185 284.897 191.863 293.087 203.331C302.838 216.983 307.579 229.815 307.579 242.555C307.579 252.625 303.515 261.516 295.828 268.266C290.809 272.671 284.355 276.075 277.158 278.11C272.459 279.437 267.61 280.122 263.077 280.122Z" fill="#5F5F79"/>
<path fill-rule="evenodd" clip-rule="evenodd" d="M268.194 303.944C267.328 308.232 264.002 311.303 260.192 311.337L147.413 312.385C142.328 312.212 135.411 312.458 132.875 306.203C130.661 300.741 129.469 294.511 128.149 288.698C124.71 273.557 120.392 233.169 119.604 228.328C118.856 223.728 121.962 219.423 126.049 219.387C134.137 219.32 256.486 220.888 265.517 221.472C269.726 221.743 273.343 223.697 274.357 228.384C277.954 244.995 272.515 282.568 268.194 303.944Z" fill="#090919"/>
<path fill-rule="evenodd" clip-rule="evenodd" d="M126.57 220.505C126.359 220.505 126.189 220.505 126.058 220.505C124.612 220.519 123.247 221.198 122.217 222.42C120.935 223.94 120.371 226.081 120.707 228.147C120.917 229.438 121.363 233.119 121.979 238.211C123.75 252.843 126.713 277.33 129.239 288.451C129.445 289.357 129.648 290.274 129.852 291.199C130.946 296.143 132.077 301.258 133.911 305.783C136.004 310.946 141.53 311.099 146.406 311.236C146.753 311.247 147.093 311.256 147.427 311.267L260.181 310.219C263.434 310.188 266.344 307.457 267.099 303.723C275.665 261.348 274.877 236.068 273.264 228.619C272.261 223.988 268.457 222.783 265.444 222.587C256.215 221.992 137.586 220.505 126.57 220.505ZM147.413 313.503C147.4 313.503 147.387 313.503 147.375 313.503C147.038 313.492 146.694 313.483 146.343 313.472C141.337 313.333 134.48 313.14 131.839 306.622C129.934 301.923 128.782 296.716 127.668 291.68C127.465 290.763 127.263 289.849 127.059 288.946C124.508 277.71 121.535 253.153 119.76 238.48C119.146 233.412 118.703 229.751 118.501 228.507C118.061 225.804 118.811 222.99 120.507 220.98C121.965 219.25 123.93 218.289 126.039 218.269C133.001 218.213 256.165 219.748 265.589 220.357C270.933 220.701 274.435 223.468 275.45 228.147C279.209 245.504 273.348 284.1 269.29 304.168V304.165C268.312 309.006 264.575 312.416 260.201 312.455L147.423 313.503C147.42 313.503 147.416 313.503 147.413 313.503Z" fill="#5F5F79"/>
<path fill-rule="evenodd" clip-rule="evenodd" d="M205.94 259.898C202.402 257.31 197.421 256.535 193.313 258.347C189.777 259.903 186.907 263.187 186.41 267.011C185.262 275.838 195.936 281.252 203.324 278.107C211.115 274.792 212.971 265.043 205.94 259.898Z" fill="#5F5F79"/>
<path fill-rule="evenodd" clip-rule="evenodd" d="M194.691 117.208C195.996 117.68 197.296 118.254 198.639 118.436C200.578 118.699 202.524 118.457 204.356 117.785C206.187 117.081 205.919 117.017 205.699 118.839C205.476 120.679 205.458 122.375 204.81 124.153C204.113 126.067 202.822 126.926 200.712 126.951C195.642 127.009 194.173 120.91 193.659 116.866C194.004 116.967 194.348 117.084 194.691 117.208Z" fill="#5F5F79"/>
<path fill-rule="evenodd" clip-rule="evenodd" d="M195.05 118.535C195.966 123.381 197.843 125.833 200.644 125.833C200.662 125.833 200.68 125.833 200.699 125.833C202.368 125.814 203.226 125.235 203.76 123.77C204.207 122.543 204.326 121.311 204.452 120.007C204.487 119.642 204.523 119.272 204.566 118.897C202.554 119.603 200.516 119.819 198.489 119.544C197.292 119.382 196.173 118.959 195.09 118.55C195.077 118.545 195.064 118.54 195.05 118.535ZM200.637 128.069C195.118 128.069 193.193 122.062 192.55 117.007C192.502 116.633 192.646 116.26 192.933 116.015C193.22 115.77 193.611 115.687 193.972 115.793C194.3 115.889 194.649 116.004 195.071 116.157C195.341 116.254 195.611 116.356 195.88 116.458C196.89 116.84 197.845 117.2 198.789 117.329C200.515 117.563 202.259 117.362 203.971 116.735C204.115 116.68 204.259 116.624 204.388 116.573C205.212 116.248 205.864 115.991 206.484 116.482C207.094 116.966 206.992 117.669 206.893 118.349C206.868 118.525 206.838 118.732 206.808 118.973C206.757 119.397 206.717 119.812 206.678 120.222C206.544 121.608 206.405 123.042 205.86 124.536C205.005 126.883 203.325 128.039 200.725 128.069C200.696 128.069 200.666 128.069 200.637 128.069Z" fill="#5F5F79"/>
<path fill-rule="evenodd" clip-rule="evenodd" d="M211.512 163.793C210.911 163.793 210.31 163.779 209.709 163.748C189.367 162.726 178.505 155.572 172.976 149.751C172.55 149.304 172.569 148.596 173.016 148.171C173.464 147.745 174.171 147.763 174.597 148.211C184.106 158.222 199.001 160.971 209.821 161.515C222.697 162.163 235.557 155.315 242.047 148.68C242.48 148.238 243.187 148.231 243.629 148.662C244.071 149.094 244.079 149.802 243.646 150.243C237.119 156.917 224.467 163.793 211.512 163.793Z" fill="#5F5F79"/>
<path fill-rule="evenodd" clip-rule="evenodd" d="M219.436 179.37C218.986 179.37 218.273 179.284 217.842 178.711L209.362 167.475L199.906 178.065C199.651 178.35 199.27 178.486 198.891 178.423C185.212 176.186 174.014 170.859 167.362 163.421C166.95 162.961 166.989 162.254 167.449 161.842C167.91 161.431 168.617 161.47 169.028 161.93C175.245 168.88 185.747 173.906 198.648 176.116L208.601 164.971C208.824 164.722 209.142 164.588 209.481 164.599C209.815 164.613 210.125 164.775 210.327 165.042L219.455 177.139C219.466 177.139 219.478 177.139 219.492 177.139C220.755 177.139 225.641 175.609 232.24 172.145C239.35 168.413 244.607 164.399 246.304 161.406C246.609 160.869 247.291 160.681 247.827 160.985C248.364 161.29 248.554 161.972 248.249 162.51C244.009 169.982 224.671 179.036 219.746 179.358C219.673 179.363 219.564 179.37 219.436 179.37Z" fill="#5F5F79"/>
<path fill-rule="evenodd" clip-rule="evenodd" d="M87.4123 221.704C86.9162 221.704 86.4226 221.696 85.9288 221.679C76.272 221.383 68.6115 218.21 64.3589 212.746C62.9055 210.879 62.2822 208.88 61.6796 206.946C61.0577 204.951 60.4702 203.066 58.9922 201.485C57.4821 199.871 54.9143 198.614 52.1232 198.124C51.515 198.018 51.1084 197.438 51.2151 196.83C51.3219 196.222 51.901 195.815 52.5098 195.922C55.8101 196.501 58.7681 197.972 60.6251 199.958C62.4527 201.912 63.1448 204.133 63.8144 206.281C64.3827 208.104 64.9196 209.828 66.1234 211.374C69.9598 216.301 77.018 219.169 85.9975 219.446C93.9932 219.692 102.691 217.735 108.702 214.342C131.363 201.547 148.708 183.658 164.943 156.339C165.258 155.808 165.944 155.633 166.474 155.949C167.006 156.264 167.18 156.95 166.865 157.481C150.42 185.154 132.821 203.291 109.801 216.29C103.733 219.717 95.4614 221.704 87.4123 221.704Z" fill="#5F5F79"/>
<path fill-rule="evenodd" clip-rule="evenodd" d="M40.8534 244.374C43.9397 263.361 46.2215 282.479 47.69 301.658C35.6187 306.105 14.4742 306.675 1.11804 304.579C2.54908 285.508 5.88883 268.632 3.12485 248.259L40.8534 244.374Z" fill="#090919"/>
<path fill-rule="evenodd" clip-rule="evenodd" d="M40.8535 244.374C43.9397 263.361 46.2216 282.479 47.69 301.658C35.6187 306.105 22.7679 308.433 9.90024 308.5C7.82243 289.866 5.88885 268.632 3.12488 248.259L40.8535 244.374Z" fill="#090919"/>
<path fill-rule="evenodd" clip-rule="evenodd" d="M9.90002 309.618C9.33095 309.618 8.85217 309.19 8.789 308.626C8.14224 302.823 7.52007 296.87 6.86129 290.57C5.4146 276.735 3.91871 262.427 2.017 248.41C1.93398 247.798 2.36274 247.234 2.97456 247.153C3.58639 247.069 4.14958 247.496 4.23287 248.109C6.13878 262.159 7.63662 276.483 9.08499 290.338C9.70548 296.272 10.2936 301.895 10.8998 307.374C23.079 307.198 35.0491 305.02 46.5103 300.898C45.0471 282.107 42.7737 263.154 39.7498 244.553C39.6508 243.944 40.0645 243.368 40.6741 243.27C41.2831 243.173 41.8578 243.583 41.957 244.193C45.036 263.137 47.3401 282.442 48.805 301.574C48.843 302.072 48.5459 302.536 48.0766 302.709C35.8164 307.223 22.9739 309.548 9.90616 309.618C9.9042 309.618 9.90225 309.618 9.90002 309.618Z" fill="#5F5F79"/>
<path fill-rule="evenodd" clip-rule="evenodd" d="M28.902 246.239C28.9163 246.666 29.0007 247.088 29.1628 247.48C29.3696 247.977 29.7933 248.276 29.9096 248.273C30.0088 248.1 29.8506 247.34 29.3791 246.77C29.226 246.585 29.0666 246.406 28.902 246.239ZM19.5298 247.65C19.51 247.991 19.5494 248.326 19.6494 248.642C19.7442 248.944 19.9815 249.201 20.1414 249.302C20.1556 249.131 20.1145 248.802 19.9351 248.413C19.8127 248.148 19.6771 247.893 19.5298 247.65ZM11.741 252.583C11.5669 252.583 11.3933 252.541 11.2343 252.46C10.0741 251.87 9.22634 250.792 8.84677 249.425C8.60696 248.561 8.5832 247.647 8.7618 246.795C7.6807 246.286 6.3268 246.308 5.29768 246.904C4.76328 247.214 4.07934 247.03 3.76994 246.496C3.46081 245.962 3.64332 245.277 4.178 244.97C5.84187 244.005 7.95545 243.955 9.68639 244.76C11.1566 242.826 13.9242 241.917 16.4651 242.588C17.3466 242.82 18.1913 243.231 18.9616 243.785C19.9471 242.714 21.2563 241.973 22.6435 241.733C24.321 241.445 26.0888 241.767 27.7183 242.597C28.1292 241.971 28.6521 241.42 29.2737 240.995C31.5517 239.43 34.9057 239.698 36.9086 241.602C38.9123 243.505 39.35 246.839 37.9047 249.193C37.5816 249.718 36.8932 249.883 36.3672 249.562C35.8409 249.238 35.6763 248.55 35.9994 248.025C36.8977 246.56 36.6148 244.408 35.3685 243.223C34.1222 242.038 31.9558 241.867 30.5388 242.837C30.16 243.097 29.8383 243.438 29.5829 243.826C30.124 244.271 30.6344 244.78 31.1025 245.347C31.7946 246.183 32.3723 247.558 32.1034 248.74C31.9427 249.447 31.4977 250.001 30.8501 250.3C30.2755 250.565 29.6463 250.579 29.0311 250.339C28.2186 250.02 27.4777 249.254 27.097 248.335C26.6179 247.178 26.5523 245.884 26.8351 244.668C25.5877 244.003 24.2467 243.729 23.0227 243.938C22.1281 244.092 21.2527 244.598 20.5969 245.311C21.1344 245.953 21.5978 246.683 21.9645 247.474C22.6898 249.045 22.4411 250.562 21.3457 251.253C20.7778 251.613 20.1042 251.678 19.449 251.437C18.5798 251.119 17.8212 250.283 17.5163 249.313C17.1451 248.134 17.2279 246.862 17.7419 245.657C17.1697 245.232 16.5442 244.922 15.8941 244.749C14.2509 244.316 12.4202 244.886 11.4883 246.082C12.857 247.594 13.4004 249.819 12.812 251.784C12.717 252.102 12.4861 252.362 12.1812 252.494C12.0406 252.552 11.8905 252.583 11.741 252.583Z" fill="#5F5F79"/>
<path fill-rule="evenodd" clip-rule="evenodd" d="M11.6684 262.914C11.5996 262.914 11.5323 262.914 11.4635 262.914C10.8461 262.914 10.3466 262.41 10.348 261.793C10.3494 261.178 10.8497 260.678 11.466 260.678C11.5258 260.689 11.601 260.678 11.6684 260.678C19.3401 260.678 26.9816 259.663 34.3842 257.656C34.9792 257.494 35.5939 257.846 35.7554 258.444C35.917 259.04 35.5648 259.655 34.9686 259.814C27.376 261.871 19.5371 262.914 11.6684 262.914Z" fill="#5F5F79"/>
<path fill-rule="evenodd" clip-rule="evenodd" d="M20.6042 273.68C20.0757 273.68 19.6058 273.305 19.5061 272.766C19.3937 272.16 19.7945 271.575 20.4019 271.464L36.3485 268.509C36.9553 268.397 37.5389 268.797 37.6512 269.406C37.7639 270.013 37.3628 270.597 36.7557 270.709L20.8091 273.663C20.7403 273.674 20.6716 273.68 20.6042 273.68Z" fill="#5F5F79"/>
<path fill-rule="evenodd" clip-rule="evenodd" d="M16.0154 286.601C15.4885 286.601 15.0198 286.227 14.9181 285.69C14.8035 285.084 15.2021 284.499 15.8088 284.385L37.0184 280.371C37.6249 280.257 38.2099 280.653 38.3248 281.26C38.4394 281.866 38.0408 282.453 37.434 282.568L16.2245 286.582C16.1543 286.593 16.0844 286.601 16.0154 286.601Z" fill="#5F5F79"/>
<path fill-rule="evenodd" clip-rule="evenodd" d="M25.4344 296.568C24.9346 296.568 24.4796 296.233 24.3516 295.724C24.1998 295.126 24.562 294.519 25.1607 294.366C29.4153 293.29 33.7962 292.638 38.1812 292.432C38.8037 292.395 39.3219 292.879 39.3509 293.496C39.38 294.114 38.9035 294.637 38.2866 294.665C34.0505 294.866 29.8192 295.495 25.7097 296.535C25.6174 296.557 25.5252 296.568 25.4344 296.568Z" fill="#5F5F79"/>
<path fill-rule="evenodd" clip-rule="evenodd" d="M6.15189 306.376C6.10214 306.376 6.05183 306.373 6.00124 306.367L0.968555 305.688C0.373499 305.607 -0.0518972 305.071 0.00512083 304.472C1.77995 285.872 2.45326 266.969 2.00718 248.287C1.99237 247.67 2.48066 247.155 3.09807 247.141C3.72751 247.13 4.2278 247.617 4.24262 248.231C4.68227 266.645 4.03942 285.271 2.33195 303.614L6.30002 304.151C6.91185 304.232 7.34116 304.797 7.25842 305.409C7.18296 305.971 6.70306 306.376 6.15189 306.376Z" fill="#5F5F79"/>
</svg>
