<svg width="531" height="531" viewBox="0 0 531 531" fill="none" xmlns="http://www.w3.org/2000/svg">
<path fill-rule="evenodd" clip-rule="evenodd" d="M299.983 335.457C294.283 314.976 283.934 295.411 276.563 275.284C271.896 262.542 268.394 249.376 266.164 235.988C263.026 217.152 262.338 197.989 259.702 179.077C256.791 158.189 252.731 135.821 242.033 117.373C232.259 100.519 214.819 86.738 195.34 86.8941C178.487 87.0317 162.924 97.6939 153.605 111.74C144.285 125.787 140.458 142.81 139.017 159.607C137.087 182.097 139.284 204.34 132.584 226.234C119.828 267.914 83.1668 297.227 70.9119 339.007C60.4982 374.509 67.4572 415.959 97.5588 439.867C116.215 454.685 141.102 460.929 164.054 455.022C164.054 455.022 194.328 452.521 251.652 400.833C284.051 416.256 303.007 346.332 299.983 335.457Z" fill="#090919"/>
<mask id="mask0" mask-type="alpha" maskUnits="userSpaceOnUse" x="66" y="86" width="235" height="372">
<path d="M299.983 335.457C294.283 314.976 283.934 295.411 276.563 275.284C271.896 262.542 268.394 249.376 266.164 235.988C263.026 217.152 262.338 197.989 259.702 179.077C256.791 158.189 252.731 135.821 242.033 117.373C232.259 100.519 214.819 86.738 195.34 86.8941C178.487 87.0317 162.924 97.6939 153.605 111.74C144.285 125.787 140.458 142.81 139.017 159.607C137.087 182.097 139.284 204.34 132.584 226.234C119.828 267.914 83.1668 297.227 70.9119 339.006C60.4982 374.509 67.4572 415.959 97.5588 439.867C116.215 454.685 141.102 460.929 164.054 455.022C164.054 455.022 194.328 452.521 251.652 400.833C284.05 416.256 303.007 346.332 299.983 335.457Z" fill="white"/>
</mask>
<g mask="url(#mask0)">
<path fill-rule="evenodd" clip-rule="evenodd" d="M221.826 295.154C210.514 298.996 198.856 301.534 186.864 302.168C168.044 303.164 149.201 298.433 133.099 288.673C125.389 283.998 103.813 264.532 93.7701 267.064C79.7196 270.603 86.5679 278.077 92.4415 284.085C113.867 306 161.689 328.514 191.059 324.117C202.787 322.362 214.139 319.155 225.218 315.042C224.335 308.365 223.499 301.672 221.826 295.154Z" fill="#5F5F79"/>
<path fill-rule="evenodd" clip-rule="evenodd" d="M291.524 263.333C286.838 261.011 281.382 264.017 276.996 266.865C262.33 276.388 246.87 285.341 230.665 291.867C231.64 298.661 232.062 305.572 231.904 312.441C249.037 305.476 265.55 296.566 281.826 287.73C286.607 285.131 291.625 282.314 294.365 277.61C297.105 272.905 296.402 265.75 291.524 263.333Z" fill="#5F5F79"/>
<path fill-rule="evenodd" clip-rule="evenodd" d="M189.79 351.819C225.614 347.494 257.717 329.332 286.626 309.411C291.256 306.22 297.057 302.784 302.391 304.725C307.945 306.748 309.233 313.826 306.554 318.738C303.873 323.65 298.544 326.862 293.457 329.833C262.828 347.733 231.389 365.949 196.001 373.375C148.236 383.401 83.14 366.94 61.5302 318.637C60.2738 315.828 59.2161 312.409 60.885 309.825C62.3147 307.611 65.3475 306.902 67.9253 307.446C70.503 307.993 72.7396 309.538 74.8986 311.049C109.822 335.483 145.057 356.79 189.79 351.819Z" fill="#5F5F79"/>
<path fill-rule="evenodd" clip-rule="evenodd" d="M194.012 404.006C230.584 397.988 262.966 381.014 292.029 362.841C296.686 359.931 302.532 356.74 308.049 357.94C313.792 359.187 315.305 364.835 312.695 369C310.083 373.169 304.712 376.145 299.585 378.911C268.705 395.566 237.003 412.534 200.962 421.038C152.317 432.516 66.7363 414.719 43.2826 377.093C41.9192 374.905 59.2025 381.24 60.8412 379.028C62.2449 377.133 65.3316 376.344 67.9866 376.607C70.6416 376.867 72.9745 377.961 75.227 379.034C111.663 396.381 148.333 411.175 194.012 404.006Z" fill="#5F5F79"/>
</g>
<path fill-rule="evenodd" clip-rule="evenodd" d="M249.43 404.269C249.076 404.269 248.724 404.131 248.462 403.852C247.96 403.319 247.986 402.477 248.52 401.975C254.988 395.895 261.19 389.582 265.869 384.763C271.837 378.617 279.176 376.814 286.217 375.778C286.944 375.672 287.619 376.174 287.725 376.899C287.831 377.624 287.329 378.298 286.605 378.407C279.001 379.522 272.889 381.346 267.775 386.613C263.074 391.451 256.845 397.791 250.339 403.911C250.083 404.15 249.756 404.269 249.43 404.269Z" fill="#5F5F79"/>
<path fill-rule="evenodd" clip-rule="evenodd" d="M117.785 156.192C119.289 138.004 125.062 119.978 135.736 105.814C144.927 93.6186 157.511 84.6144 171.208 79.2758C190.581 71.7252 212.759 71.5887 231.393 81.0628C250.027 90.5367 264.47 110.127 266.822 132.219C254.261 138.971 241.026 144.263 227.421 147.973C223.521 149.037 219.489 149.977 215.503 149.396C209.198 148.479 203.77 143.778 200.285 138.031C196.799 132.285 195.006 125.552 193.57 118.86C189.995 132.814 189.525 147.683 192.212 161.867C167.462 175.432 144.849 193.527 125.628 215.147C119.073 196.516 116.134 176.157 117.785 156.192Z" fill="#EA7868"/>
<path fill-rule="evenodd" clip-rule="evenodd" d="M229.565 280.525C229.035 280.525 228.534 280.206 228.329 279.683C228.061 279.001 228.397 278.231 229.079 277.963C242.503 272.695 254.406 264.427 263.499 254.053C263.982 253.501 264.821 253.446 265.373 253.93C265.925 254.413 265.978 255.251 265.495 255.803C256.124 266.496 243.867 275.013 230.049 280.434C229.89 280.495 229.726 280.525 229.565 280.525Z" fill="#5F5F79"/>
<path fill-rule="evenodd" clip-rule="evenodd" d="M230.671 352.916C230.024 352.916 229.468 352.449 229.362 351.806C227.423 340.1 225.592 328.48 223.821 317.241C222.123 306.47 220.37 295.342 218.521 284.133C211.489 285.904 204.33 286.849 197.215 286.945C171.24 287.285 145.404 276.33 128.076 257.629C127.578 257.091 127.61 256.251 128.148 255.753C128.686 255.255 129.525 255.287 130.024 255.825C146.849 273.983 171.96 284.622 197.18 284.29C204.552 284.191 211.977 283.153 219.249 281.199C219.611 281.104 219.997 281.165 220.312 281.367C220.627 281.568 220.842 281.895 220.903 282.267C222.841 293.97 224.673 305.591 226.444 316.829C227.632 324.367 228.846 332.077 230.103 339.867C230.701 322.973 229.587 303.262 228.658 286.799C228.511 284.202 228.369 281.682 228.239 279.269C228.199 278.539 228.761 277.912 229.493 277.873C230.233 277.835 230.85 278.396 230.89 279.126C231.02 281.539 231.162 284.053 231.309 286.65C232.467 307.155 233.908 332.677 231.992 351.721C231.926 352.383 231.379 352.895 230.714 352.916C230.7 352.916 230.685 352.916 230.671 352.916Z" fill="#5F5F79"/>
<path fill-rule="evenodd" clip-rule="evenodd" d="M340.798 367.755C340.485 367.755 340.169 367.643 339.917 367.418C337.886 365.604 335.812 363.81 333.805 362.076C327.579 356.694 321.141 351.129 315.406 344.412C314.931 343.855 314.997 343.018 315.555 342.54C316.112 342.065 316.949 342.131 317.426 342.689C323.028 349.252 329.106 354.504 335.542 360.066C337.557 361.808 339.638 363.61 341.685 365.437C342.232 365.926 342.277 366.765 341.791 367.311C341.529 367.604 341.165 367.755 340.798 367.755Z" fill="#5F5F79"/>
<path fill-rule="evenodd" clip-rule="evenodd" d="M309.161 423.874H256.895C250.431 423.874 245.942 417.435 248.176 411.366L285.84 309.066C287.186 305.413 290.667 302.983 294.559 302.983H346.828C353.29 302.983 357.78 309.422 355.547 315.491L317.88 417.791C316.534 421.444 313.056 423.874 309.161 423.874Z" fill="#090919"/>
<path fill-rule="evenodd" clip-rule="evenodd" d="M294.559 304.311C291.238 304.311 288.235 306.406 287.088 309.525L249.422 411.825C248.509 414.305 248.852 416.97 250.364 419.137C251.874 421.303 254.255 422.546 256.895 422.546H309.161C312.483 422.546 315.488 420.451 316.635 417.331L354.299 315.032C355.212 312.552 354.87 309.886 353.359 307.72C351.849 305.553 349.467 304.311 346.828 304.311H294.559ZM309.161 425.201H256.895C253.375 425.201 250.2 423.544 248.186 420.656C246.171 417.767 245.713 414.215 246.93 410.909L284.595 308.607C286.127 304.449 290.13 301.656 294.559 301.656H346.828C350.348 301.656 353.521 303.312 355.536 306.201C357.552 309.09 358.008 312.642 356.792 315.948L319.126 418.25C317.596 422.408 313.593 425.201 309.161 425.201Z" fill="#5F5F79"/>
<path fill-rule="evenodd" clip-rule="evenodd" d="M145.364 458.46C127.728 458.46 111.457 452.601 96.733 440.908C82.2975 429.441 72.2752 413.253 67.7503 394.09C63.6148 376.577 64.285 356.883 69.638 338.635C75.8788 317.358 88.5424 299.059 100.789 281.364C112.717 264.13 125.053 246.307 131.314 225.845C135.843 211.047 136.252 196.369 136.685 180.83C136.88 173.856 137.081 166.644 137.694 159.493C139.43 139.265 144.272 123.404 152.498 111.006C162.823 95.4455 179.235 85.6979 195.33 85.5664C204.741 85.4884 214.348 88.6365 223.08 94.6623C231.061 100.17 238.012 107.793 243.182 116.707C248.12 125.222 252.009 135.124 255.073 146.977C257.934 158.047 259.683 169.323 261.017 178.893C262.188 187.297 262.988 195.876 263.761 204.172C264.73 214.57 265.734 225.321 267.473 235.77C269.671 248.961 273.149 262.102 277.809 274.83C280.817 283.036 284.35 291.166 288.317 298.988C288.649 299.641 288.389 300.44 287.736 300.772C287.08 301.104 286.283 300.841 285.951 300.188C281.937 292.273 278.358 284.048 275.316 275.743C270.6 262.861 267.08 249.559 264.854 236.206C263.098 225.663 262.091 214.863 261.118 204.419C260.347 196.152 259.55 187.604 258.388 179.26C255.633 159.492 251.781 136.829 240.885 118.039C235.911 109.462 229.232 102.134 221.572 96.8473C213.292 91.1332 204.225 88.1464 195.351 88.2228C180.126 88.3457 164.554 97.6382 154.711 112.474C146.737 124.492 142.036 139.946 140.34 159.72C139.733 166.795 139.532 173.967 139.339 180.904C138.92 195.936 138.487 211.48 133.853 226.622C127.471 247.479 115.016 265.474 102.972 282.877C90.8453 300.397 78.306 318.515 72.1857 339.381C66.9604 357.196 66.3028 376.407 70.3341 393.479C74.7207 412.056 84.4205 427.736 98.3845 438.829C110.451 448.414 123.705 454 137.777 455.436C150.256 456.711 163.675 454.754 177.661 449.622C199.634 441.556 223.474 425.525 248.52 401.975C254.988 395.892 261.19 389.581 265.869 384.763C271.837 378.616 279.176 376.814 286.217 375.778C286.944 375.672 287.619 376.174 287.725 376.899C287.831 377.623 287.329 378.298 286.605 378.407C279.001 379.522 272.889 381.346 267.775 386.613C263.075 391.451 256.846 397.791 250.339 403.91C225.031 427.707 200.886 443.924 178.576 452.112C167.041 456.347 155.956 458.46 145.364 458.46Z" fill="#5F5F79"/>
<path fill-rule="evenodd" clip-rule="evenodd" d="M334.097 406.43C329.366 406.43 324.531 405.007 320.458 402.243C314.211 398.003 309.73 390.651 308.471 382.58C308.357 381.855 308.854 381.178 309.578 381.064C310.303 380.953 310.98 381.447 311.094 382.171C312.241 389.528 316.301 396.211 321.951 400.045C328.012 404.16 335.937 404.949 342.145 402.057C348.655 399.023 352.842 391.91 352.093 385.148C351.453 379.346 347.545 374.536 344.377 371.52C343.021 370.229 341.563 368.888 339.917 367.418C339.37 366.929 339.322 366.09 339.811 365.543C340.297 364.996 341.138 364.948 341.685 365.437C343.353 366.926 344.831 368.286 346.207 369.597C351.209 374.358 354.156 379.633 354.732 384.856C355.6 392.714 350.779 400.961 343.265 404.463C340.432 405.785 337.289 406.43 334.097 406.43Z" fill="#5F5F79"/>
<path fill-rule="evenodd" clip-rule="evenodd" d="M211.563 312.852C211.147 312.852 210.722 312.799 210.298 312.685C208.777 312.279 207.612 311.222 207.18 309.855C206.748 308.487 207.094 306.95 208.106 305.745C209.117 304.539 210.568 303.931 211.989 304.12C212.716 304.215 213.228 304.882 213.132 305.609C213.036 306.334 212.369 306.849 211.642 306.751C211.132 306.684 210.558 306.953 210.14 307.452C209.721 307.951 209.557 308.564 209.712 309.053C209.866 309.544 210.353 309.953 210.982 310.12C211.611 310.287 212.236 310.176 212.614 309.828C213.154 309.332 213.994 309.369 214.49 309.908C214.986 310.447 214.951 311.288 214.411 311.785C213.65 312.483 212.638 312.852 211.563 312.852Z" fill="#5F5F79"/>
<path fill-rule="evenodd" clip-rule="evenodd" d="M215.716 336.704C215.386 336.704 215.052 336.667 214.719 336.593C213.398 336.293 212.307 335.433 211.801 334.291C211.296 333.147 211.392 331.761 212.059 330.582C212.726 329.403 213.865 328.607 215.105 328.453C215.834 328.365 216.496 328.877 216.586 329.605C216.677 330.332 216.161 330.996 215.433 331.086C215.023 331.137 214.625 331.437 214.37 331.888C214.114 332.342 214.061 332.836 214.229 333.216C214.397 333.593 214.799 333.887 215.305 334.002C215.81 334.118 216.3 334.025 216.613 333.755C217.17 333.279 218.008 333.34 218.486 333.898C218.963 334.453 218.899 335.292 218.343 335.77C217.634 336.378 216.696 336.704 215.716 336.704Z" fill="#5F5F79"/>
<path fill-rule="evenodd" clip-rule="evenodd" d="M356.126 294.676C355.982 294.676 355.836 294.652 355.693 294.601C355 294.362 354.631 293.606 354.873 292.913C357.459 285.444 362.312 278.647 368.535 273.775C369.114 273.321 369.948 273.425 370.399 274.001C370.853 274.58 370.75 275.414 370.173 275.865C364.346 280.426 359.803 286.79 357.381 293.784C357.19 294.331 356.675 294.676 356.126 294.676Z" fill="#5F5F79"/>
<path fill-rule="evenodd" clip-rule="evenodd" d="M366.002 302.266C365.49 302.266 365.004 301.969 364.784 301.47C364.492 300.796 364.8 300.015 365.471 299.72L383.971 291.66C384.643 291.365 385.424 291.673 385.718 292.345C386.01 293.016 385.702 293.8 385.031 294.092L366.533 302.155C366.361 302.229 366.18 302.266 366.002 302.266Z" fill="#5F5F79"/>
<path fill-rule="evenodd" clip-rule="evenodd" d="M389.045 320.658C388.862 320.658 388.673 320.62 388.496 320.538C382.23 317.684 375.574 315.934 368.716 315.337C367.986 315.273 367.444 314.631 367.508 313.901C367.571 313.171 368.214 312.629 368.944 312.693C376.107 313.314 383.055 315.14 389.597 318.122C390.264 318.427 390.559 319.213 390.253 319.882C390.03 320.371 389.55 320.658 389.045 320.658Z" fill="#5F5F79"/>
<path fill-rule="evenodd" clip-rule="evenodd" d="M236.775 215.757C236.106 215.757 235.446 215.664 234.805 215.477C232.04 214.668 229.773 212.102 228.888 208.78C228.136 205.956 228.378 202.999 228.591 200.39C228.651 199.659 229.298 199.114 230.023 199.175C230.754 199.235 231.298 199.876 231.238 200.607C231.032 203.119 230.819 205.715 231.453 208.096C231.961 210.001 233.303 212.271 235.55 212.928C238.503 213.792 241.649 211.35 242.868 208.591C244.279 205.397 244.035 201.562 243.82 198.178C243.774 197.446 244.329 196.816 245.061 196.769C245.799 196.722 246.423 197.278 246.47 198.01C246.704 201.697 246.97 205.876 245.296 209.664C244.434 211.614 242.905 213.366 241.1 214.47C239.711 215.321 238.225 215.756 236.775 215.757Z" fill="#5F5F79"/>
<path fill-rule="evenodd" clip-rule="evenodd" d="M459.172 177.519C458.988 178.099 458.803 178.672 458.614 179.239C454.146 192.733 446.12 208.007 433.811 211.681C416.317 216.903 397.621 215.38 379.654 216.146C363.438 216.837 348.187 210.552 333.715 222.623C324.43 230.368 316.898 253.061 316.898 253.061C316.898 253.061 315.913 210.16 316.757 196.134C317.989 175.685 314.833 158.47 323.764 139.049C336.492 111.56 362.556 105.806 388.886 105.797C409.924 105.789 448.732 101.45 460.281 125.147C467.84 140.661 464.259 161.5 459.172 177.519Z" fill="#EA7868"/>
<path fill-rule="evenodd" clip-rule="evenodd" d="M359.572 151.661C358.85 151.661 358.26 151.084 358.244 150.36C358.231 149.627 358.813 149.021 359.545 149.007L436.708 147.476C436.718 147.476 436.726 147.476 436.734 147.476C437.456 147.476 438.048 148.053 438.062 148.777C438.078 149.51 437.494 150.117 436.761 150.131L359.598 151.661C359.591 151.661 359.58 151.661 359.572 151.661Z" fill="#090919"/>
<path fill-rule="evenodd" clip-rule="evenodd" d="M402.291 175.909C402.28 175.909 402.27 175.909 402.256 175.909L359.54 174.844C358.807 174.826 358.226 174.217 358.244 173.484C358.263 172.751 358.863 172.173 359.606 172.19L402.323 173.255C403.055 173.273 403.637 173.882 403.619 174.615C403.6 175.336 403.008 175.909 402.291 175.909Z" fill="#090919"/>
</svg>
