<svg width="486" height="486" viewBox="0 0 486 486" fill="none" xmlns="http://www.w3.org/2000/svg">
<path fill-rule="evenodd" clip-rule="evenodd" d="M249.211 222.974C249.007 222.974 248.803 222.911 248.63 222.78C248.2 222.458 248.113 221.849 248.433 221.419C250.552 218.587 251.663 216.191 251.928 213.879C252.202 211.503 251.415 208.483 249.041 207.095C247.354 206.108 244.949 206.069 242.437 206.989C240.961 207.529 239.594 208.294 238.147 209.105C237.354 209.549 236.533 210.009 235.697 210.425C228.035 214.24 220.742 214.85 214.021 212.239C201.8 207.491 194.853 193.488 191.801 185.563C191.608 185.062 191.857 184.499 192.358 184.306C192.859 184.113 193.421 184.363 193.615 184.864C200.458 202.628 209.778 208.505 214.725 210.427C220.915 212.831 227.679 212.246 234.83 208.685C235.624 208.289 236.424 207.842 237.197 207.409C238.648 206.596 240.147 205.757 241.769 205.163C245.955 203.631 248.737 204.664 250.023 205.417C252.732 207.002 254.275 210.492 253.86 214.101C253.459 217.606 251.459 220.621 249.989 222.584C249.799 222.839 249.507 222.974 249.211 222.974Z" fill="#5F5E79"/>
<path fill-rule="evenodd" clip-rule="evenodd" d="M250.864 275.997C262.071 285.143 271.73 293.908 280.75 304.841C290.312 316.43 297.206 330.803 296.98 345.77C296.426 382.458 260.486 403.21 231.894 418.577C228.09 420.621 223.562 422.706 219.629 420.929C216.027 419.304 214.464 414.859 214.986 410.974C215.508 407.091 246.305 350.192 248.397 346.863L169.306 291.121L250.864 275.997Z" fill="#090919"/>
<path fill-rule="evenodd" clip-rule="evenodd" d="M222.847 422.575C221.615 422.575 220.404 422.346 219.229 421.816C214.902 419.86 213.497 414.76 214.023 410.845C214.581 406.685 216.886 403.018 218.919 399.784C219.204 399.329 219.804 399.191 220.259 399.477C220.714 399.762 220.851 400.362 220.565 400.816C218.637 403.885 216.452 407.36 215.95 411.105C215.503 414.429 216.76 418.568 220.029 420.045C223.41 421.571 227.509 419.831 231.433 417.722C246.307 409.727 261.869 400.96 274.291 389.456C288.66 376.147 295.765 361.851 296.008 345.753C296.115 338.781 294.645 331.6 291.639 324.415C288.912 317.893 284.995 311.516 280.002 305.461C278.677 303.857 277.236 302.197 275.715 300.528C275.355 300.132 275.385 299.517 275.781 299.155C276.177 298.793 276.792 298.822 277.154 299.221C278.694 300.912 280.157 302.596 281.501 304.224C286.616 310.425 290.63 316.967 293.432 323.664C296.54 331.1 298.061 338.54 297.952 345.784C297.699 362.439 290.392 377.192 275.611 390.88C263.021 402.542 247.338 411.38 232.354 419.433C229.225 421.114 225.969 422.575 222.847 422.575Z" fill="#5F5E79"/>
<path fill-rule="evenodd" clip-rule="evenodd" d="M232.763 313.832C247.532 320.325 256.555 336.378 257.342 352.345C258.129 368.315 251.702 383.989 242.4 397.084C233.099 410.177 221.024 421.063 209.054 431.835C205.522 435.014 201.047 438.43 196.468 437.108C192.921 436.083 190.728 432.368 190.373 428.73C190.018 425.092 191.124 421.486 192.217 417.994C195.778 406.612 199.674 395.76 203.319 384.514C204.302 381.481 202.934 378.205 200.101 376.694C182.648 367.389 160.236 369.715 141.128 363.083C139.385 362.478 137.655 361.778 135.994 360.974C108.661 347.748 94.4568 322.485 88.7305 293.777L169.268 288.487L232.763 313.832Z" fill="#090919"/>
<path fill-rule="evenodd" clip-rule="evenodd" d="M198.553 438.377C197.777 438.377 196.992 438.27 196.198 438.042C193.18 437.169 189.909 433.983 189.406 428.825C189.026 424.937 190.228 421.092 191.289 417.702C193.329 411.183 195.513 404.736 197.625 398.503C199.203 393.842 200.836 389.024 202.394 384.215C203.226 381.646 202.069 378.847 199.644 377.552C189.907 372.361 178.792 370.871 167.024 369.297C158.252 368.121 149.181 366.906 140.809 364.002C138.947 363.355 137.185 362.631 135.571 361.849C123.348 355.934 113.12 347.308 105.171 336.212C97.9834 326.179 92.5953 314.046 89.1571 300.154C89.0281 299.634 89.346 299.106 89.8672 298.978C90.3882 298.846 90.9152 299.167 91.044 299.687C94.4229 313.339 99.7077 325.246 106.752 335.08C114.509 345.911 124.49 354.328 136.418 360.099C137.964 360.848 139.656 361.543 141.447 362.165C149.633 365.005 158.605 366.206 167.282 367.37C178.703 368.898 190.512 370.48 200.559 375.836C203.816 377.573 205.366 381.35 204.244 384.812C202.681 389.634 201.047 394.459 199.466 399.125C197.358 405.351 195.178 411.785 193.145 418.283C192.139 421.498 190.999 425.141 191.341 428.637C191.63 431.6 193.442 435.223 196.738 436.175C200.766 437.337 204.895 434.268 208.403 431.111C220.164 420.529 232.326 409.586 241.608 396.52C248.832 386.348 257.259 370.437 256.37 352.394C255.986 344.586 253.534 336.647 249.469 330.045C245.155 323.042 239.243 317.742 232.372 314.721C231.88 314.505 231.657 313.932 231.873 313.441C232.089 312.948 232.663 312.726 233.154 312.943C240.389 316.121 246.601 321.683 251.124 329.024C255.357 335.904 257.911 344.168 258.311 352.297C259.228 370.896 250.596 387.223 243.192 397.645C233.786 410.889 221.543 421.904 209.704 432.557C206.426 435.507 202.616 438.374 198.553 438.377Z" fill="#5F5E79"/>
<path fill-rule="evenodd" clip-rule="evenodd" d="M165.261 295.804C140.376 301.93 112.633 301.087 88.7306 293.777C81.5509 257.787 87.6981 216.379 98.0066 186.486C107.96 157.621 107.782 128.748 117.752 99.8733C120.665 91.4361 124.803 82.6327 131.331 76.5453C142.618 66.0202 162.161 60.4557 174.07 72.086C181.141 78.9913 184.33 89.0717 185.042 98.9297C185.753 108.787 183.721 123.725 182.528 133.537C180.246 152.302 188.879 176.958 198.559 199.837C207.781 221.632 219.166 243.44 234.834 261.347C239.602 266.795 244.852 271.924 250.864 275.997L165.261 295.804Z" fill="#090919"/>
<path fill-rule="evenodd" clip-rule="evenodd" d="M130.616 300.511C128.609 300.511 126.602 300.477 124.595 300.404C111.427 299.932 98.9258 297.962 88.4421 294.706C88.1019 294.601 87.8469 294.317 87.7772 293.967C84.3871 276.974 83.7368 258.056 85.8437 237.745C87.6844 219.997 91.5726 202.162 97.0875 186.17C102.145 171.504 104.65 155.901 107.073 140.811C107.315 139.305 107.557 137.799 107.801 136.295C110.851 117.501 115.351 102.144 121.965 87.9655C124.666 82.1746 128.879 76.9481 134.147 72.8516C139.436 68.7386 145.413 66.0595 151.43 65.1038C161.13 63.562 170.193 66.6957 176.948 73.9252C184.205 81.6908 187.268 94.1061 186.055 110.826C185.746 115.081 185.206 119.252 184.684 123.287C183.371 133.436 182.13 143.023 184.379 153.501C187.484 167.965 192.98 184.839 199.855 201.015C207.407 218.783 216.296 235.038 225.562 248.023C225.874 248.46 225.772 249.065 225.335 249.379C224.899 249.69 224.291 249.588 223.98 249.15C214.633 236.054 205.672 219.671 198.066 201.776C191.144 185.489 185.608 168.49 182.478 153.909C180.159 143.105 181.421 133.357 182.756 123.037C183.275 119.029 183.811 114.886 184.116 110.686C185.289 94.5275 182.399 82.6061 175.528 75.2525C167.452 66.6104 158.132 66.007 151.735 67.0235C140.2 68.856 128.944 77.6023 123.727 88.7871C117.191 102.799 112.74 117.994 109.72 136.606C109.476 138.109 109.234 139.614 108.992 141.119C106.556 156.291 104.038 171.978 98.9253 186.803C93.4581 202.658 89.6031 220.343 87.7772 237.945C85.7139 257.838 86.3175 276.361 89.5713 293.019C99.7792 296.125 111.897 298.005 124.664 298.462C138.528 298.958 152.492 297.711 165.045 294.856C165.569 294.737 166.09 295.065 166.209 295.59C166.328 296.112 166 296.632 165.476 296.754C154.58 299.23 142.638 300.511 130.616 300.511Z" fill="#5F5E79"/>
<path fill-rule="evenodd" clip-rule="evenodd" d="M150.398 192.945C150.262 192.945 150.124 192.916 149.994 192.856L107.049 173.207C106.561 172.983 106.346 172.407 106.569 171.918C106.793 171.43 107.37 171.216 107.857 171.439L150.029 190.735L159.884 175.082C160.118 174.712 160.568 174.544 160.988 174.67C168.445 176.919 175.386 179.489 182.178 182.516L185.012 178.072C185.301 177.62 185.902 177.486 186.355 177.775C186.807 178.064 186.94 178.665 186.651 179.117L183.366 184.269C183.106 184.676 182.587 184.831 182.146 184.632C175.402 181.587 168.521 179.004 161.134 176.746L151.221 192.491C151.038 192.781 150.723 192.945 150.398 192.945Z" fill="#5F5E79"/>
<path fill-rule="evenodd" clip-rule="evenodd" d="M151.237 173.488C150.613 173.488 149.985 173.479 149.35 173.462C135.836 173.091 121.275 168.787 109.4 161.654C108.94 161.378 108.791 160.78 109.067 160.32C109.344 159.86 109.941 159.711 110.401 159.988C121.998 166.953 136.214 171.156 149.404 171.519C163.478 171.902 174.716 167.868 181.044 160.147C181.385 159.732 181.998 159.672 182.412 160.012C182.828 160.352 182.888 160.964 182.548 161.38C176.121 169.221 165.049 173.488 151.237 173.488Z" fill="#5F5E79"/>
<path fill-rule="evenodd" clip-rule="evenodd" d="M165.93 133.402C165.841 133.402 165.753 133.4 165.665 133.395C164.305 133.322 163.039 132.692 162.099 131.619C160.923 130.275 160.339 128.346 160.499 126.325C160.541 125.79 161.007 125.392 161.545 125.433C162.08 125.475 162.48 125.943 162.437 126.479C162.318 127.98 162.728 129.387 163.562 130.338C164.162 131.023 164.925 131.409 165.769 131.454C167.985 131.571 170.723 129.41 171.873 126.634C172.079 126.138 172.647 125.902 173.143 126.108C173.639 126.313 173.875 126.882 173.669 127.378C172.247 130.811 168.891 133.402 165.93 133.402Z" fill="#5F5E79"/>
<path fill-rule="evenodd" clip-rule="evenodd" d="M173.092 218.704C172.724 218.704 172.372 218.494 172.208 218.138C166.919 206.637 163.549 195.38 161.281 181.637C161.194 181.107 161.552 180.607 162.082 180.52C162.611 180.431 163.112 180.791 163.199 181.32C165.437 194.885 168.76 205.99 173.974 217.326C174.199 217.814 173.985 218.391 173.497 218.615C173.366 218.675 173.228 218.704 173.092 218.704Z" fill="#5F5E79"/>
<path fill-rule="evenodd" clip-rule="evenodd" d="M213.477 283.066L169.306 291.121C168.139 291.197 167.973 293.945 168.687 294.616C169.4 295.286 170.386 295.578 171.333 295.848C181.757 298.834 192.075 302.03 202.519 305.009C203.904 305.402 209.681 307.456 211.084 307.125L219.787 305.599L232.276 279.404L213.477 283.066Z" fill="#090919"/>
<path fill-rule="evenodd" clip-rule="evenodd" d="M206.357 307.181C206.265 307.181 206.171 307.169 206.079 307.142C205.15 306.865 204.249 306.576 203.525 306.343C202.984 306.168 202.516 306.017 202.252 305.944C196.896 304.416 191.487 302.805 186.257 301.249C181.285 299.767 176.143 298.239 171.065 296.783C170.111 296.511 168.922 296.173 168.02 295.325C167.211 294.562 167.115 292.803 167.533 291.639C167.844 290.769 168.441 290.232 169.175 290.157L213.302 282.108C213.829 282.014 214.336 282.364 214.433 282.891C214.529 283.421 214.179 283.926 213.651 284.023L169.48 292.076C169.474 292.079 169.467 292.079 169.461 292.081C169.208 292.397 169.141 293.58 169.368 293.923C169.927 294.438 170.814 294.691 171.599 294.914C176.688 296.372 181.835 297.903 186.811 299.386C192.037 300.941 197.44 302.55 202.785 304.073C203.08 304.158 203.539 304.304 204.119 304.491C204.834 304.722 205.725 305.006 206.635 305.278C207.149 305.432 207.442 305.973 207.288 306.489C207.162 306.909 206.776 307.181 206.357 307.181Z" fill="#5F5E79"/>
<path fill-rule="evenodd" clip-rule="evenodd" d="M299.121 288.805C303.344 284.706 316.488 240.561 321.768 225.039C322.969 221.513 323.909 216.98 321.013 214.613C318.848 212.845 315.664 213.328 312.913 213.906C296.467 217.364 253.592 225.165 247.007 227.593C231.211 233.417 229.194 249.507 225.581 260.197C222.899 268.131 214.063 294.555 211.415 299.75C210.909 300.744 210.376 301.75 210.208 302.851C210.041 303.949 210.309 305.181 211.174 305.891C212.528 306.999 218.076 305.728 219.787 305.599C223.676 305.308 255.575 299.847 267.587 297.293C273.467 296.044 295.578 292.246 299.121 288.805Z" fill="#090919"/>
<path fill-rule="evenodd" clip-rule="evenodd" d="M316.974 214.348C315.718 214.348 314.377 214.592 313.113 214.857C307.82 215.971 299.712 217.548 291.126 219.219C273.579 222.634 251.738 226.885 247.345 228.505C234.518 233.234 231.149 244.81 228.178 255.026C227.615 256.96 227.083 258.79 226.502 260.508L225.796 262.6C222.494 272.393 214.762 295.325 212.281 300.192L212.212 300.329C211.746 301.24 211.306 302.102 211.17 302.997C211.035 303.879 211.278 304.72 211.79 305.138C212.482 305.706 216.372 305.108 217.837 304.882C218.602 304.766 219.263 304.664 219.715 304.63C223.621 304.336 255.617 298.846 267.385 296.343C268.338 296.142 269.73 295.87 271.344 295.554C279.241 294.008 295.675 290.796 298.443 288.108C301.442 285.197 310.022 258.348 315.701 240.583C317.757 234.15 319.533 228.596 320.848 224.726C322.459 219.991 322.313 216.93 320.398 215.366C319.467 214.606 318.265 214.348 316.974 214.348ZM213.295 307.315C212.096 307.315 211.156 307.133 210.558 306.642C209.51 305.784 209.008 304.275 209.248 302.705C209.431 301.5 209.965 300.455 210.481 299.444L210.549 299.31C212.965 294.569 220.666 271.732 223.954 261.978L224.661 259.886C225.228 258.207 225.754 256.397 226.311 254.484C229.258 244.354 232.925 231.749 246.672 226.681C251.214 225.007 272.221 220.918 290.757 217.311C299.332 215.642 307.434 214.065 312.714 212.955C314.148 212.653 315.681 212.375 317.203 212.408C319.028 212.444 320.473 212.919 321.628 213.86C325.518 217.038 323.389 223.296 322.69 225.352C321.377 229.205 319.606 234.752 317.553 241.174C314.435 250.927 310.902 261.981 307.684 271.195C302.637 285.642 300.766 288.563 299.799 289.503C296.861 292.353 283.763 295.106 271.715 297.461C270.112 297.775 268.727 298.047 267.789 298.246C255.976 300.756 223.805 306.272 219.86 306.569C219.484 306.596 218.857 306.693 218.132 306.805C216.279 307.089 214.628 307.315 213.295 307.315Z" fill="#5F5E79"/>
<path fill-rule="evenodd" clip-rule="evenodd" d="M190.428 292.275C189.995 292.275 189.6 291.984 189.487 291.544C188.772 288.752 186.085 286.903 183.808 286.103C181.038 285.131 177.982 285.09 175.027 285.049L144.079 284.623C136.418 284.517 128.496 284.407 120.805 282.874C112.045 281.127 104.939 277.759 99.6847 272.87C91.8085 265.541 88.8928 255.57 87.8335 248.499C86.4327 239.146 87.3655 229.61 88.3499 221.407C88.4141 220.874 88.8991 220.494 89.4308 220.558C89.9639 220.622 90.3442 221.106 90.2801 221.639C89.3108 229.716 88.391 239.097 89.7562 248.21C90.7695 254.975 93.5443 264.498 101.009 271.448C105.995 276.087 112.784 279.292 121.186 280.966C128.701 282.468 136.533 282.575 144.106 282.679L175.054 283.105C178.02 283.146 181.382 283.192 184.452 284.269C188.015 285.52 190.601 288.059 191.37 291.063C191.503 291.583 191.19 292.113 190.67 292.246C190.589 292.266 190.508 292.275 190.428 292.275Z" fill="#5F5E79"/>
<path fill-rule="evenodd" clip-rule="evenodd" d="M131.607 63.3338C122.788 66.9414 115.316 73.6664 109.914 81.69C106.052 87.4278 103.199 93.8366 101.477 100.534C99.8583 106.832 100.573 113.885 97.6575 119.761C96.3747 122.345 94.3597 124.795 91.5737 125.544C88.7877 126.294 85.2871 124.618 84.9627 121.751C84.8407 125.962 85.6944 130.715 88.2794 134.112C90.4377 136.948 92.2799 140.061 95.4785 141.88C101.377 145.235 109.095 143.913 113.962 139.338C117.36 136.144 119.191 131.354 118.792 126.707C118.524 123.598 117.333 120.623 117.194 117.5C117.078 114.892 118.037 112.635 119.189 110.343C121.393 105.96 125.149 101.784 130.261 101.112C135.45 100.43 140.805 103.514 145.807 101.974C149.402 100.867 151.852 97.6578 154.517 95.0018C156.888 92.6387 160.454 90.1078 163.981 91.1019C167.689 92.1473 171.121 93.4724 175.141 93.5183C180.034 93.574 185.136 92.226 188.666 88.8374C192.338 85.3139 193.872 79.9144 193.335 74.8542C192.937 71.1137 191.185 63.4169 186.706 63.1613C184.829 63.0541 182.272 65.7274 180.637 66.4846C176.842 68.2429 173.55 67.7348 169.539 67.8109C164.744 67.9017 160.12 66.391 155.651 64.8081C147.695 61.9898 139.702 60.0225 131.607 63.3338Z" fill="#EA7868"/>
<path fill-rule="evenodd" clip-rule="evenodd" d="M130.616 300.511C128.609 300.511 126.602 300.477 124.595 300.404C111.427 299.932 98.9258 297.962 88.4421 294.706C88.1019 294.601 87.8469 294.317 87.7772 293.967C84.3871 276.974 83.7368 258.056 85.8437 237.745C87.6844 219.997 91.5726 202.162 97.0875 186.17C102.145 171.504 104.65 155.901 107.073 140.811C107.315 139.305 107.557 137.799 107.801 136.295C110.851 117.501 115.351 102.144 121.965 87.9655C124.666 82.1746 128.879 76.9481 134.147 72.8516C139.436 68.7386 145.413 66.0595 151.43 65.1038C161.13 63.562 170.193 66.6957 176.948 73.9252C184.205 81.6908 187.268 94.1061 186.055 110.826C185.746 115.081 185.206 119.252 184.684 123.287C183.371 133.436 182.13 143.023 184.379 153.501C187.484 167.965 192.98 184.839 199.855 201.015C207.407 218.783 216.296 235.038 225.562 248.023C225.874 248.46 225.772 249.065 225.335 249.379C224.899 249.69 224.291 249.588 223.98 249.15C214.633 236.054 205.672 219.671 198.066 201.776C191.144 185.489 185.608 168.49 182.478 153.909C180.159 143.105 181.421 133.357 182.756 123.037C183.275 119.029 183.811 114.886 184.116 110.686C185.289 94.5275 182.399 82.6061 175.528 75.2525C167.452 66.6104 158.132 66.007 151.735 67.0235C140.2 68.856 128.944 77.6023 123.727 88.7871C117.191 102.799 112.74 117.994 109.72 136.606C109.476 138.109 109.234 139.614 108.992 141.119C106.556 156.291 104.038 171.978 98.9253 186.803C93.4581 202.658 89.6031 220.343 87.7772 237.945C85.7139 257.838 86.3175 276.361 89.5713 293.019C99.7792 296.125 111.897 298.005 124.664 298.462C138.528 298.958 152.492 297.711 165.045 294.856C165.569 294.737 166.09 295.065 166.209 295.59C166.328 296.112 166 296.632 165.476 296.754C154.58 299.23 142.638 300.511 130.616 300.511Z" fill="#5F5E79"/>
<path fill-rule="evenodd" clip-rule="evenodd" d="M326.449 193.026C326.339 193.026 326.23 193.008 326.125 192.97C325.729 192.83 325.467 192.451 325.477 192.032C325.481 191.871 325.822 176.328 324.73 167.93C317.769 167.533 309.601 166.442 305.966 162.029C302.812 158.204 302.926 150.966 303.016 145.151C303.048 143.188 303.077 141.332 302.975 139.863C302.54 133.493 302.635 126.387 306.646 121.976C309.188 119.182 312.969 117.758 318.206 117.621C318.743 117.605 319.19 118.031 319.202 118.568C319.217 119.104 318.794 119.551 318.257 119.565C313.579 119.687 310.25 120.903 308.085 123.284C304.564 127.154 304.506 133.77 304.914 139.73C305.021 141.281 304.992 143.176 304.96 145.182C304.875 150.678 304.768 157.519 307.465 160.793C311.181 165.302 321.678 165.832 325.632 166.031C326.094 166.055 326.475 166.401 326.543 166.858C327.493 173.22 327.513 184.156 327.462 189.287C333.17 182.583 346.506 168.465 349.993 166.317C354.104 163.783 358.556 164.101 362.86 164.408C364.235 164.506 365.659 164.608 367.034 164.61C372.905 164.621 378.927 164.405 384.756 164.197C393.606 163.88 402.758 163.553 411.523 164.011C416.261 164.257 419.603 163.235 421.452 160.969C423.199 158.826 423.435 155.779 423.525 152.842C423.566 151.532 423.678 149.949 423.804 148.115C424.368 140.054 425.311 126.562 420.334 121.928C418.932 120.622 416.835 120.363 414.441 120.177C404.082 119.376 393.529 119.042 380.232 119.094C375.058 119.114 369.797 119.119 364.709 119.124C357.407 119.131 349.859 119.139 342.435 119.191C342.433 119.191 342.431 119.191 342.428 119.191C341.894 119.191 341.461 118.76 341.456 118.226C341.451 117.689 341.884 117.251 342.421 117.247C349.849 117.195 357.402 117.187 364.706 117.18C369.792 117.175 375.053 117.17 380.224 117.15C393.577 117.097 404.177 117.433 414.589 118.239C417.253 118.445 419.799 118.774 421.658 120.505C427.313 125.771 426.37 139.299 425.746 148.25C425.617 150.064 425.507 151.63 425.469 152.902C425.371 156.029 425.087 159.584 422.958 162.197C420.696 164.97 416.815 166.236 411.423 165.952C402.741 165.498 393.633 165.824 384.827 166.139C378.98 166.349 372.93 166.563 367.032 166.554C365.589 166.552 364.131 166.448 362.721 166.347C358.539 166.048 354.59 165.767 351.013 167.971C349.495 168.907 345.021 173.184 339.34 179.135C334.152 184.569 329.165 190.126 327.219 192.648C327.029 192.891 326.743 193.026 326.449 193.026Z" fill="#5F5E79"/>
<path fill-rule="evenodd" clip-rule="evenodd" d="M301.116 107.397C308.454 107.397 315.871 107.719 323.151 109.088C323.591 109.171 323.917 109.542 323.941 109.987C324.075 112.272 323.904 123.418 323.819 128.436C328.704 123.527 342.681 109.833 348.073 108.282C349.679 107.82 351.716 107.619 353.871 107.405C358.282 106.968 363.285 106.473 365.63 103.631C368.33 100.359 368.223 93.5159 368.138 88.0171C368.106 86.0113 368.077 84.1169 368.184 82.5658C368.59 76.6051 368.534 69.9899 365.013 66.1198C362.848 63.7389 359.519 62.5222 354.841 62.4002C348.44 62.2333 341.532 62.1189 333.726 62.0506C325.285 61.9767 316.699 61.9682 308.396 61.9599C303.305 61.9548 298.039 61.9495 292.861 61.9293C289.097 61.9145 285.333 61.8953 281.569 61.8763C276.758 61.8518 271.946 61.8275 267.135 61.8122C266.369 61.8098 265.519 61.7913 264.617 61.7716C260.882 61.6895 256.234 61.5884 253.454 62.5475C250.511 63.5628 249.456 67.5314 249.716 71.0143C249.867 73.022 249.663 76.1747 249.425 79.8253C248.834 88.9412 247.94 102.717 252.778 105.596C255.631 107.294 266.753 107.977 285.831 107.626C286.327 107.617 286.757 107.609 287.114 107.603C288.521 107.581 289.931 107.553 291.34 107.525C294.572 107.462 297.835 107.397 301.116 107.397ZM322.806 131.823C322.68 131.823 322.553 131.799 322.434 131.749C322.065 131.596 321.827 131.232 321.834 130.833C321.837 130.666 322.123 115.227 322.028 110.859C311.925 109.065 301.485 109.27 291.379 109.469C289.967 109.497 288.555 109.524 287.146 109.547C286.791 109.552 286.361 109.56 285.868 109.569C273.285 109.801 256.066 109.814 251.784 107.267C245.921 103.779 246.788 90.4274 247.486 79.6992C247.719 76.1215 247.918 73.0315 247.78 71.1592C247.617 68.9855 247.911 66.8187 248.606 65.0579C249.473 62.8656 250.929 61.3622 252.82 60.7099C255.93 59.6373 260.771 59.7433 264.659 59.8281C265.55 59.8475 266.394 59.8658 267.142 59.8682C271.953 59.8835 276.765 59.9078 281.579 59.9323C285.343 59.9513 289.104 59.9705 292.868 59.9853C298.044 60.0055 303.308 60.0108 308.399 60.0159C316.704 60.0242 325.294 60.0327 333.744 60.1066C341.561 60.1751 348.479 60.2895 354.892 60.457C360.128 60.5935 363.91 62.018 366.451 64.8115C370.463 69.2222 370.558 76.3285 370.123 82.6985C370.021 84.1682 370.05 86.023 370.082 87.9867C370.172 93.8046 370.286 101.045 367.129 104.869C364.274 108.328 358.848 108.865 354.063 109.34C351.998 109.544 350.046 109.737 348.613 110.15C343.901 111.505 329.664 125.136 323.506 131.525C323.319 131.719 323.064 131.823 322.806 131.823Z" fill="#5F5E79"/>
<path fill-rule="evenodd" clip-rule="evenodd" d="M333.722 133.686C333.909 134.056 334.438 134.396 335.075 134.597C336.013 134.894 337.128 134.96 338.202 135.02C355.358 135.987 370.813 136.118 387.765 134.91C388.54 134.854 389.381 134.782 389.901 134.475C390.763 133.968 390.2 133.08 389.116 132.686C388.032 132.291 386.652 132.253 385.354 132.228C369.258 131.922 353.456 131.885 337.573 132.162C336.028 132.188 334.11 132.362 333.712 133.153C333.622 133.33 333.634 133.511 333.722 133.686Z" fill="#EA7868"/>
<path fill-rule="evenodd" clip-rule="evenodd" d="M280.381 83.9563C280.568 84.3266 281.098 84.6666 281.734 84.8678C282.672 85.1642 283.788 85.2306 284.862 85.2903C302.017 86.2575 317.472 86.3887 334.424 85.1803C335.199 85.1249 336.04 85.0522 336.56 84.7458C337.423 84.2389 336.859 83.3505 335.775 82.9561C334.691 82.5619 333.311 82.5236 332.013 82.4988C315.917 82.1923 300.115 82.1554 284.232 82.4322C282.687 82.4589 280.77 82.6327 280.371 83.4239C280.281 83.6005 280.293 83.7818 280.381 83.9563Z" fill="#EA7868"/>
<path fill-rule="evenodd" clip-rule="evenodd" d="M333.595 150.076C333.782 150.447 334.312 150.787 334.949 150.988C335.887 151.284 337 151.351 338.076 151.41C355.232 152.378 370.687 152.509 387.636 151.3C388.414 151.245 389.255 151.172 389.775 150.866C390.637 150.359 390.073 149.471 388.99 149.076C387.906 148.682 386.526 148.644 385.228 148.619C369.132 148.312 353.329 148.275 337.447 148.552C335.901 148.579 333.984 148.753 333.586 149.544C333.496 149.721 333.508 149.902 333.595 150.076Z" fill="#EA7868"/>
<path fill-rule="evenodd" clip-rule="evenodd" d="M270.571 207.296C270.233 207.296 269.903 207.119 269.725 206.803L257.638 185.506C257.371 185.039 257.536 184.446 258.003 184.181C258.469 183.916 259.062 184.08 259.327 184.547L271.416 205.844C271.681 206.311 271.516 206.904 271.049 207.169C270.899 207.255 270.734 207.296 270.571 207.296Z" fill="#5F5E79"/>
<path fill-rule="evenodd" clip-rule="evenodd" d="M280.23 207.943C279.693 207.943 279.258 207.507 279.258 206.971V179.342C279.258 178.805 279.693 178.37 280.23 178.37C280.767 178.37 281.202 178.805 281.202 179.342V206.971C281.202 207.507 280.767 207.943 280.23 207.943Z" fill="#5F5E79"/>
<path fill-rule="evenodd" clip-rule="evenodd" d="M292.317 207.367C292.186 207.367 292.052 207.341 291.923 207.284C291.432 207.068 291.211 206.494 291.427 206.003L300.061 186.432C300.277 185.941 300.851 185.718 301.342 185.936C301.835 186.152 302.056 186.726 301.84 187.217L293.206 206.787C293.046 207.151 292.689 207.367 292.317 207.367Z" fill="#5F5E79"/>
</svg>
