<svg width="477" height="477" viewBox="0 0 477 477" fill="none" xmlns="http://www.w3.org/2000/svg">
<path fill-rule="evenodd" clip-rule="evenodd" d="M269.82 377.202C272.97 390.441 278.983 396.716 297.023 397.835C315.812 399.003 375.559 398.364 386.716 398.641C400.628 398.984 415.889 404.436 429.3 407.399C407.558 385.635 414.537 355.699 410.745 329.008C408.197 311.076 378.397 307.846 356.095 307.999C303.231 308.357 271.88 302.215 268.63 334.794C267.661 344.518 267.139 365.945 269.82 377.202Z" fill="#090919"/>
<path fill-rule="evenodd" clip-rule="evenodd" d="M372.525 397.608C379.122 397.608 384.173 397.622 386.737 397.687C396.642 397.932 407.103 400.704 417.22 403.387C420.406 404.231 423.461 405.042 426.445 405.76C412.486 390.029 411.88 370.395 411.293 351.377C411.064 344 410.828 336.373 409.8 329.142C408.722 321.543 402.249 315.991 390.565 312.638C381.712 310.098 370.123 308.855 356.102 308.953C348.167 309.005 340.855 308.915 333.783 308.826C314.162 308.583 298.664 308.39 287.776 311.679C276.452 315.097 270.841 322.254 269.579 334.89C268.668 344.024 268.074 365.752 270.747 376.98C273.609 389.005 278.654 395.738 297.083 396.883C309.647 397.663 340.506 397.634 363.042 397.615C366.446 397.61 369.634 397.608 372.525 397.608ZM429.3 408.353C429.231 408.353 429.164 408.345 429.095 408.331C425.102 407.449 421.036 406.373 416.731 405.231C406.721 402.578 396.37 399.833 386.692 399.595C383.026 399.504 374.206 399.511 363.042 399.523C340.485 399.542 309.587 399.571 296.966 398.789C287.846 398.221 281.578 396.32 277.237 392.805C273.223 389.552 270.65 384.808 268.892 377.421C266.261 366.369 266.614 345.396 267.68 334.699C269.028 321.188 275.057 313.525 287.223 309.852C298.394 306.48 314.021 306.673 333.807 306.918C340.869 307.007 348.174 307.097 356.09 307.045C370.293 306.947 382.063 308.214 391.092 310.804C403.566 314.384 410.497 320.463 411.689 328.872C412.731 336.209 412.97 343.888 413.199 351.318C413.504 361.151 413.817 371.321 416.006 380.753C418.443 391.262 423.013 399.757 429.975 406.726C430.275 407.026 430.34 407.487 430.137 407.859C429.965 408.169 429.643 408.353 429.3 408.353Z" fill="#5F5E79"/>
<path fill-rule="evenodd" clip-rule="evenodd" d="M332.486 366.021C324.765 366.021 317.038 365.857 309.466 365.325C308.941 365.287 308.545 364.831 308.583 364.306C308.619 363.779 309.072 363.383 309.602 363.421C323.301 364.385 337.558 364.135 351.346 363.894C360.078 363.741 369.105 363.581 377.851 363.739C378.378 363.748 378.798 364.182 378.788 364.709C378.778 365.229 378.354 365.647 377.834 365.647C377.829 365.647 377.822 365.647 377.817 365.647C369.105 365.492 360.094 365.649 351.38 365.802C345.148 365.911 338.818 366.021 332.486 366.021Z" fill="#5F5E79"/>
<path fill-rule="evenodd" clip-rule="evenodd" d="M387.677 344.48C387.667 344.48 387.66 344.48 387.651 344.48C364.745 343.86 326.096 343.433 295.358 343.97C294.836 343.989 294.397 343.559 294.388 343.032C294.38 342.505 294.8 342.071 295.325 342.062C326.091 341.525 364.779 341.949 387.703 342.574C388.23 342.586 388.645 343.025 388.631 343.552C388.617 344.07 388.192 344.48 387.677 344.48Z" fill="#5F5E79"/>
<path fill-rule="evenodd" clip-rule="evenodd" d="M269.82 139.048C272.97 152.287 278.983 158.562 297.023 159.682C315.812 160.849 375.559 160.211 386.716 160.487C400.628 160.832 415.889 166.284 429.3 169.247C407.558 147.482 414.537 117.546 410.745 90.8542C408.197 72.9214 378.397 69.6935 356.095 69.8445C303.231 70.2025 271.88 64.0611 268.63 96.6407C267.661 106.366 267.139 127.792 269.82 139.048Z" fill="#090919"/>
<path fill-rule="evenodd" clip-rule="evenodd" d="M372.535 159.454C379.127 159.454 384.173 159.47 386.737 159.533C396.642 159.779 407.103 162.552 417.22 165.233C420.406 166.078 423.461 166.888 426.445 167.607C412.486 151.875 411.88 132.241 411.293 113.224C411.064 105.847 410.828 98.2188 409.8 90.9882C408.722 83.3908 402.249 77.8383 390.565 74.485C381.712 71.944 370.123 70.7055 356.102 70.7985C348.167 70.8524 340.855 70.7615 333.783 70.6737C314.162 70.4298 298.664 70.2378 287.776 73.5245C276.452 76.9427 270.841 84.1011 269.579 96.7356C268.668 105.872 268.074 127.598 270.747 138.827C273.609 150.852 278.654 157.586 297.083 158.73C309.647 159.51 340.506 159.482 363.04 159.461C366.45 159.458 369.642 159.454 372.535 159.454ZM429.3 170.201C429.231 170.201 429.164 170.193 429.095 170.178C425.102 169.296 421.036 168.218 416.731 167.078C406.721 164.424 396.37 161.681 386.692 161.441C383.026 161.35 374.206 161.358 363.042 161.369C340.483 161.39 309.587 161.418 296.966 160.635C287.846 160.068 281.578 158.167 277.237 154.651C273.223 151.399 270.65 146.655 268.892 139.269C266.261 128.216 266.614 107.241 267.68 96.5462C269.028 83.0342 275.057 75.3708 287.223 71.6979C298.394 68.3262 314.021 68.5201 333.807 68.7657C340.869 68.8533 348.174 68.9446 356.09 68.8905C370.293 68.797 382.063 70.0596 391.092 72.6509C403.566 76.2308 410.497 82.3102 411.689 90.7199C412.731 98.0547 412.97 105.736 413.199 113.165C413.504 122.998 413.817 133.166 416.006 142.599C418.443 153.107 423.013 161.603 429.975 168.572C430.275 168.872 430.34 169.334 430.137 169.705C429.965 170.015 429.643 170.201 429.3 170.201Z" fill="#5F5E79"/>
<path fill-rule="evenodd" clip-rule="evenodd" d="M389.852 107.084C389.843 107.084 389.833 107.084 389.826 107.083C366.92 106.461 328.271 106.036 297.534 106.572C297.002 106.584 296.572 106.162 296.563 105.635C296.553 105.108 296.973 104.674 297.5 104.665C328.267 104.128 366.954 104.554 389.876 105.176C390.403 105.19 390.818 105.629 390.804 106.156C390.792 106.673 390.367 107.084 389.852 107.084Z" fill="#5F5E79"/>
<path fill-rule="evenodd" clip-rule="evenodd" d="M340.292 129.697C340.28 129.697 340.268 129.697 340.256 129.696C326.805 129.196 313.11 129.074 299.556 129.332C299.549 129.332 299.544 129.332 299.537 129.332C299.019 129.332 298.592 128.917 298.583 128.396C298.573 127.869 298.993 127.434 299.52 127.424C313.11 127.165 326.838 127.288 340.327 127.789C340.855 127.809 341.265 128.252 341.246 128.778C341.227 129.293 340.802 129.697 340.292 129.697Z" fill="#5F5E79"/>
<path fill-rule="evenodd" clip-rule="evenodd" d="M359.913 125.521C359.639 125.521 359.365 125.403 359.176 125.173C358.737 124.639 358.561 123.976 358.671 123.258C358.818 122.277 359.496 121.281 360.44 120.659C360.874 120.373 361.325 120.149 361.764 119.933C362.42 119.608 363.042 119.3 363.448 118.85C363.848 118.403 363.987 117.725 363.82 117.036C363.643 116.318 363.183 115.757 362.584 115.533C361.976 115.305 361.203 115.432 360.567 115.863C359.97 116.268 359.605 116.858 359.591 117.44C359.582 117.96 359.157 118.374 358.64 118.374C358.632 118.374 358.625 118.374 358.618 118.373C358.091 118.362 357.674 117.926 357.686 117.399C357.712 116.199 358.389 115.034 359.498 114.283C360.655 113.499 362.06 113.298 363.255 113.746C364.442 114.192 365.346 115.252 365.673 116.582C365.99 117.885 365.69 119.21 364.864 120.126C364.216 120.848 363.4 121.252 362.611 121.643C362.208 121.842 361.826 122.031 361.49 122.252C361.015 122.565 360.622 123.108 360.557 123.543C360.521 123.771 360.588 123.886 360.65 123.961C360.984 124.368 360.927 124.969 360.519 125.304C360.342 125.45 360.128 125.521 359.913 125.521Z" fill="#5F5E79"/>
<path fill-rule="evenodd" clip-rule="evenodd" d="M360.171 129.163H359.35C358.823 129.163 358.396 128.736 358.396 128.209C358.396 127.683 358.823 127.255 359.35 127.255H360.171C360.698 127.255 361.125 127.683 361.125 128.209C361.125 128.736 360.698 129.163 360.171 129.163Z" fill="#5F5E79"/>
<path fill-rule="evenodd" clip-rule="evenodd" d="M414.453 258.124C411.303 271.363 405.29 277.638 387.248 278.759C368.461 279.925 308.712 279.288 297.557 279.565C283.646 279.908 268.384 285.36 254.973 288.323C276.715 266.557 269.734 236.623 273.526 209.931C276.073 191.998 305.874 188.77 328.176 188.921C381.039 189.279 412.39 183.138 415.641 215.717C416.612 225.442 417.132 246.869 414.453 258.124Z" fill="#EA7868"/>
<path fill-rule="evenodd" clip-rule="evenodd" d="M351.79 246.945C345.455 246.945 339.126 246.833 332.891 246.726C324.179 246.573 315.166 246.416 306.456 246.568C306.449 246.568 306.444 246.568 306.439 246.568C305.919 246.568 305.495 246.153 305.485 245.634C305.476 245.106 305.895 244.67 306.422 244.66C315.166 244.505 324.196 244.665 332.925 244.818C346.712 245.059 360.97 245.309 374.672 244.343C375.199 244.305 375.652 244.703 375.69 245.228C375.728 245.755 375.33 246.211 374.805 246.246C367.235 246.781 359.508 246.945 351.79 246.945Z" fill="#090919"/>
<path fill-rule="evenodd" clip-rule="evenodd" d="M296.594 225.404C296.079 225.404 295.656 224.994 295.642 224.476C295.628 223.949 296.043 223.511 296.57 223.496C319.495 222.873 358.184 222.448 388.946 222.985C389.473 222.994 389.893 223.429 389.883 223.956C389.874 224.482 389.442 224.912 388.912 224.893C358.177 224.357 319.526 224.781 296.62 225.404C296.613 225.404 296.603 225.404 296.594 225.404Z" fill="#090919"/>
<path fill-rule="evenodd" clip-rule="evenodd" d="M47.7 226.995C47.7 175.711 89.2743 134.136 140.559 134.136C191.844 134.136 233.418 171.139 233.418 226.995C233.418 278.279 191.844 319.855 140.559 319.855C89.2743 319.855 47.7 278.279 47.7 226.995Z" fill="#090919"/>
<path fill-rule="evenodd" clip-rule="evenodd" d="M197.883 309.222C195.552 302.606 175.162 274.196 172.06 263.755C170.589 258.804 169.648 253.719 169.442 248.51C168.89 234.526 171.29 220.48 169.304 206.541C167.374 192.992 158.797 175.518 141.775 175.979C126.34 176.396 115.74 188.855 113.247 202.298C109.798 220.9 113.318 240.065 110.7 258.768C109.96 264.062 108.703 269.3 106.69 274.299C101.685 286.737 90.8067 298.092 84.3678 309.222C84.0226 309.821 197.883 309.222 197.883 309.222Z" fill="#090919"/>
<path fill-rule="evenodd" clip-rule="evenodd" d="M144.791 280.807C144.295 280.807 143.877 280.426 143.84 279.923C143.803 279.398 144.198 278.94 144.723 278.902C147.56 278.699 153.115 277.991 158.457 275.556C163.452 273.28 166.836 270.156 168.514 266.273C168.723 265.789 169.284 265.565 169.768 265.775C170.252 265.985 170.475 266.545 170.266 267.029C166.339 276.119 154.567 280.106 144.861 280.805C144.837 280.807 144.814 280.807 144.791 280.807Z" fill="#5F5E79"/>
<path fill-rule="evenodd" clip-rule="evenodd" d="M141.829 302.139C141.341 302.139 140.925 301.767 140.88 301.273C140.243 294.23 140.259 287.381 140.927 280.893C129.922 280.519 117.426 274.42 112.799 268.93C112.459 268.527 112.511 267.926 112.914 267.585C113.316 267.246 113.919 267.296 114.258 267.7C118.755 273.037 131.569 279.004 141.988 279.004C142.26 279.004 142.519 279.121 142.7 279.324C142.881 279.527 142.967 279.796 142.936 280.068C142.173 286.732 142.121 293.808 142.781 301.099C142.828 301.624 142.441 302.089 141.917 302.137C141.887 302.139 141.858 302.139 141.829 302.139Z" fill="#5F5E79"/>
<path fill-rule="evenodd" clip-rule="evenodd" d="M177.519 162.45C176.119 161.111 174.279 159.56 174.051 158.614C175.291 163.76 170.447 170.856 165.361 172.899C160.243 174.955 155.317 172.57 150.433 171.295C134.895 167.237 119.813 170.566 110.796 183.667C103.53 194.225 101.802 208.371 106.875 220.07C107.755 222.099 108.848 224.19 110.811 225.375C110.011 224.913 112.82 212.17 113.468 210.91C117.158 203.735 125.554 198.752 134.087 199.246C143.21 199.773 151.844 205.859 161.324 204.852C171.269 203.795 178.239 194.522 181.119 186.176C182.725 181.522 182.82 176.799 182.003 171.965C181.529 169.16 180.472 166.432 178.919 163.997C178.642 163.564 178.121 163.027 177.519 162.45Z" fill="#EA7868"/>
<path fill-rule="evenodd" clip-rule="evenodd" d="M90.4239 300.92C90.225 300.92 90.0247 300.858 89.8534 300.729C89.4313 300.415 89.3449 299.816 89.6605 299.394C94.0982 293.458 98.1716 287.24 101.571 281.94C105.808 275.334 108.486 267.712 109.756 258.634C110.47 253.53 110.752 249.395 110.797 243.375C110.8 242.848 111.225 242.414 111.757 242.428C112.285 242.433 112.708 242.862 112.705 243.389C112.66 249.5 112.373 253.702 111.645 258.899C110.336 268.253 107.566 276.128 103.177 282.971C99.7593 288.299 95.6626 294.552 91.1885 300.536C91.0013 300.787 90.7144 300.92 90.4239 300.92Z" fill="#5F5E79"/>
<path fill-rule="evenodd" clip-rule="evenodd" d="M192.798 300.918C192.463 300.918 192.137 300.739 191.963 300.426C189.697 296.336 186.681 291.59 183.764 287.001C178.417 278.589 172.888 269.889 171.145 264.027C169.58 258.758 168.686 253.552 168.489 248.546C168.398 246.251 168.38 243.788 168.433 241.019C168.443 240.491 168.878 240.067 169.405 240.083C169.931 240.093 170.35 240.527 170.34 241.054C170.288 243.788 170.306 246.213 170.395 248.472C170.587 253.318 171.454 258.367 172.974 263.483C174.641 269.09 180.097 277.676 185.374 285.978C188.306 290.591 191.338 295.361 193.632 299.501C193.887 299.961 193.721 300.541 193.26 300.799C193.113 300.88 192.955 300.918 192.798 300.918Z" fill="#5F5E79"/>
<path fill-rule="evenodd" clip-rule="evenodd" d="M170.008 226.048C169.996 226.048 169.983 226.048 169.97 226.048C169.311 226.027 168.795 225.476 168.816 224.818C168.986 219.461 169.037 213.12 168.124 206.709C167.062 199.255 164.19 191.97 160.246 186.722C155.333 180.186 149.131 176.972 141.808 177.171C130.825 177.468 117.57 185.526 114.419 202.516C113.04 209.954 112.834 217.457 112.809 223.164C112.806 223.821 112.273 224.351 111.616 224.351C111.615 224.351 111.613 224.351 111.611 224.351C110.952 224.348 110.421 223.812 110.424 223.153C110.45 217.347 110.661 209.705 112.074 202.081C113.395 194.957 116.856 188.325 121.818 183.407C127.303 177.972 134.192 174.991 141.743 174.787C149.763 174.563 156.824 178.201 162.152 185.29C166.331 190.849 169.368 198.533 170.485 206.372C171.424 212.965 171.373 219.435 171.199 224.894C171.179 225.539 170.649 226.048 170.008 226.048Z" fill="#5F5E79"/>
<path fill-rule="evenodd" clip-rule="evenodd" d="M134.275 257.172C134.263 257.172 134.251 257.172 134.238 257.172C127.146 256.903 120.312 252.626 114.993 245.135C110.196 238.377 107.947 231.017 107.846 226.721C107.834 226.194 108.251 225.757 108.778 225.745C109.305 225.733 109.742 226.15 109.754 226.676C109.883 232.206 113.367 239.549 116.549 244.031C119.426 248.083 125.559 254.933 134.311 255.264C134.837 255.286 135.248 255.729 135.228 256.254C135.208 256.769 134.785 257.172 134.275 257.172Z" fill="#5F5E79"/>
<path fill-rule="evenodd" clip-rule="evenodd" d="M135.797 254.37C132.967 252.576 126.779 251.167 126.087 254.451C125.546 257.012 129.723 258.21 131.981 258.901C135.288 259.915 139.504 258.4 136.676 255.073C136.494 254.859 136.189 254.618 135.797 254.37Z" fill="#5F5E79"/>
<path fill-rule="evenodd" clip-rule="evenodd" d="M129.394 253.43C128.802 253.43 128.273 253.509 127.859 253.683C127.377 253.886 127.118 254.184 127.02 254.646C126.675 256.283 130.315 257.396 132.065 257.931L132.26 257.99C134.099 258.553 136.074 258.152 136.547 257.435C136.882 256.924 136.317 256.123 135.949 255.691C135.896 255.629 135.725 255.453 135.286 255.176C133.749 254.2 131.257 253.43 129.394 253.43ZM134.072 260.161C133.263 260.161 132.442 260.041 131.701 259.815L131.507 259.755C129.04 259.001 124.447 257.599 125.153 254.253C125.38 253.177 126.06 252.371 127.118 251.925C129.704 250.835 134.117 252.176 136.307 253.564C136.799 253.876 137.157 254.167 137.403 254.456C139.064 256.409 138.578 257.816 138.141 258.482C137.377 259.643 135.749 260.161 134.072 260.161Z" fill="#5F5E79"/>
<path fill-rule="evenodd" clip-rule="evenodd" d="M114.973 224.462C114.693 230.979 112.771 236.136 108.974 235.991C105.176 235.847 100.53 230.415 100.81 223.899C101.09 217.382 106.191 212.248 109.988 212.393C113.786 212.538 115.254 217.946 114.973 224.462Z" fill="#5F5E79"/>
<path fill-rule="evenodd" clip-rule="evenodd" d="M109.821 213.344C106.433 213.344 102.008 218.252 101.763 223.94C101.625 227.151 102.808 230.441 104.927 232.74C106.229 234.151 107.717 234.989 109.01 235.038C109.048 235.04 109.086 235.04 109.124 235.04C112.395 235.04 113.799 229.578 114.02 224.421C114.226 219.649 113.465 215.96 111.934 214.299C111.37 213.687 110.721 213.375 109.952 213.346C109.909 213.344 109.865 213.344 109.821 213.344ZM109.13 236.949C109.066 236.949 109.002 236.947 108.938 236.945C107.141 236.876 105.168 235.815 103.524 234.033C101.069 231.369 99.6978 227.566 99.8571 223.858C100.162 216.776 105.661 211.265 110.025 211.44C111.309 211.488 112.423 212.016 113.336 213.006C115.901 215.787 116.06 221.403 115.927 224.503C115.59 232.32 113.055 236.949 109.13 236.949Z" fill="#5F5E79"/>
<path fill-rule="evenodd" clip-rule="evenodd" d="M178.885 224.501C178.704 231.313 175.477 236.763 171.678 236.673C167.878 236.584 166.321 231.021 166.502 224.209C166.683 217.397 168.534 211.915 172.334 212.004C176.133 212.094 179.066 217.689 178.885 224.501Z" fill="#5F5E79"/>
<path fill-rule="evenodd" clip-rule="evenodd" d="M172.251 212.957C169.518 212.957 167.639 217.369 167.456 224.234C167.322 229.279 168.161 233.136 169.758 234.815C170.32 235.406 170.956 235.702 171.7 235.72C171.723 235.72 171.747 235.721 171.77 235.721C174.955 235.721 177.768 230.602 177.931 224.476C178.044 220.25 176.9 216.349 174.947 214.295C174.124 213.43 173.237 212.98 172.311 212.958C172.291 212.958 172.271 212.957 172.251 212.957ZM171.771 237.629C171.733 237.629 171.694 237.628 171.655 237.627C170.395 237.597 169.292 237.093 168.375 236.13C165.714 233.331 165.462 227.444 165.548 224.184C165.768 215.945 168.267 211.049 172.241 211.049C172.279 211.049 172.317 211.05 172.356 211.051C173.787 211.084 175.161 211.752 176.329 212.981C178.619 215.388 179.964 219.812 179.838 224.526C179.642 231.91 176.109 237.629 171.771 237.629Z" fill="#5F5E79"/>
<path fill-rule="evenodd" clip-rule="evenodd" d="M142.036 242.159C140.419 242.159 138.806 241.484 137.583 240.289C136.412 239.146 135.749 237.643 135.763 236.167C135.769 235.643 136.194 235.222 136.717 235.222C136.72 235.222 136.723 235.222 136.727 235.222C137.253 235.227 137.676 235.658 137.671 236.185C137.662 237.144 138.116 238.143 138.916 238.925C139.817 239.805 141.002 240.291 142.166 240.248C143.328 240.208 144.472 239.65 145.302 238.715C146.04 237.883 146.417 236.859 146.336 235.903C146.291 235.379 146.68 234.917 147.205 234.872C147.732 234.828 148.192 235.216 148.237 235.742C148.362 237.216 147.813 238.76 146.729 239.981C145.553 241.307 143.913 242.099 142.23 242.154C142.165 242.156 142.101 242.159 142.036 242.159Z" fill="#5F5E79"/>
<path fill-rule="evenodd" clip-rule="evenodd" d="M149.997 295.573C149.604 295.573 149.213 295.425 148.902 295.153C148.54 294.838 148.329 294.392 148.323 293.932C148.317 293.472 148.518 293.021 148.873 292.697C149.227 292.372 149.693 292.21 150.152 292.258C150.676 292.313 151.058 292.78 151.005 293.305C150.98 293.543 150.871 293.751 150.709 293.904C150.875 294.051 150.99 294.257 151.019 294.495C151.085 295.017 150.715 295.494 150.192 295.561C150.127 295.568 150.062 295.573 149.997 295.573Z" fill="#5F5E79"/>
<path fill-rule="evenodd" clip-rule="evenodd" d="M91.4029 306.747C91.2303 306.747 91.0555 306.699 90.8983 306.601C77.6487 298.318 66.5768 286.758 58.8797 273.173C50.9417 259.164 46.746 243.194 46.746 226.995C46.746 214.331 49.2264 202.045 54.1187 190.478C58.8436 179.307 65.6077 169.275 74.2231 160.659C82.8384 152.044 92.8709 145.28 104.042 140.555C115.609 135.663 127.895 133.182 140.559 133.182C166.138 133.182 189.692 142.327 206.883 158.934C215.551 167.307 222.32 177.273 227.002 188.556C231.892 200.341 234.372 213.274 234.372 226.995C234.372 242.929 230.305 258.668 222.611 272.51C215.154 285.923 204.396 297.431 191.501 305.786C191.058 306.072 190.468 305.945 190.182 305.504C189.895 305.061 190.021 304.469 190.464 304.183C203.098 295.998 213.638 284.726 220.943 271.582C228.48 258.024 232.464 242.605 232.464 226.995C232.464 213.526 230.033 200.84 225.239 189.287C220.658 178.247 214.036 168.496 205.557 160.306C188.725 144.045 165.641 135.09 140.559 135.09C128.151 135.09 116.116 137.52 104.786 142.312C93.8418 146.941 84.013 153.568 75.5723 162.008C67.1318 170.449 60.5048 180.278 55.876 191.222C51.0838 202.552 48.654 214.588 48.654 226.995C48.654 242.865 52.764 258.508 60.5399 272.233C68.081 285.542 78.9284 296.868 91.9098 304.982C92.3565 305.261 92.4922 305.85 92.2129 306.298C92.0319 306.587 91.7211 306.747 91.4029 306.747Z" fill="#5F5E79"/>
<path fill-rule="evenodd" clip-rule="evenodd" d="M208.74 360.994H72.3778C67.8076 360.994 64.103 357.29 64.103 352.718V315.049C64.103 310.479 67.8076 306.773 72.3778 306.773H208.74C213.31 306.773 217.015 310.479 217.015 315.049V352.718C217.015 357.29 213.31 360.994 208.74 360.994Z" fill="#EA7868"/>
<path fill-rule="evenodd" clip-rule="evenodd" d="M194.562 343.731C194.548 343.731 194.534 343.731 194.52 343.731C172.212 342.765 149.023 343.015 126.596 343.256C112.417 343.409 97.7546 343.566 83.5598 343.411C83.033 343.407 82.6106 342.975 82.6163 342.448C82.6223 341.923 83.0482 341.503 83.5701 341.503C83.5739 341.503 83.5772 341.503 83.5808 341.503C97.7542 341.658 112.406 341.501 126.576 341.348C149.028 341.107 172.244 340.855 194.602 341.825C195.128 341.847 195.537 342.293 195.515 342.82C195.492 343.33 195.07 343.731 194.562 343.731Z" fill="#090919"/>
<path fill-rule="evenodd" clip-rule="evenodd" d="M176.085 326.719C176.05 326.719 176.015 326.716 175.979 326.714C161.147 325.085 145.702 325.507 130.766 325.915C121.298 326.175 111.508 326.442 102.022 326.177C101.495 326.163 101.08 325.724 101.094 325.2C101.109 324.672 101.551 324.257 102.074 324.272C111.509 324.532 121.272 324.267 130.713 324.009C145.714 323.599 161.225 323.175 176.188 324.816C176.711 324.873 177.089 325.345 177.032 325.87C176.978 326.356 176.565 326.719 176.085 326.719Z" fill="#090919"/>
</svg>
