<svg width="25" height="25" viewBox="0 0 25 25" fill="none" xmlns="http://www.w3.org/2000/svg">
<path d="M18.7153 0H6.26487C2.81523 0 0 2.81746 0 6.26984V18.75C0 22.1825 2.81523 25 6.26487 25H18.7351C22.1848 25 25 22.1825 25 18.7302V6.26984C24.9802 2.81746 22.1649 0 18.7153 0ZM8.32673 20.2381H4.75813V9.92064H8.32673V20.2381ZM6.5226 8.33333C5.5115 8.33333 4.69865 7.51984 4.69865 6.50794C4.69865 5.49603 5.5115 4.68254 6.5226 4.68254C7.5337 4.68254 8.34655 5.49603 8.34655 6.50794C8.32673 7.51984 7.51388 8.33333 6.5226 8.33333ZM20.2419 20.2381H20.222H17.2482V15.2381C17.2482 14.0278 17.0896 12.4802 15.4441 12.4802C13.7589 12.4802 13.4814 13.7897 13.4814 15.1587V20.2381H10.5075V9.92064H13.2831V11.3095H13.3624C13.7986 10.5159 14.8097 9.90079 16.3957 9.90079C19.6669 9.90079 20.2419 11.7857 20.2419 14.5833V20.2381Z" fill="#656281"/>
</svg>
