<svg width="117" height="60" viewBox="0 0 117 60" fill="none" xmlns="http://www.w3.org/2000/svg">
<path d="M6.20039 14.95V18.6H13.0504V22.125H6.20039V29H1.97539V11.3H13.6254V14.95H6.20039ZM20.1652 12.575C20.1652 12.8917 20.0986 13.1917 19.9652 13.475C19.8486 13.7417 19.6819 13.975 19.4652 14.175C19.2652 14.375 19.0152 14.5333 18.7152 14.65C18.4319 14.7667 18.1319 14.825 17.8152 14.825C17.1486 14.825 16.5902 14.6083 16.1402 14.175C15.6902 13.725 15.4652 13.1917 15.4652 12.575C15.4652 12.275 15.5236 11.9917 15.6402 11.725C15.7569 11.4417 15.9236 11.2 16.1402 11C16.3569 10.8 16.6069 10.6417 16.8902 10.525C17.1736 10.3917 17.4819 10.325 17.8152 10.325C18.1319 10.325 18.4319 10.3833 18.7152 10.5C19.0152 10.6167 19.2652 10.775 19.4652 10.975C19.6819 11.175 19.8486 11.4167 19.9652 11.7C20.0986 11.9667 20.1652 12.2583 20.1652 12.575ZM15.7652 29V16.55H19.8652V29H15.7652ZM36.3127 27.825C36.3127 29.0417 36.1377 30.1 35.7877 31C35.4377 31.9 34.946 32.6417 34.3127 33.225C33.6794 33.825 32.9044 34.2667 31.9877 34.55C31.0877 34.85 30.0877 35 28.9877 35C27.8877 35 26.7544 34.8333 25.5877 34.5C24.4377 34.1667 23.4377 33.6833 22.5877 33.05L24.6377 30.125C25.2377 30.6583 25.896 31.05 26.6127 31.3C27.346 31.5667 28.0627 31.7 28.7627 31.7C29.9627 31.7 30.846 31.3833 31.4127 30.75C31.996 30.1167 32.2877 29.275 32.2877 28.225V27.475H32.2127C31.8294 27.975 31.3127 28.375 30.6627 28.675C30.0127 28.975 29.271 29.125 28.4377 29.125C27.4877 29.125 26.646 28.9583 25.9127 28.625C25.1794 28.275 24.5544 27.8083 24.0377 27.225C23.5377 26.6417 23.1544 25.9667 22.8877 25.2C22.621 24.4167 22.4877 23.5917 22.4877 22.725C22.4877 21.8583 22.621 21.0333 22.8877 20.25C23.1544 19.4667 23.5377 18.775 24.0377 18.175C24.5544 17.575 25.1794 17.1 25.9127 16.75C26.646 16.3833 27.4794 16.2 28.4127 16.2C29.196 16.2 29.946 16.3583 30.6627 16.675C31.3794 16.9917 31.9544 17.4833 32.3877 18.15H32.4377V16.55H36.3127V27.825ZM32.4127 22.7C32.4127 22.2833 32.3377 21.8833 32.1877 21.5C32.0544 21.1167 31.8544 20.7833 31.5877 20.5C31.321 20.2 31.0044 19.9667 30.6377 19.8C30.271 19.6333 29.8544 19.55 29.3877 19.55C28.921 19.55 28.5044 19.6333 28.1377 19.8C27.7877 19.9667 27.4877 20.1917 27.2377 20.475C26.9877 20.7583 26.796 21.0917 26.6627 21.475C26.5294 21.8583 26.4627 22.2667 26.4627 22.7C26.4627 23.1167 26.5294 23.5167 26.6627 23.9C26.796 24.2833 26.9877 24.625 27.2377 24.925C27.4877 25.2083 27.7877 25.4417 28.1377 25.625C28.5044 25.7917 28.921 25.875 29.3877 25.875C29.8544 25.875 30.271 25.7917 30.6377 25.625C31.021 25.4417 31.3377 25.2083 31.5877 24.925C31.8544 24.6417 32.0544 24.3083 32.1877 23.925C32.3377 23.5417 32.4127 23.1333 32.4127 22.7ZM55.4678 29V22.2C55.4678 21.85 55.4428 21.5167 55.3928 21.2C55.3428 20.8667 55.2511 20.5833 55.1178 20.35C54.9844 20.1167 54.8011 19.9333 54.5678 19.8C54.3511 19.65 54.0594 19.575 53.6928 19.575C53.3428 19.575 53.0344 19.65 52.7678 19.8C52.5178 19.95 52.3011 20.15 52.1178 20.4C51.9511 20.65 51.8261 20.9417 51.7428 21.275C51.6594 21.5917 51.6178 21.925 51.6178 22.275V29H47.5178V21.9C47.5178 21.1833 47.3761 20.6167 47.0928 20.2C46.8094 19.7833 46.3594 19.575 45.7428 19.575C45.0928 19.575 44.5844 19.8333 44.2178 20.35C43.8678 20.8667 43.6928 21.5 43.6928 22.25V29H39.5678V16.55H43.5428V18.275H43.5928C43.7428 18.0083 43.9261 17.75 44.1428 17.5C44.3761 17.25 44.6511 17.0333 44.9678 16.85C45.2844 16.65 45.6344 16.4917 46.0178 16.375C46.4178 16.2583 46.8511 16.2 47.3178 16.2C48.2178 16.2 48.9761 16.3833 49.5928 16.75C50.2261 17.1167 50.7178 17.6417 51.0678 18.325C51.4844 17.675 52.0178 17.1583 52.6678 16.775C53.3178 16.3917 54.1094 16.2 55.0428 16.2C55.8928 16.2 56.6011 16.3583 57.1678 16.675C57.7511 16.975 58.2178 17.375 58.5678 17.875C58.9178 18.3583 59.1678 18.9083 59.3178 19.525C59.4844 20.125 59.5678 20.7167 59.5678 21.3V29H55.4678ZM70.0135 23.575H69.4885C69.0385 23.575 68.5801 23.6 68.1135 23.65C67.6635 23.6833 67.2551 23.7583 66.8885 23.875C66.5385 23.9917 66.2468 24.1667 66.0135 24.4C65.7801 24.6167 65.6635 24.9083 65.6635 25.275C65.6635 25.5083 65.7135 25.7083 65.8135 25.875C65.9301 26.0417 66.0718 26.175 66.2385 26.275C66.4051 26.375 66.5968 26.45 66.8135 26.5C67.0301 26.5333 67.2385 26.55 67.4385 26.55C68.2718 26.55 68.9051 26.325 69.3385 25.875C69.7885 25.4083 70.0135 24.7833 70.0135 24V23.575ZM62.4885 18.25C63.2218 17.55 64.0718 17.025 65.0385 16.675C66.0218 16.325 67.0218 16.15 68.0385 16.15C69.0885 16.15 69.9718 16.2833 70.6885 16.55C71.4218 16.8 72.0135 17.2 72.4635 17.75C72.9135 18.2833 73.2385 18.9667 73.4385 19.8C73.6551 20.6167 73.7635 21.5917 73.7635 22.725V29H70.0135V27.675H69.9385C69.6218 28.1917 69.1385 28.5917 68.4885 28.875C67.8551 29.1583 67.1635 29.3 66.4135 29.3C65.9135 29.3 65.3968 29.2333 64.8635 29.1C64.3301 28.9667 63.8385 28.75 63.3885 28.45C62.9551 28.15 62.5968 27.75 62.3135 27.25C62.0301 26.75 61.8885 26.1333 61.8885 25.4C61.8885 24.5 62.1301 23.775 62.6135 23.225C63.1135 22.675 63.7468 22.25 64.5135 21.95C65.2968 21.65 66.1635 21.45 67.1135 21.35C68.0635 21.25 68.9885 21.2 69.8885 21.2V21C69.8885 20.3833 69.6718 19.9333 69.2385 19.65C68.8051 19.35 68.2718 19.2 67.6385 19.2C67.0551 19.2 66.4885 19.325 65.9385 19.575C65.4051 19.825 64.9468 20.125 64.5635 20.475L62.4885 18.25Z" fill="white"/>
<path d="M95.7986 29H91.5736L88.0736 17.025H87.9986L84.4986 29H80.2486L75.2236 11.3H79.8236L82.6236 23.075H82.6986L85.8486 11.3H90.2986L93.4736 23.075H93.5486L96.3986 11.3H100.849L95.7986 29ZM116.108 16.75C116.108 17.7833 115.917 18.6583 115.533 19.375C115.15 20.075 114.633 20.6417 113.983 21.075C113.333 21.5083 112.583 21.825 111.733 22.025C110.883 22.225 110 22.325 109.083 22.325H106.958V29H102.683V11.3H109.183C110.15 11.3 111.05 11.4 111.883 11.6C112.733 11.7833 113.467 12.0917 114.083 12.525C114.717 12.9417 115.208 13.5 115.558 14.2C115.925 14.8833 116.108 15.7333 116.108 16.75ZM111.833 16.775C111.833 16.3583 111.75 16.0167 111.583 15.75C111.417 15.4833 111.192 15.275 110.908 15.125C110.625 14.975 110.3 14.875 109.933 14.825C109.583 14.775 109.217 14.75 108.833 14.75H106.958V18.925H108.758C109.158 18.925 109.542 18.8917 109.908 18.825C110.275 18.7583 110.6 18.6417 110.883 18.475C111.183 18.3083 111.417 18.0917 111.583 17.825C111.75 17.5417 111.833 17.1917 111.833 16.775Z" fill="#57BBF8"/>
<g clip-path="url(#clip0)">
<path d="M94.0989 47.388C94.5444 47.0473 94.8483 46.5391 94.9262 45.9587L95.9207 38.5615C96.0361 37.7031 95.81 36.8514 95.284 36.1634C94.7579 35.4754 93.9951 35.0339 93.1365 34.9203L85.7371 33.9414C84.8675 33.8262 84.0214 34.2426 83.5816 35.0022C83.1425 35.7607 83.2025 36.7004 83.7343 37.3959L86.7457 41.3341C79.942 46.5366 70.1741 45.2338 64.9717 38.4301L63.9235 37.0593C63.5616 36.586 62.8847 36.4958 62.4114 36.8577C61.9381 37.2195 61.8479 37.8964 62.2098 38.3697L63.258 39.7405C66.1282 43.4942 70.2883 45.9055 74.9722 46.5302C79.6559 47.1547 84.3026 45.9182 88.0562 43.048C89.0012 42.3254 89.1822 40.9686 88.4597 40.0238L85.4482 36.0854C85.4481 36.0852 85.4479 36.085 85.4478 36.0849C85.4486 36.0832 85.4498 36.0812 85.4509 36.0796C85.4519 36.0799 85.453 36.0798 85.4542 36.08L92.8537 37.0591C93.1402 37.097 93.3947 37.2442 93.5702 37.4738C93.7458 37.7034 93.8212 37.9876 93.7827 38.2741L92.7882 45.6713L92.7877 45.6746C92.7859 45.6752 92.7838 45.676 92.782 45.6764C92.7818 45.6762 92.7817 45.676 92.7814 45.6757L92.0633 44.7365C91.7014 44.2632 91.0243 44.1731 90.551 44.535C90.0779 44.8967 89.9875 45.5737 90.3494 46.047L91.0675 46.9862C91.5994 47.6818 92.4905 47.9859 93.3376 47.7609C93.6196 47.6861 93.8769 47.5578 94.0989 47.388Z" fill="#57BBF8"/>
</g>
<defs>
<clipPath id="clip0">
<rect width="27.6136" height="27.6136" fill="white" transform="matrix(-0.794379 0.607422 0.607422 0.794379 83.4575 20.697)"/>
</clipPath>
</defs>
</svg>
