<svg width="88" height="88" viewBox="0 0 88 88" fill="none" xmlns="http://www.w3.org/2000/svg">
<path d="M88 23.4756C88 14.1861 80.4427 6.62871 71.1532 6.62871H28.7641C28.0527 6.62871 27.4761 7.20535 27.4761 7.91674C27.4761 8.62813 28.0527 9.20477 28.7641 9.20477H71.1532C79.0221 9.20477 85.4241 15.6066 85.4241 23.4757C85.4241 31.3449 79.0223 37.7467 71.1532 37.7467H57.3005C54.4629 29.121 46.332 22.8757 36.7689 22.8757C27.2112 22.8757 19.0845 29.1134 16.2422 37.7312C8.6527 37.4129 2.57589 31.1419 2.57589 23.4756C2.57589 15.6064 8.97772 9.2046 16.8468 9.2046H22.2845C22.9958 9.2046 23.5725 8.62796 23.5725 7.91657C23.5725 7.20518 22.9958 6.62854 22.2845 6.62854H16.8468C7.55752 6.62871 0 14.1862 0 23.4756C0 32.3366 6.87655 39.6215 15.5732 40.2746C15.3032 41.6367 15.1604 43.044 15.1604 44.4842C15.1604 47.5515 15.7902 50.5154 17.0323 53.294C17.3226 53.9433 18.0847 54.2346 18.7337 53.9442C19.3832 53.6539 19.6742 52.8921 19.3839 52.2428C18.2906 49.797 17.7361 47.1866 17.7361 44.484C17.7361 43.0549 17.8956 41.6623 18.1957 40.3224H49.5756C50.287 40.3224 50.8637 39.7458 50.8637 39.0344C50.8637 38.323 50.287 37.7463 49.5756 37.7463H18.9693C21.6958 30.5675 28.6455 25.4513 36.7689 25.4513C47.2636 25.4513 55.8015 33.9892 55.8015 44.4838C55.8015 54.9785 47.2636 63.5164 36.7689 63.5164C31.2792 63.5164 26.0559 61.1445 22.4383 57.0092C21.9699 56.4737 21.1561 56.4195 20.6209 56.8879C20.0855 57.3562 20.0312 58.1699 20.4995 58.7053C24.6063 63.4001 30.5363 66.0925 36.7689 66.0925C41.2163 66.0925 45.354 64.7414 48.7938 62.4288L52.4482 66.0832C51.6455 67.0603 51.6998 68.5104 52.6121 69.4231L62.6765 79.4874C63.8911 80.7022 65.5062 81.3711 67.2243 81.3711C68.9422 81.3711 70.5574 80.7022 71.7721 79.4874C72.9867 78.2726 73.6557 76.6575 73.6557 74.9396C73.6557 73.2217 72.9867 71.6064 71.7721 70.3918L61.7079 60.3276C61.2377 59.8572 60.6124 59.5982 59.9473 59.5982C59.3643 59.5982 58.8118 59.7972 58.3677 60.163L54.7137 56.5089C57.0262 53.069 58.3773 48.9314 58.3773 44.4838C58.3773 43.0605 58.2376 41.6694 57.9736 40.3222H71.1532C80.4427 40.3226 88 32.7651 88 23.4756ZM69.9507 72.2135C70.679 72.9417 71.0799 73.9099 71.0799 74.9398C71.0799 75.9696 70.6789 76.9378 69.9505 77.666C69.2223 78.3943 68.2543 78.7952 67.2244 78.7952C66.1946 78.7952 65.2262 78.3943 64.4982 77.666L54.4947 67.6624L59.9473 62.2097L69.9507 72.2135ZM56.5378 61.9762L54.2609 64.2531L50.8602 60.8524C51.6742 60.1506 52.4353 59.3895 53.137 58.5755L56.5378 61.9762Z" fill="#5F5F79"/>
<path d="M9.23515 24.9143C10.0298 24.9143 10.6739 24.2702 10.6739 23.4756C10.6739 22.681 10.0298 22.0368 9.23515 22.0368C8.44054 22.0368 7.79639 22.681 7.79639 23.4756C7.79639 24.2702 8.44054 24.9143 9.23515 24.9143Z" fill="#EA7868"/>
<path d="M14.6126 24.9143C15.4072 24.9143 16.0514 24.2702 16.0514 23.4756C16.0514 22.681 15.4072 22.0368 14.6126 22.0368C13.818 22.0368 13.1738 22.681 13.1738 23.4756C13.1738 24.2702 13.818 24.9143 14.6126 24.9143Z" fill="#EA7868"/>
<path d="M19.9898 24.9143C20.7844 24.9143 21.4286 24.2702 21.4286 23.4756C21.4286 22.681 20.7844 22.0368 19.9898 22.0368C19.1952 22.0368 18.551 22.681 18.551 23.4756C18.551 24.2702 19.1952 24.9143 19.9898 24.9143Z" fill="#EA7868"/>
<path d="M81.2383 23.4756C81.2383 17.439 76.3273 12.5278 70.2905 12.5278C64.2538 12.5278 59.3428 17.439 59.3428 23.4756C59.3428 29.5122 64.2538 34.4233 70.2905 34.4233C76.3273 34.4233 81.2383 29.5122 81.2383 23.4756ZM61.9188 23.4756C61.9188 18.8594 65.6743 15.1039 70.2905 15.1039C74.9067 15.1039 78.6622 18.8594 78.6622 23.4756C78.6622 28.0918 74.9067 31.8473 70.2905 31.8473C65.6743 31.8473 61.9188 28.0918 61.9188 23.4756Z" fill="#EA7868"/>
<path d="M74.2572 20.4905C73.7541 19.9876 72.9387 19.9876 72.4356 20.4905L68.9995 23.9266L67.6379 22.565C67.1348 22.0621 66.3195 22.0621 65.8164 22.565C65.3135 23.0679 65.3135 23.8834 65.8164 24.3864L68.0887 26.6587C68.3404 26.9102 68.67 27.036 68.9995 27.036C69.329 27.036 69.6588 26.9102 69.9103 26.6587L74.2572 22.3118C74.7601 21.8089 74.7601 20.9934 74.2572 20.4905Z" fill="#EA7868"/>
</svg>
