<svg width="86" height="86" viewBox="0 0 86 86" fill="none" xmlns="http://www.w3.org/2000/svg">
<g clip-path="url(#clip0)">
<path d="M75.5659 17.4125L43.2434 0.189379C42.7639 -0.0665434 42.1892 -0.0629517 41.7132 0.198359L10.2851 17.4215C9.76963 17.7044 9.44995 18.2449 9.44995 18.8331V41.3309C9.46881 59.8247 20.4259 76.5557 37.3706 83.9649L41.733 85.8659C42.1407 86.0437 42.6049 86.0446 43.0135 85.8677L47.929 83.7449C65.1881 76.4965 76.4163 59.6038 76.4181 40.8846V18.8331C76.4181 18.2386 76.0904 17.6918 75.5659 17.4125ZM73.1998 40.8846C73.1962 58.3134 62.7393 74.0396 46.6692 80.7843L46.6584 80.7897L42.3777 82.6377L38.6583 81.0151C22.8854 74.1186 12.6853 58.546 12.6674 41.3309V19.7859L42.4972 3.43735L73.1998 19.7975V40.8846Z" fill="#5F5F79"/>
<path d="M30.6251 40.2876C30.0477 39.6114 29.0321 39.5315 28.3559 40.1089C27.6798 40.6854 27.5998 41.7019 28.1772 42.3772L36.6775 52.3312C37.245 52.9957 38.239 53.0864 38.9161 52.535L58.7128 36.429C59.4025 35.8687 59.5066 34.8549 58.9454 34.1652C58.3851 33.4765 57.3712 33.3714 56.6816 33.9326L38.1043 49.0455L30.6251 40.2876Z" fill="#EA7868"/>
</g>
<defs>
<clipPath id="clip0">
<rect width="86" height="86" fill="white"/>
</clipPath>
</defs>
</svg>
