<svg width="87" height="87" viewBox="0 0 87 87" fill="none" xmlns="http://www.w3.org/2000/svg">
<path d="M59.8125 1.35938H27.1875C25.3855 1.3614 23.6578 2.07815 22.3836 3.35237C21.1094 4.62659 20.3926 6.35423 20.3906 8.15625V78.8438C20.3926 80.6458 21.1094 82.3734 22.3836 83.6476C23.6578 84.9219 25.3855 85.6386 27.1875 85.6406H59.8125C61.6145 85.6386 63.3422 84.9219 64.6164 83.6476C65.8906 82.3734 66.6073 80.6458 66.6094 78.8438V8.15625C66.6073 6.35423 65.8906 4.62659 64.6164 3.35237C63.3422 2.07815 61.6145 1.3614 59.8125 1.35938ZM52.7169 4.07812L51.9013 8.15625H35.0989L34.2833 4.07812H52.7169ZM63.8906 78.8438C63.8894 79.925 63.4594 80.9615 62.6948 81.7261C61.9303 82.4906 60.8937 82.9207 59.8125 82.9219H27.1875C26.1063 82.9207 25.0697 82.4906 24.3052 81.7261C23.5406 80.9615 23.1106 79.925 23.1094 78.8438V8.15625C23.1106 7.07504 23.5406 6.03846 24.3052 5.27392C25.0697 4.50939 26.1063 4.07934 27.1875 4.07812H31.5105L32.6513 9.78223C32.713 10.0904 32.8795 10.3677 33.1225 10.5669C33.3656 10.7661 33.6701 10.875 33.9844 10.875H53.0156C53.3299 10.875 53.6344 10.7661 53.8775 10.5669C54.1205 10.3677 54.287 10.0904 54.3487 9.78223L55.4895 4.07812H59.8125C60.8937 4.07934 61.9303 4.50939 62.6948 5.27392C63.4594 6.03846 63.8894 7.07504 63.8906 8.15625V78.8438Z" fill="#5F5F79"/>
<path d="M35.3438 77.4844H27.1875C26.827 77.4844 26.4812 77.6276 26.2263 77.8825C25.9713 78.1375 25.8281 78.4832 25.8281 78.8438C25.8281 79.2043 25.9713 79.55 26.2263 79.805C26.4812 80.0599 26.827 80.2031 27.1875 80.2031H35.3438C35.7043 80.2031 36.05 80.0599 36.305 79.805C36.5599 79.55 36.7031 79.2043 36.7031 78.8438C36.7031 78.4832 36.5599 78.1375 36.305 77.8825C36.05 77.6276 35.7043 77.4844 35.3438 77.4844Z" fill="#EA7868"/>
<path d="M40.7812 77.4844H39.4219C39.0613 77.4844 38.7156 77.6276 38.4607 77.8825C38.2057 78.1375 38.0625 78.4832 38.0625 78.8438C38.0625 79.2043 38.2057 79.55 38.4607 79.805C38.7156 80.0599 39.0613 80.2031 39.4219 80.2031H40.7812C41.1418 80.2031 41.4875 80.0599 41.7425 79.805C41.9974 79.55 42.1406 79.2043 42.1406 78.8438C42.1406 78.4832 41.9974 78.1375 41.7425 77.8825C41.4875 77.6276 41.1418 77.4844 40.7812 77.4844Z" fill="#EA7868"/>
</svg>
