<svg width="93" height="93" viewBox="0 0 93 93" fill="none" xmlns="http://www.w3.org/2000/svg">
<g clip-path="url(#clip0)">
<path d="M49.414 13.935H59.1726C64.6529 13.935 69.1115 18.3936 69.1115 23.8739V41.1303C69.1115 46.6106 64.6529 51.0693 59.1726 51.0693H47.7132C46.9608 51.0693 46.3512 51.6789 46.3512 52.4313C46.3512 53.1837 46.9608 53.7934 47.7132 53.7934H59.1726C66.155 53.7934 71.8356 48.1129 71.8356 41.1303V23.8739C71.8356 16.8915 66.1552 11.2109 59.1726 11.2109H49.414C48.6616 11.2109 48.0519 11.8205 48.0519 12.5729C48.0519 13.3253 48.6616 13.935 49.414 13.935Z" fill="#5F5F79"/>
<path d="M43.2644 52.4313C43.2644 51.6789 42.6548 51.0693 41.9024 51.0693H7.38647C7.03288 51.0693 6.69292 51.2069 6.43885 51.4528L2.72409 55.051V23.8739C2.72409 18.3936 7.18271 13.935 12.663 13.935H43.6031C44.3555 13.935 44.9652 13.3253 44.9652 12.5729C44.9652 11.8205 44.3555 11.2109 43.6031 11.2109H12.663C5.68046 11.2109 0 16.8915 0 23.8739V56.5941C0 57.4271 0.495603 58.1753 1.26253 58.5004C1.52386 58.611 1.79881 58.6651 2.0714 58.6651C2.59824 58.665 3.11618 58.4634 3.51099 58.0811L7.93801 53.7934H41.9024C42.6548 53.7934 43.2644 53.1837 43.2644 52.4313Z" fill="#5F5F79"/>
<path d="M83.6007 31.8566H75.9217C75.1693 31.8566 74.5596 32.4662 74.5596 33.2186C74.5596 33.971 75.1693 34.5807 75.9217 34.5807H83.6007C87.2815 34.5807 90.2758 37.575 90.2758 41.2556V62.2202C90.2758 65.9009 87.2815 68.8952 83.6007 68.8952H78.3191C77.5667 68.8952 76.957 69.5048 76.957 70.2572V78.6108L66.8919 69.2595C66.64 69.0254 66.3087 68.8952 65.9649 68.8952H55.6208C54.8684 68.8952 54.2588 69.5048 54.2588 70.2572C54.2588 71.0096 54.8684 71.6193 55.6208 71.6193H65.4299L75.6927 81.1543C76.1405 81.5704 76.7202 81.7889 77.3082 81.7889C77.6284 81.7889 77.9511 81.7242 78.2564 81.5911C79.1219 81.2137 79.6813 80.3598 79.6813 79.4156V71.6193H83.6009C88.7836 71.6193 93.0001 67.4029 93.0001 62.2202V41.2556C92.9999 36.073 88.7834 31.8566 83.6007 31.8566Z" fill="#5F5F79"/>
<path d="M49.8099 68.8952H37.0555C33.3749 68.8952 30.3806 65.9009 30.3806 62.2202V57.8795C30.3806 57.1271 29.7709 56.5175 29.0185 56.5175C28.2661 56.5175 27.6565 57.1271 27.6565 57.8795V62.2202C27.6565 67.4029 31.8728 71.6193 37.0555 71.6193H49.8099C50.5623 71.6193 51.1719 71.0096 51.1719 70.2572C51.1719 69.5048 50.5623 68.8952 49.8099 68.8952Z" fill="#5F5F79"/>
<path d="M14.517 29.2376H18.7762C19.5286 29.2376 20.1382 28.628 20.1382 27.8756C20.1382 27.1232 19.5286 26.5135 18.7762 26.5135H14.517C13.7646 26.5135 13.1549 27.1232 13.1549 27.8756C13.1549 28.628 13.7646 29.2376 14.517 29.2376Z" fill="#EA7868"/>
<path d="M57.109 29.2376C57.8614 29.2376 58.471 28.628 58.471 27.8756C58.471 27.1232 57.8614 26.5135 57.109 26.5135H26.2688C25.5164 26.5135 24.9067 27.1232 24.9067 27.8756C24.9067 28.628 25.5164 29.2376 26.2688 29.2376H57.109Z" fill="#EA7868"/>
<path d="M14.517 38.8045H57.1089C57.8613 38.8045 58.4709 38.1948 58.4709 37.4424C58.4709 36.69 57.8613 36.0804 57.1089 36.0804H14.517C13.7646 36.0804 13.1549 36.69 13.1549 37.4424C13.1549 38.1948 13.7646 38.8045 14.517 38.8045Z" fill="#EA7868"/>
</g>
<defs>
<clipPath id="clip0">
<rect width="93" height="93" fill="white"/>
</clipPath>
</defs>
</svg>
