<svg width="77" height="77" viewBox="0 0 77 77" fill="none" xmlns="http://www.w3.org/2000/svg">
<g clip-path="url(#clip0)">
<path d="M74.3684 77H2.63503C1.56666 77 0.61228 76.3622 0.20352 75.3754C-0.205392 74.3885 0.0186898 73.2627 0.77395 72.5073L40.092 33.1894C40.5325 32.7489 41.2467 32.7489 41.687 33.1894C42.1275 33.6299 42.1275 34.3441 41.687 34.7844L2.36914 74.1023C2.21454 74.2569 2.25169 74.4253 2.28763 74.5121C2.32357 74.5989 2.41636 74.7442 2.63503 74.7442H6.76791V72.4238C6.76791 71.8009 7.27292 71.2959 7.89584 71.2959C8.51875 71.2959 9.02376 71.8009 9.02376 72.4238V74.7442H13.5655V72.4238C13.5655 71.8009 14.0706 71.2959 14.6935 71.2959C15.3164 71.2959 15.8214 71.8009 15.8214 72.4238V74.7442H20.3632V72.4238C20.3632 71.8009 20.8682 71.2959 21.4911 71.2959C22.114 71.2959 22.6191 71.8009 22.6191 72.4238V74.7442H27.1608V72.4238C27.1608 71.8009 27.6658 71.2959 28.2888 71.2959C28.9117 71.2959 29.4167 71.8009 29.4167 72.4238V74.7442H33.9585V72.4238C33.9585 71.8009 34.4635 71.2959 35.0864 71.2959C35.7093 71.2959 36.2143 71.8009 36.2143 72.4238V74.7442H40.7561V72.4238C40.7561 71.8009 41.2611 71.2959 41.8841 71.2959C42.507 71.2959 43.012 71.8009 43.012 72.4238V74.7442H47.5538V72.4238C47.5538 71.8009 48.0588 71.2959 48.6817 71.2959C49.3046 71.2959 49.8096 71.8009 49.8096 72.4238V74.7442H54.3514V72.4238C54.3514 71.8009 54.8564 71.2959 55.4793 71.2959C56.1023 71.2959 56.6073 71.8009 56.6073 72.4238V74.7442H61.1491V72.4238C61.1491 71.8009 61.6541 71.2959 62.277 71.2959C62.8999 71.2959 63.4049 71.8009 63.4049 72.4238V74.7442H67.9467V72.4238C67.9467 71.8009 68.4517 71.2959 69.0746 71.2959C69.6975 71.2959 70.2026 71.8009 70.2026 72.4238V74.7442H74.3684C74.5756 74.7442 74.7443 74.5754 74.7443 74.3682V2.63516C74.7443 2.4165 74.5989 2.32371 74.5123 2.28776C74.4255 2.25182 74.2571 2.21482 74.1025 2.36927L44.9958 31.4758C44.5553 31.9163 43.8411 31.9163 43.4007 31.4758C42.9602 31.0353 42.9602 30.3211 43.4007 29.8808L72.5073 0.774083C73.2627 0.0186728 74.3887 -0.205108 75.3755 0.203502C76.3624 0.612263 77.0002 1.56664 77.0002 2.63501V74.3682C77.0002 75.8195 75.8195 77 74.3684 77Z" fill="#5F5F79"/>
<path d="M60.8332 63.4649H46.3956C45.7727 63.4649 45.2677 62.9599 45.2677 62.3369C45.2677 61.714 45.7727 61.209 46.3956 61.209H60.8332C61.0404 61.209 61.2091 61.0403 61.2091 60.833V34.4049L34.4039 61.209H41.8839C42.5068 61.209 43.0119 61.714 43.0119 62.3369C43.0119 62.9599 42.5068 63.4649 41.8839 63.4649H34.4039C33.4884 63.4649 32.6702 62.9182 32.3198 62.0722C31.9694 61.2263 32.1613 60.2612 32.8087 59.6138L59.6139 32.8086C60.2614 32.1612 61.2263 31.9692 62.0724 32.3197C62.9183 32.6701 63.465 33.4882 63.465 34.4038V60.833C63.465 62.2843 62.2843 63.4649 60.8332 63.4649Z" fill="#5F5F79"/>
<path d="M7.89563 60.9084C7.27271 60.9084 6.7677 60.4033 6.7677 59.7804V55.2686C6.7677 54.6456 7.27271 54.1406 7.89563 54.1406C8.51855 54.1406 9.02356 54.6456 9.02356 55.2686V59.7804C9.02356 60.4035 8.51855 60.9084 7.89563 60.9084Z" fill="#EA7868"/>
<path d="M7.89563 51.8849C7.27271 51.8849 6.7677 51.3799 6.7677 50.757V46.2451C6.7677 45.6222 7.27271 45.1172 7.89563 45.1172C8.51855 45.1172 9.02356 45.6222 9.02356 46.2451V50.757C9.02356 51.3801 8.51855 51.8849 7.89563 51.8849Z" fill="#EA7868"/>
<path d="M7.89563 42.8615C7.27271 42.8615 6.7677 42.3565 6.7677 41.7336V37.2217C6.7677 36.5988 7.27271 36.0938 7.89563 36.0938C8.51855 36.0938 9.02356 36.5988 9.02356 37.2217V41.7336C9.02356 42.3566 8.51855 42.8615 7.89563 42.8615Z" fill="#EA7868"/>
<path d="M7.89563 33.838C7.27271 33.838 6.7677 33.333 6.7677 32.7101V28.1982C6.7677 27.5753 7.27271 27.0703 7.89563 27.0703C8.51855 27.0703 9.02356 27.5753 9.02356 28.1982V32.7101C9.02356 33.3332 8.51855 33.838 7.89563 33.838Z" fill="#EA7868"/>
<path d="M7.89563 24.8146C7.27271 24.8146 6.7677 24.3096 6.7677 23.6867V19.1748C6.7677 18.5519 7.27271 18.0469 7.89563 18.0469C8.51855 18.0469 9.02356 18.5519 9.02356 19.1748V23.6867C9.02356 24.3097 8.51855 24.8146 7.89563 24.8146Z" fill="#EA7868"/>
<path d="M14.6634 6.76758H11.0862C10.7459 5.80748 9.98368 5.0453 9.02359 4.70497V1.12793C9.02359 0.505012 8.51858 0 7.89566 0C7.27274 0 6.76773 0.505012 6.76773 1.12793V4.70497C5.80763 5.04545 5.04545 5.80763 4.70512 6.76758H1.12793C0.505012 6.76758 0 7.27259 0 7.89551C0 8.51843 0.505012 9.02344 1.12793 9.02344H4.70512C5.04545 9.98353 5.80763 10.7457 6.76773 11.086V14.6631C6.76773 15.286 7.27274 15.791 7.89566 15.791C8.51858 15.791 9.02359 15.286 9.02359 14.6631V11.086C9.98368 10.7457 10.7459 9.98353 11.0862 9.02344H14.6634C15.2863 9.02344 15.7913 8.51843 15.7913 7.89551C15.7913 7.27259 15.2863 6.76758 14.6634 6.76758ZM7.89566 9.02344C7.27364 9.02344 6.76773 8.51752 6.76773 7.89551C6.76773 7.27349 7.27364 6.76758 7.89566 6.76758C8.51767 6.76758 9.02359 7.27349 9.02359 7.89551C9.02359 8.51752 8.51767 9.02344 7.89566 9.02344Z" fill="#EA7868"/>
<path d="M59.7805 9.02344H55.2687C54.6458 9.02344 54.1407 8.51843 54.1407 7.89551C54.1407 7.27259 54.6458 6.76758 55.2687 6.76758H59.7805C60.4035 6.76758 60.9085 7.27259 60.9085 7.89551C60.9085 8.51843 60.4035 9.02344 59.7805 9.02344Z" fill="#EA7868"/>
<path d="M50.7571 9.02344H46.2452C45.6223 9.02344 45.1173 8.51843 45.1173 7.89551C45.1173 7.27259 45.6223 6.76758 46.2452 6.76758H50.7571C51.38 6.76758 51.885 7.27259 51.885 7.89551C51.885 8.51843 51.38 9.02344 50.7571 9.02344Z" fill="#EA7868"/>
<path d="M41.7337 9.02344H37.2218C36.5989 9.02344 36.0939 8.51843 36.0939 7.89551C36.0939 7.27259 36.5989 6.76758 37.2218 6.76758H41.7337C42.3566 6.76758 42.8616 7.27259 42.8616 7.89551C42.8616 8.51843 42.3566 9.02344 41.7337 9.02344Z" fill="#EA7868"/>
<path d="M32.7102 9.02344H28.1984C27.5754 9.02344 27.0704 8.51843 27.0704 7.89551C27.0704 7.27259 27.5754 6.76758 28.1984 6.76758H32.7102C33.3331 6.76758 33.8382 7.27259 33.8382 7.89551C33.8382 8.51843 33.3331 9.02344 32.7102 9.02344Z" fill="#EA7868"/>
<path d="M23.6868 9.02344H19.1749C18.552 9.02344 18.047 8.51843 18.047 7.89551C18.047 7.27259 18.552 6.76758 19.1749 6.76758H23.6868C24.3097 6.76758 24.8147 7.27259 24.8147 7.89551C24.8147 8.51843 24.3097 9.02344 23.6868 9.02344Z" fill="#EA7868"/>
</g>
<defs>
<clipPath id="clip0">
<rect width="77" height="77" fill="white"/>
</clipPath>
</defs>
</svg>
