<svg width="80" height="80" viewBox="0 0 80 80" fill="none" xmlns="http://www.w3.org/2000/svg">
<g clip-path="url(#clip0)">
<path d="M78.0291 1.85671C76.5529 0.380464 74.4458 -0.274224 72.3929 0.106245L58.7274 2.63687C51.1244 4.04484 44.3019 8.16515 39.5166 14.2386L29.5379 26.9039L27.7907 26.3078C23.2605 24.7623 18.3504 25.3553 14.3188 27.935L11.423 29.788C10.8804 30.1352 10.7219 30.8566 11.0691 31.3994C11.4163 31.942 12.1377 32.1003 12.6805 31.7533L15.5763 29.9003C19.0062 27.7058 23.1833 27.2012 27.0374 28.5161L31.5832 30.067L15.0082 46.6416L5.02053 36.6539L8.35975 34.5173C8.90241 34.1702 9.06085 33.4487 8.71366 32.9061C8.36647 32.3633 7.64475 32.2047 7.10241 32.5522L3.54147 34.8306C2.41585 35.5114 2.23038 37.2116 3.18491 38.1178L13.5082 48.4412C14.3354 49.2684 15.6813 49.2683 16.5085 48.4412L19.7877 45.1619L23.1405 48.5147L15.8091 58.4844C15.1638 59.362 15.2544 60.5583 16.0248 61.3287L18.7851 64.0889C19.5583 64.8622 20.756 64.9475 21.6294 64.3045L31.5993 56.9733L34.9521 60.3261L31.6729 63.6053C30.8498 64.3948 30.8498 65.8161 31.6729 66.6056L36.2513 71.1841C36.7068 71.6395 37.4455 71.6395 37.901 71.1841C38.3566 70.7286 38.3566 69.9898 37.901 69.5344L33.4721 65.1055L50.0469 48.5309L51.598 53.0766C52.9129 56.9303 52.4083 61.1077 50.2137 64.5377L43.4599 75.093L41.4401 73.0731C40.9846 72.6177 40.2458 72.6177 39.7904 73.0731C39.3348 73.5286 39.3348 74.2673 39.7904 74.7228L41.9962 76.9286C42.9058 77.8844 44.6024 77.697 45.2833 76.5719L52.179 65.7948C54.7587 61.7631 55.3518 56.8528 53.8062 52.323L53.1004 50.2545L65.6473 40.3691C71.7208 35.5837 75.8412 28.7612 77.249 21.1583L77.4638 19.9983C77.5812 19.3648 77.1627 18.7561 76.5291 18.6389C75.8954 18.5217 75.2869 18.94 75.1698 19.5736L74.9549 20.7336C73.6501 27.7794 69.8318 34.1019 64.2033 38.5366L52.3016 47.9137C52.0693 47.0834 51.4265 46.4316 50.5793 46.2403C49.7962 46.0584 48.9891 46.2892 48.4207 46.8577L36.6021 58.6762L33.5008 55.575C35.7254 53.9892 37.5466 51.8517 38.7427 49.3945L42.986 40.6936C43.4846 39.6709 43.2791 38.4434 42.4748 37.6391C41.6702 36.8347 40.4427 36.6289 39.4201 37.1278L30.7191 41.3709C28.2619 42.567 26.1246 44.3883 24.5388 46.613L21.4376 43.5117L33.2562 31.693C33.8248 31.1245 34.0554 30.3175 33.8735 29.5344C33.6696 28.5434 32.8169 27.9337 31.8788 27.7023L41.3493 15.6823C45.784 10.0537 52.1065 6.23546 59.1523 4.93078L72.8177 2.40015C74.1343 2.15656 75.4324 2.55953 76.3793 3.5064C77.3262 4.45328 77.7293 5.7514 77.4855 7.06796L76.1079 14.507C75.9905 15.1405 76.409 15.7492 77.0426 15.8666C77.6752 15.9842 78.2848 15.5656 78.4021 14.9319L79.7798 7.49281C80.1598 5.44 79.5054 3.33296 78.0291 1.85671ZM26.5824 47.772C27.9235 45.9484 29.7074 44.4602 31.7418 43.4681L40.4427 39.225C40.5708 39.1625 40.7243 39.1884 40.8249 39.2889C40.9255 39.3895 40.9512 39.5431 40.8888 39.6711L36.6455 48.3719C35.6533 50.4062 34.1652 52.1905 32.3416 53.5312L20.3471 62.3514L17.7623 59.7666L26.5824 47.772Z" fill="#5F5F79"/>
<path d="M4.05144 63.918C4.50691 64.3736 5.24566 64.3735 5.70113 63.918L16.0607 53.5586C16.5163 53.1031 16.5163 52.3644 16.0607 51.9089C15.6052 51.4533 14.8666 51.4533 14.411 51.9089L4.05144 62.2683C3.59597 62.7238 3.59597 63.4624 4.05144 63.918Z" fill="#EA7868"/>
<path d="M21.5232 66.6841C21.0677 66.2286 20.3289 66.2286 19.8735 66.6841L12.6368 73.9208C12.1811 74.3762 12.1811 75.115 12.6368 75.5705C13.0922 76.0261 13.831 76.0261 14.2864 75.5705L21.5232 68.3338C21.9788 67.8783 21.9788 67.1395 21.5232 66.6841Z" fill="#EA7868"/>
<path d="M30.8976 69.5343L26.5112 73.9208C26.0555 74.3762 26.0555 75.115 26.5112 75.5704C26.9666 76.0261 27.7054 76.0259 28.1608 75.5704L32.5472 71.184C33.0029 70.7286 33.0029 69.9898 32.5472 69.5343C32.0918 69.0786 31.3532 69.0787 30.8976 69.5343Z" fill="#EA7868"/>
<path d="M14.836 65.2782C14.3805 64.8228 13.6418 64.8228 13.1863 65.2782L0.455977 78.0086C0.000351548 78.464 0.000351548 79.2028 0.455977 79.6583C0.911445 80.1139 1.6502 80.1139 2.10566 79.6583L14.836 66.9281C15.2916 66.4725 15.2916 65.7339 14.836 65.2782Z" fill="#EA7868"/>
<path d="M22.761 73.3369C23.3666 73.3369 23.8576 72.8459 23.8576 72.2403C23.8576 71.6347 23.3666 71.1437 22.761 71.1437C22.1554 71.1437 21.6644 71.6347 21.6644 72.2403C21.6644 72.8459 22.1554 73.3369 22.761 73.3369Z" fill="#EA7868"/>
<path d="M21.275 77.0991C21.8806 77.0991 22.3716 76.6081 22.3716 76.0025C22.3716 75.3969 21.8806 74.9059 21.275 74.9059C20.6694 74.9059 20.1785 75.3969 20.1785 76.0025C20.1785 76.6081 20.6694 77.0991 21.275 77.0991Z" fill="#EA7868"/>
<path d="M4.18885 56.9758C4.79446 56.9758 5.28541 56.4848 5.28541 55.8792C5.28541 55.2736 4.79446 54.7827 4.18885 54.7827C3.58323 54.7827 3.09229 55.2736 3.09229 55.8792C3.09229 56.4848 3.58323 56.9758 4.18885 56.9758Z" fill="#EA7868"/>
<path d="M3.09205 72.9386C3.69766 72.9386 4.18861 72.4477 4.18861 71.842C4.18861 71.2364 3.69766 70.7455 3.09205 70.7455C2.48643 70.7455 1.99548 71.2364 1.99548 71.842C1.99548 72.4477 2.48643 72.9386 3.09205 72.9386Z" fill="#EA7868"/>
</g>
<defs>
<clipPath id="clip0">
<rect width="80" height="80" fill="white"/>
</clipPath>
</defs>
</svg>
