<svg width="517" height="286" viewBox="0 0 517 286" fill="none" xmlns="http://www.w3.org/2000/svg">
<path d="M310.105 269.75C264.18 246.417 232.703 198.73 232.703 143.69C232.703 124.088 236.725 105.437 243.941 88.4688L310.105 269.75Z" stroke="#57BBF8" stroke-width="2"/>
<path d="M467.381 37.6501C453.227 38.1456 443.36 50.6288 443.36 63.8926C443.36 75.0068 449.271 84.5389 455.789 95.0486C456.347 95.949 456.91 96.8566 457.474 97.773C462.865 107.207 469.07 119.196 469.07 136.509C469.07 147.779 464.994 160.786 459.376 178.717C459.017 179.862 458.652 181.027 458.282 182.212L458.278 182.224L444.987 226.639L394.983 77.8968C398.794 77.6747 402.363 77.3744 405.065 77.1197C406.571 76.9778 407.808 76.8499 408.67 76.7574C409.101 76.7112 409.438 76.6738 409.667 76.648C409.782 76.635 409.87 76.625 409.929 76.6181L409.997 76.6103L410.014 76.6083L410.019 76.6078L410.02 76.6076L410.02 76.6076C410.02 76.6076 410.021 76.6076 409.904 75.6144L410.021 76.6076L410.021 76.6075C412.199 76.3498 413.833 75.3404 414.878 73.9326C415.91 72.5414 416.328 70.8163 416.198 69.1651C416.068 67.5141 415.385 65.8817 414.145 64.6859C412.889 63.4749 411.115 62.7657 408.933 62.8943L408.923 62.8949L408.913 62.8957L408.991 63.8926C408.913 62.8957 408.913 62.8957 408.913 62.8957L408.912 62.8957L408.909 62.896L408.897 62.8969L408.847 62.9008L408.652 62.9158C408.481 62.929 408.226 62.9484 407.897 62.973C407.24 63.0223 406.283 63.0927 405.088 63.1773C402.698 63.3464 399.356 63.5719 395.551 63.7974C387.933 64.2487 378.477 64.6987 371.067 64.6987C364.107 64.6987 354.761 64.2488 347.141 63.7974C343.334 63.5719 339.963 63.3464 337.544 63.1772C336.334 63.0927 335.363 63.0222 334.694 62.9729C334.36 62.9483 334.101 62.9289 333.926 62.9157L333.727 62.9007L333.677 62.8968L333.664 62.8959L333.661 62.8956L333.66 62.8956C333.66 62.8955 333.66 62.8955 333.584 63.8926L333.66 62.8955L333.651 62.8949L333.642 62.8943C331.448 62.7649 329.673 63.5131 328.423 64.763C327.19 65.9951 326.514 67.6662 326.386 69.3389C326.258 71.011 326.672 72.7556 327.714 74.1331C328.768 75.5256 330.414 76.4743 332.593 76.6107L332.646 76.6172C332.702 76.6241 332.785 76.6342 332.892 76.6471C333.107 76.673 333.422 76.7104 333.824 76.7566C334.628 76.8491 335.779 76.977 337.171 77.119C339.794 77.3866 343.275 77.7048 346.892 77.9296L368.719 137.731L338.632 227.965L288.182 77.9023C292 77.6803 295.569 77.3799 298.27 77.1251C299.774 76.9832 301.01 76.8553 301.871 76.7628C302.301 76.7166 302.638 76.6792 302.867 76.6534C302.948 76.6442 303.016 76.6364 303.07 76.6303C303.092 76.6278 303.111 76.6255 303.128 76.6235L303.196 76.6157L303.213 76.6137L303.218 76.6132L303.219 76.613L303.219 76.613C303.219 76.613 303.219 76.613 303.103 75.6198L303.219 76.613L303.22 76.6129C305.397 76.3552 307.03 75.3457 308.075 73.9378C309.107 72.5466 309.524 70.8215 309.393 69.1704C309.263 67.5196 308.58 65.8873 307.341 64.6915C306.085 63.4805 304.313 62.7711 302.131 62.8997L302.122 62.9003L302.112 62.9011L302.19 63.898C302.112 62.9011 302.112 62.9011 302.112 62.9011L302.111 62.9011L302.108 62.9014L302.096 62.9023L302.046 62.9062L301.851 62.9212C301.679 62.9344 301.425 62.9538 301.096 62.9784C300.438 63.0277 299.482 63.0981 298.287 63.1827C295.897 63.3518 292.556 63.5773 288.75 63.8028C281.133 64.2541 271.677 64.7041 264.265 64.7041C262.093 64.7041 259.602 64.6573 256.943 64.5855C282.347 27.0603 325.287 2.39258 374.005 2.39258C409.804 2.39258 442.483 15.7086 467.381 37.6501Z" stroke="#57BBF8" stroke-width="2"/>
<path d="M419.308 276.316L419.314 276.332L419.32 276.348C419.466 276.708 419.625 277.052 419.795 277.383C405.429 282.3 390.038 285 374.005 285C360.501 285 347.455 283.071 335.093 279.535L376.529 159.129L419.308 276.316Z" stroke="#57BBF8" stroke-width="2"/>
<path d="M500.828 90.0489C500.828 86.7442 500.691 83.5837 500.437 80.5589C509.951 99.5599 515.304 121 515.302 143.692C515.302 194.843 488.096 239.625 447.381 264.432L489.945 141.369C498.105 120.974 500.828 104.622 500.828 90.0489Z" stroke="#57BBF8" stroke-width="2"/>
<mask id="path-5-inside-1" fill="white">
<path fill-rule="evenodd" clip-rule="evenodd" d="M92.3066 192.927H46.2295V192.928C46.2295 192.928 46.2294 192.928 46.2294 192.928C20.7818 192.928 0.152344 213.557 0.152344 239.005C0.152344 264.452 20.7818 285.082 46.2294 285.082C71.06 285.082 91.3033 265.441 92.2703 240.847H92.3066V192.927Z"/>
</mask>
<path d="M46.2295 192.927V190.927H44.2295V192.927H46.2295ZM92.3066 192.927H94.3066V190.927H92.3066V192.927ZM46.2295 192.928L46.2295 194.928L48.2295 194.928V192.928H46.2295ZM92.2703 240.847V238.847H90.3474L90.2718 240.769L92.2703 240.847ZM92.3066 240.847V242.847H94.3066V240.847H92.3066ZM46.2295 194.927H92.3066V190.927H46.2295V194.927ZM48.2295 192.928V192.927H44.2295V192.928H48.2295ZM46.2294 194.928C46.2294 194.928 46.2295 194.928 46.2295 194.928L46.2295 190.928C46.2295 190.928 46.2294 190.928 46.2294 190.928V194.928ZM2.15234 239.005C2.15234 214.662 21.8863 194.928 46.2294 194.928V190.928C19.6772 190.928 -1.84766 212.453 -1.84766 239.005H2.15234ZM46.2294 283.082C21.8863 283.082 2.15234 263.348 2.15234 239.005H-1.84766C-1.84766 265.557 19.6772 287.082 46.2294 287.082V283.082ZM90.2718 240.769C89.3468 264.293 69.9818 283.082 46.2294 283.082V287.082C72.1383 287.082 93.2597 266.588 94.2688 240.926L90.2718 240.769ZM92.3066 238.847H92.2703V242.847H92.3066V238.847ZM90.3066 192.927V240.847H94.3066V192.927H90.3066Z" fill="#5ECB89" mask="url(#path-5-inside-1)"/>
<mask id="path-7-inside-2" fill="white">
<path fill-rule="evenodd" clip-rule="evenodd" d="M92.3068 96.2556H46.2294C20.7817 96.2556 0.152344 116.885 0.152344 142.333C0.152344 167.78 20.7817 188.41 46.2294 188.41H92.3068V96.2556Z"/>
</mask>
<path d="M92.3068 96.2556H94.3068V94.2556H92.3068V96.2556ZM92.3068 188.41V190.41H94.3068V188.41H92.3068ZM46.2294 98.2556H92.3068V94.2556H46.2294V98.2556ZM2.15234 142.333C2.15234 117.99 21.8863 98.2556 46.2294 98.2556V94.2556C19.6772 94.2556 -1.84766 115.78 -1.84766 142.333H2.15234ZM46.2294 186.41C21.8863 186.41 2.15234 166.676 2.15234 142.333H-1.84766C-1.84766 168.885 19.6772 190.41 46.2294 190.41V186.41ZM92.3068 186.41H46.2294V190.41H92.3068V186.41ZM94.3068 188.41V96.2556H90.3068V188.41H94.3068Z" fill="#9862F6" mask="url(#path-7-inside-2)"/>
<rect x="96.0264" y="98.1621" width="90.1541" height="90.1541" rx="45.0771" stroke="#57BBF8" stroke-width="2"/>
<rect x="1" y="1" width="185.188" height="90.0075" rx="45.0038" stroke="#EE7A69" stroke-width="2"/>
</svg>
