<svg width="287" height="262" viewBox="0 0 287 262" fill="none" xmlns="http://www.w3.org/2000/svg">
<rect x="0.5" y="0.5" width="286" height="261" rx="5.5" fill="#141323" stroke="#29273B"/>
<path fill-rule="evenodd" clip-rule="evenodd" d="M251.743 30.1038L251.536 29.6748C251.151 28.8764 250.935 27.9807 250.935 27.0322C250.935 23.665 253.665 20.9354 257.032 20.9354C260.399 20.9354 263.129 23.665 263.129 27.0322C263.129 30.3994 260.399 33.129 257.032 33.129C256.07 33.129 255.162 32.9067 254.355 32.5115L254.122 32.3972L253.864 32.4295L250.016 32.9105L251.493 30.5093L251.743 30.1038ZM248.908 33.049L248.323 33.9999L249.43 33.8614L253.972 33.2937C254.896 33.746 255.934 33.9999 257.032 33.9999C260.88 33.9999 264 30.8804 264 27.0322C264 23.184 260.88 20.0645 257.032 20.0645C253.184 20.0645 250.065 23.184 250.065 27.0322C250.065 28.1144 250.311 29.139 250.752 30.0528L248.908 33.049Z" fill="#595769" fill-opacity="0.8"/>
<path fill-rule="evenodd" clip-rule="evenodd" d="M216.097 20.0645H216.532H221.758H226.984H227.419V20.4999V23.5483H226.548V20.9354H222.194V33.129H224.806V33.9999H221.758H218.71V33.129H221.323V20.9354H216.968V23.5483H216.097V20.4999V20.0645Z" fill="#595769" fill-opacity="0.8"/>
<path fill-rule="evenodd" clip-rule="evenodd" d="M188.329 23.2346L188.319 23.2317L182.516 21.577L186.792 25.853C186.962 25.7714 187.153 25.7257 187.355 25.7257C188.076 25.7257 188.661 26.3106 188.661 27.0321C188.661 27.7537 188.076 28.3386 187.355 28.3386C186.633 28.3386 186.048 27.7537 186.048 27.0321C186.048 26.8304 186.094 26.6394 186.176 26.4689L181.905 22.1979L183.5 27.7644L183.51 27.7962L183.516 27.8286C183.884 29.6114 185.464 30.9515 187.355 30.9515C187.786 30.9515 188.198 30.8823 188.584 30.7552L189.093 30.5871L189.472 30.9664L191.081 32.5749L192.929 30.7273L191.304 29.103L190.929 28.7281L191.09 28.2229C191.21 27.8485 191.274 27.4487 191.274 27.0321C191.274 25.2086 190.028 23.674 188.34 23.2373L188.329 23.2346ZM193.544 30.1115L194.16 30.7273L193.544 31.3432L191.697 33.1908L191.081 33.8067L190.465 33.1908L188.857 31.5823C188.384 31.7381 187.879 31.8224 187.355 31.8224C185.042 31.8224 183.113 30.1838 182.663 28.0044L180.67 21.0507L180.387 20.0645L181.374 20.3458L188.558 22.3941C190.621 22.9277 192.145 24.8019 192.145 27.0321C192.145 27.5394 192.066 28.0283 191.92 28.4872L193.544 30.1115Z" fill="#595769" fill-opacity="0.8"/>
<path fill-rule="evenodd" clip-rule="evenodd" d="M140.323 20.9354H152.516V33.129H140.323V20.9354ZM139.452 20.0645H140.323H152.516H153.387V20.9354V33.129V33.9999H152.516H140.323H139.452V33.129V20.9354V20.0645ZM163.381 26.5748L163.689 26.2668L163.073 25.651L162.765 25.9589L161.226 27.4986L159.686 25.9589L159.378 25.651L158.762 26.2668L159.07 26.5748L160.918 28.4224L161.226 28.7303L161.534 28.4224L163.381 26.5748Z" fill="#595769" fill-opacity="0.8"/>
<path fill-rule="evenodd" clip-rule="evenodd" d="M100.258 31.387L100.258 33.9999H101.129V31.387H108.097V33.9999H108.968V31.387H111.581V30.5161H108.968L108.968 23.5483H111.581V22.6774H108.968V20.0645H108.097V22.6774H101.129V20.0645H100.258L100.258 22.6774H97.6452V23.5483H100.258L100.258 30.5161H97.6452V31.387H100.258ZM108.097 23.5483L108.097 30.5161H101.129L101.129 23.5483H108.097ZM121.575 26.5748L121.883 26.2668L121.267 25.651L120.959 25.9589L119.419 27.4986L117.88 25.9589L117.572 25.651L116.956 26.2668L117.264 26.5748L119.111 28.4224L119.419 28.7303L119.727 28.4224L121.575 26.5748Z" fill="#595769" fill-opacity="0.8"/>
<path fill-rule="evenodd" clip-rule="evenodd" d="M58.1427 20.9983L57.2894 20.4824L57.4909 21.459L59.8275 32.7815L60.0392 33.8071L60.6171 32.9339L63.2635 28.9357L67.8093 27.702L68.7913 27.4355L67.9205 26.9091L58.1427 20.9983ZM60.4689 31.5799L58.5455 22.2595L66.5991 27.128L62.8769 28.1382L62.7185 28.1812L62.6278 28.3181L60.4689 31.5799ZM78.0265 26.5749L78.3344 26.2669L77.7186 25.6511L77.4106 25.959L75.8709 27.4987L74.3313 25.959L74.0233 25.6511L73.4075 26.2669L73.7154 26.5749L75.563 28.4225L75.8709 28.7304L76.1789 28.4225L78.0265 26.5749Z" fill="#595769"/>
<path fill-rule="evenodd" clip-rule="evenodd" d="M33.1935 22.2422H21V23.1132H33.1935V22.2422ZM21 26.597H33.1935V27.468H21V26.597ZM21 30.9519H33.1935V31.8228H21V30.9519Z" fill="#595769" fill-opacity="0.8"/>
<path d="M76.2896 122L76.381 110.543H76.3124L72.1045 122H69.3602L65.2667 110.543H65.1981L65.2895 122H61.6076V105.809H67.1648L70.8467 116.191H70.9382L74.46 105.809H80.1087V122H76.2896ZM89.967 117.037H89.4868C89.0751 117.037 88.6559 117.06 88.229 117.106C87.8173 117.137 87.4438 117.205 87.1084 117.312C86.7882 117.419 86.5214 117.579 86.308 117.792C86.0945 117.99 85.9878 118.257 85.9878 118.593C85.9878 118.806 86.0336 118.989 86.125 119.141C86.2318 119.294 86.3613 119.416 86.5138 119.507C86.6663 119.599 86.8416 119.667 87.0398 119.713C87.238 119.744 87.4286 119.759 87.6115 119.759C88.3738 119.759 88.9532 119.553 89.3496 119.141C89.7612 118.714 89.967 118.143 89.967 117.426V117.037ZM83.0835 112.166C83.7543 111.526 84.5318 111.046 85.4161 110.726C86.3156 110.405 87.2304 110.245 88.1604 110.245C89.1209 110.245 89.9289 110.367 90.5845 110.611C91.2553 110.84 91.7966 111.206 92.2082 111.709C92.6198 112.197 92.9171 112.822 93.1001 113.584C93.2983 114.331 93.3974 115.223 93.3974 116.26V122H89.967V120.788H89.8984C89.6088 121.261 89.1666 121.626 88.572 121.886C87.9927 122.145 87.36 122.274 86.6739 122.274C86.2165 122.274 85.7439 122.213 85.256 122.091C84.7681 121.97 84.3184 121.771 83.9067 121.497C83.5103 121.222 83.1825 120.857 82.9234 120.399C82.6642 119.942 82.5346 119.378 82.5346 118.707C82.5346 117.884 82.7557 117.22 83.1978 116.717C83.6552 116.214 84.2345 115.825 84.9358 115.551C85.6524 115.276 86.4452 115.094 87.3142 115.002C88.1832 114.911 89.0294 114.865 89.8527 114.865V114.682C89.8527 114.118 89.6545 113.706 89.2581 113.447C88.8617 113.173 88.3738 113.035 87.7945 113.035C87.2609 113.035 86.7425 113.15 86.2394 113.378C85.7515 113.607 85.3322 113.881 84.9816 114.202L83.0835 112.166ZM108.432 122H103.789L100.062 116.534H99.993V122H96.2196V104.711H99.993V115.231H100.062L103.698 110.611H108.249L103.858 115.757L108.432 122ZM117.24 115.002C117.24 114.407 117.049 113.897 116.668 113.47C116.302 113.043 115.746 112.83 114.998 112.83C114.633 112.83 114.297 112.89 113.992 113.012C113.687 113.119 113.42 113.272 113.192 113.47C112.963 113.668 112.78 113.904 112.643 114.179C112.506 114.438 112.429 114.712 112.414 115.002H117.24ZM120.693 116.443C120.693 116.595 120.693 116.748 120.693 116.9C120.693 117.053 120.685 117.197 120.67 117.335H112.414C112.445 117.655 112.536 117.945 112.689 118.204C112.856 118.463 113.062 118.692 113.306 118.89C113.565 119.073 113.847 119.218 114.152 119.324C114.472 119.431 114.8 119.484 115.136 119.484C115.73 119.484 116.233 119.378 116.645 119.164C117.057 118.936 117.392 118.646 117.651 118.295L120.258 119.942C119.725 120.719 119.016 121.322 118.132 121.748C117.262 122.16 116.249 122.366 115.09 122.366C114.236 122.366 113.428 122.236 112.666 121.977C111.904 121.703 111.233 121.314 110.653 120.811C110.089 120.292 109.639 119.66 109.304 118.913C108.984 118.166 108.824 117.312 108.824 116.351C108.824 115.421 108.984 114.583 109.304 113.836C109.624 113.073 110.059 112.433 110.608 111.915C111.156 111.381 111.804 110.969 112.551 110.68C113.299 110.39 114.107 110.245 114.976 110.245C115.814 110.245 116.584 110.39 117.285 110.68C117.987 110.954 118.589 111.358 119.092 111.892C119.595 112.425 119.984 113.073 120.258 113.836C120.548 114.598 120.693 115.467 120.693 116.443ZM128.942 122V105.809H132.875V122H128.942ZM140.087 113.424V117.769C140.087 118.303 140.186 118.707 140.385 118.981C140.598 119.24 140.971 119.37 141.505 119.37C141.688 119.37 141.879 119.355 142.077 119.324C142.29 119.294 142.466 119.248 142.603 119.187L142.649 121.931C142.389 122.023 142.062 122.099 141.665 122.16C141.269 122.236 140.872 122.274 140.476 122.274C139.714 122.274 139.073 122.183 138.555 122C138.037 121.802 137.617 121.527 137.297 121.177C136.992 120.811 136.771 120.384 136.634 119.896C136.497 119.393 136.428 118.836 136.428 118.227V113.424H134.599V110.611H136.405V107.615H140.087V110.611H142.763V113.424H140.087ZM55.8675 137.017C55.5321 136.59 55.0899 136.254 54.5411 136.01C54.0075 135.751 53.4891 135.622 52.986 135.622C52.7268 135.622 52.46 135.644 52.1856 135.69C51.9264 135.736 51.6901 135.827 51.4766 135.965C51.2632 136.087 51.0802 136.254 50.9278 136.468C50.7906 136.666 50.722 136.925 50.722 137.245C50.722 137.52 50.7753 137.748 50.882 137.931C51.004 138.114 51.1717 138.274 51.3852 138.412C51.6139 138.549 51.8807 138.678 52.1856 138.8C52.4905 138.907 52.8335 139.021 53.2147 139.143C53.7635 139.326 54.3353 139.532 54.9299 139.761C55.5245 139.974 56.0657 140.264 56.5536 140.63C57.0414 140.996 57.4455 141.453 57.7656 142.002C58.0858 142.536 58.2459 143.207 58.2459 144.015C58.2459 144.945 58.0705 145.753 57.7199 146.439C57.3845 147.109 56.9271 147.666 56.3477 148.108C55.7684 148.55 55.1052 148.878 54.3581 149.091C53.6111 149.305 52.8412 149.412 52.0484 149.412C50.8897 149.412 49.7691 149.213 48.6866 148.817C47.6041 148.405 46.7046 147.826 45.9881 147.079L48.5494 144.472C48.9458 144.96 49.4642 145.371 50.1045 145.707C50.7601 146.027 51.408 146.187 52.0484 146.187C52.338 146.187 52.6201 146.157 52.8945 146.096C53.1689 146.035 53.4053 145.936 53.6035 145.798C53.8169 145.661 53.9846 145.478 54.1066 145.249C54.2285 145.021 54.2895 144.746 54.2895 144.426C54.2895 144.121 54.2133 143.862 54.0608 143.649C53.9084 143.435 53.6873 143.245 53.3976 143.077C53.1232 142.894 52.7726 142.734 52.3457 142.597C51.934 142.444 51.4614 142.284 50.9278 142.116C50.4094 141.949 49.8987 141.751 49.3956 141.522C48.9077 141.293 48.4655 141.003 48.0692 140.653C47.688 140.287 47.3755 139.852 47.1315 139.349C46.9028 138.831 46.7885 138.206 46.7885 137.474C46.7885 136.574 46.9714 135.805 47.3373 135.164C47.7032 134.524 48.1835 133.998 48.7781 133.586C49.3727 133.175 50.0435 132.877 50.7906 132.694C51.5376 132.496 52.2923 132.397 53.0546 132.397C53.9694 132.397 54.8994 132.565 55.8446 132.9C56.8051 133.236 57.6437 133.731 58.3602 134.387L55.8675 137.017ZM64.5568 140.424V144.769C64.5568 145.303 64.6559 145.707 64.8541 145.981C65.0676 146.24 65.4411 146.37 65.9747 146.37C66.1577 146.37 66.3482 146.355 66.5464 146.324C66.7599 146.294 66.9352 146.248 67.0724 146.187L67.1182 148.931C66.859 149.023 66.5312 149.099 66.1348 149.16C65.7384 149.236 65.342 149.274 64.9456 149.274C64.1833 149.274 63.543 149.183 63.0246 149C62.5062 148.802 62.087 148.527 61.7668 148.177C61.4619 147.811 61.2408 147.384 61.1036 146.896C60.9664 146.393 60.8978 145.836 60.8978 145.227V140.424H59.0683V137.611H60.8749V134.615H64.5568V137.611H67.2325V140.424H64.5568ZM75.7185 144.037H75.2383C74.8267 144.037 74.4074 144.06 73.9805 144.106C73.5689 144.137 73.1953 144.205 72.8599 144.312C72.5397 144.419 72.2729 144.579 72.0595 144.792C71.8461 144.99 71.7393 145.257 71.7393 145.593C71.7393 145.806 71.7851 145.989 71.8765 146.141C71.9833 146.294 72.1129 146.416 72.2653 146.507C72.4178 146.599 72.5931 146.667 72.7913 146.713C72.9895 146.744 73.1801 146.759 73.363 146.759C74.1253 146.759 74.7047 146.553 75.1011 146.141C75.5127 145.714 75.7185 145.143 75.7185 144.426V144.037ZM68.835 139.166C69.5058 138.526 70.2833 138.046 71.1676 137.726C72.0671 137.405 72.9819 137.245 73.9119 137.245C74.8724 137.245 75.6804 137.367 76.336 137.611C77.0068 137.84 77.5481 138.206 77.9597 138.709C78.3714 139.197 78.6687 139.822 78.8516 140.584C79.0498 141.331 79.1489 142.223 79.1489 143.26V149H75.7185V147.788H75.6499C75.3603 148.261 74.9181 148.626 74.3235 148.886C73.7442 149.145 73.1115 149.274 72.4254 149.274C71.968 149.274 71.4954 149.213 71.0075 149.091C70.5196 148.97 70.0699 148.771 69.6582 148.497C69.2619 148.222 68.9341 147.857 68.6749 147.399C68.4157 146.942 68.2861 146.378 68.2861 145.707C68.2861 144.884 68.5072 144.22 68.9493 143.717C69.4067 143.214 69.986 142.825 70.6874 142.551C71.4039 142.276 72.1967 142.094 73.0657 142.002C73.9348 141.911 74.7809 141.865 75.6042 141.865V141.682C75.6042 141.118 75.406 140.706 75.0096 140.447C74.6132 140.173 74.1253 140.035 73.546 140.035C73.0124 140.035 72.494 140.15 71.9909 140.378C71.503 140.607 71.0838 140.881 70.7331 141.202L68.835 139.166ZM89.4264 149V142.78C89.4264 142.459 89.3959 142.155 89.3349 141.865C89.2892 141.575 89.2053 141.324 89.0834 141.11C88.9614 140.881 88.7861 140.706 88.5574 140.584C88.3439 140.447 88.0695 140.378 87.7341 140.378C87.3987 140.378 87.1014 140.447 86.8422 140.584C86.5983 140.706 86.3924 140.881 86.2247 141.11C86.057 141.339 85.9274 141.606 85.836 141.911C85.7597 142.2 85.7216 142.505 85.7216 142.825V149H81.9482V137.611H85.5844V139.189H85.6301C85.7673 138.945 85.9427 138.709 86.1561 138.48C86.3848 138.236 86.644 138.03 86.9337 137.863C87.2386 137.695 87.5664 137.558 87.917 137.451C88.2677 137.344 88.6412 137.291 89.0376 137.291C89.7999 137.291 90.4479 137.428 90.9815 137.703C91.5151 137.977 91.942 138.335 92.2622 138.778C92.5976 139.204 92.8339 139.7 92.9711 140.264C93.1236 140.828 93.1998 141.392 93.1998 141.956V149H89.4264ZM104.662 149V147.514H104.616C104.25 148.093 103.724 148.543 103.038 148.863C102.367 149.168 101.651 149.32 100.889 149.32C100.035 149.32 99.2725 149.152 98.6017 148.817C97.9309 148.482 97.3592 148.04 96.8865 147.491C96.4291 146.927 96.0785 146.279 95.8345 145.547C95.5906 144.815 95.4686 144.053 95.4686 143.26C95.4686 142.467 95.5906 141.712 95.8345 140.996C96.0937 140.264 96.452 139.624 96.9094 139.075C97.382 138.526 97.9461 138.091 98.6017 137.771C99.2725 137.451 100.02 137.291 100.843 137.291C101.681 137.291 102.39 137.451 102.97 137.771C103.549 138.091 103.999 138.442 104.319 138.823H104.365V131.711H108.115V149H104.662ZM104.525 143.283C104.525 142.917 104.456 142.559 104.319 142.208C104.197 141.857 104.014 141.545 103.77 141.27C103.541 140.996 103.259 140.775 102.924 140.607C102.589 140.439 102.207 140.355 101.781 140.355C101.338 140.355 100.95 140.439 100.614 140.607C100.279 140.775 99.9967 140.996 99.768 141.27C99.5393 141.529 99.364 141.834 99.242 142.185C99.1353 142.536 99.082 142.894 99.082 143.26C99.082 143.626 99.1353 143.992 99.242 144.358C99.364 144.708 99.5393 145.021 99.768 145.295C99.9967 145.57 100.279 145.791 100.614 145.958C100.95 146.126 101.338 146.21 101.781 146.21C102.207 146.21 102.589 146.126 102.924 145.958C103.259 145.791 103.541 145.57 103.77 145.295C104.014 145.021 104.197 144.708 104.319 144.358C104.456 144.007 104.525 143.649 104.525 143.283ZM133.893 140.836C133.893 142.116 133.672 143.29 133.23 144.358C132.788 145.41 132.17 146.317 131.378 147.079C130.6 147.826 129.67 148.405 128.588 148.817C127.505 149.229 126.331 149.435 125.066 149.435C123.8 149.435 122.626 149.229 121.544 148.817C120.477 148.405 119.547 147.826 118.754 147.079C117.976 146.317 117.367 145.41 116.924 144.358C116.482 143.29 116.261 142.116 116.261 140.836C116.261 139.54 116.482 138.374 116.924 137.337C117.367 136.285 117.976 135.393 118.754 134.661C119.547 133.929 120.477 133.365 121.544 132.969C122.626 132.572 123.8 132.374 125.066 132.374C126.331 132.374 127.505 132.572 128.588 132.969C129.67 133.365 130.6 133.929 131.378 134.661C132.17 135.393 132.788 136.285 133.23 137.337C133.672 138.374 133.893 139.54 133.893 140.836ZM129.708 140.836C129.708 140.134 129.594 139.479 129.365 138.869C129.137 138.259 128.816 137.741 128.405 137.314C128.008 136.872 127.52 136.529 126.941 136.285C126.377 136.026 125.752 135.896 125.066 135.896C124.38 135.896 123.755 136.026 123.191 136.285C122.626 136.529 122.139 136.872 121.727 137.314C121.315 137.741 120.995 138.259 120.766 138.869C120.553 139.479 120.446 140.134 120.446 140.836C120.446 141.568 120.561 142.246 120.789 142.871C121.018 143.481 121.331 144.007 121.727 144.449C122.139 144.891 122.626 145.242 123.191 145.501C123.755 145.745 124.38 145.867 125.066 145.867C125.752 145.867 126.377 145.745 126.941 145.501C127.505 145.242 127.993 144.891 128.405 144.449C128.816 144.007 129.137 143.481 129.365 142.871C129.594 142.246 129.708 141.568 129.708 140.836ZM143.763 149V147.422H143.718C143.58 147.681 143.397 147.925 143.169 148.154C142.955 148.383 142.696 148.581 142.391 148.748C142.101 148.916 141.774 149.053 141.408 149.16C141.057 149.267 140.684 149.32 140.287 149.32C139.525 149.32 138.877 149.183 138.343 148.909C137.825 148.634 137.398 148.283 137.063 147.857C136.742 147.414 136.506 146.919 136.354 146.37C136.216 145.806 136.148 145.234 136.148 144.655V137.611H139.921V143.786C139.921 144.106 139.944 144.411 139.99 144.701C140.036 144.99 140.119 145.249 140.241 145.478C140.379 145.707 140.554 145.89 140.767 146.027C140.981 146.149 141.263 146.21 141.614 146.21C142.269 146.21 142.765 145.966 143.1 145.478C143.451 144.99 143.626 144.419 143.626 143.763V137.611H147.377V149H143.763ZM154.38 140.424V144.769C154.38 145.303 154.479 145.707 154.678 145.981C154.891 146.24 155.265 146.37 155.798 146.37C155.981 146.37 156.172 146.355 156.37 146.324C156.583 146.294 156.759 146.248 156.896 146.187L156.942 148.931C156.683 149.023 156.355 149.099 155.958 149.16C155.562 149.236 155.166 149.274 154.769 149.274C154.007 149.274 153.367 149.183 152.848 149C152.33 148.802 151.911 148.527 151.59 148.177C151.285 147.811 151.064 147.384 150.927 146.896C150.79 146.393 150.721 145.836 150.721 145.227V140.424H148.892V137.611H150.698V134.615H154.38V137.611H157.056V140.424H154.38Z" fill="#595769"/>
<rect x="55" y="174" width="96" height="7.68" rx="3.84" fill="#29273B"/>
<rect x="65.24" y="188.08" width="74.24" height="7.68" rx="3.84" fill="#29273B"/>
<rect x="31.5" y="91.5" width="141" height="71" stroke="#595769" stroke-dasharray="2 2"/>
<rect x="169.5" y="88.5" width="6" height="6" fill="#141323" stroke="#595769"/>
<rect x="28.5" y="88.5" width="6" height="6" fill="#141323" stroke="#595769"/>
<rect x="169.5" y="159.5" width="6" height="6" fill="#141323" stroke="#595769"/>
<rect x="28.5" y="159.5" width="6" height="6" fill="#141323" stroke="#595769"/>
</svg>
