<svg width="451" height="696" viewBox="0 0 451 696" fill="none" xmlns="http://www.w3.org/2000/svg">
<mask id="path-1-inside-1" fill="white">
<path fill-rule="evenodd" clip-rule="evenodd" d="M234.66 454.663H132.998C76.8521 454.663 31.3366 500.179 31.3366 556.325C31.3366 612.471 76.8521 657.986 132.998 657.986C187.783 657.986 232.446 614.652 234.58 560.391H234.66V454.663Z"/>
</mask>
<path d="M132.998 454.663L132.998 452.663H132.998L132.998 454.663ZM234.66 454.663H236.66V452.663H234.66V454.663ZM234.58 560.391V558.391H232.657L232.582 560.313L234.58 560.391ZM234.66 560.391V562.391H236.66V560.391H234.66ZM132.998 456.663H234.66V452.663H132.998V456.663ZM33.3366 556.325C33.3366 501.283 77.9567 456.663 132.998 456.663L132.998 452.663C75.7475 452.663 29.3366 499.074 29.3366 556.325H33.3366ZM132.998 655.986C77.9567 655.986 33.3366 611.366 33.3366 556.325H29.3366C29.3366 613.576 75.7475 659.986 132.998 659.986V655.986ZM232.582 560.313C230.489 613.505 186.704 655.986 132.998 655.986V659.986C188.861 659.986 234.402 615.8 236.579 560.47L232.582 560.313ZM234.66 558.391H234.58V562.391H234.66V558.391ZM232.66 454.663V560.391H236.66V454.663H232.66Z" fill="#5ECB89" mask="url(#path-1-inside-1)"/>
<mask id="path-3-inside-2" fill="white">
<path fill-rule="evenodd" clip-rule="evenodd" d="M234.66 241.373H132.998C76.8521 241.373 31.3366 286.889 31.3366 343.035C31.3366 399.181 76.8522 444.696 132.998 444.696H234.66V241.373Z"/>
</mask>
<path d="M234.66 241.373H236.66V239.373H234.66V241.373ZM234.66 444.696V446.696H236.66V444.696H234.66ZM132.998 243.373H234.66V239.373H132.998V243.373ZM33.3366 343.035C33.3366 287.993 77.9567 243.373 132.998 243.373V239.373C75.7475 239.373 29.3366 285.784 29.3366 343.035H33.3366ZM132.998 442.696C77.9567 442.696 33.3366 398.076 33.3366 343.035H29.3366C29.3366 400.286 75.7476 446.696 132.998 446.696V442.696ZM234.66 442.696H132.998V446.696H234.66V442.696ZM236.66 444.696V241.373H232.66V444.696H236.66Z" fill="#9862F6" mask="url(#path-3-inside-2)"/>
<rect x="241.66" y="244.373" width="201.323" height="201.323" rx="100.662" stroke="#57BBF8" stroke-width="2"/>
<rect x="32" y="30" width="411" height="201" rx="100.5" stroke="#EE7A69" stroke-width="2"/>
</svg>
