<svg width="255" height="146" viewBox="0 0 255 146" fill="none" xmlns="http://www.w3.org/2000/svg">
<rect x="0.5" y="0.5" width="254" height="145" rx="5.5" fill="#141323" stroke="#29273B"/>
<g opacity="0.8">
<path d="M225 27L228 30L231 27" stroke="#595769"/>
<rect x="211" y="35" width="1" height="13" transform="rotate(180 211 35)" fill="#595769"/>
<rect x="222" y="35" width="1" height="13" transform="rotate(180 222 35)" fill="#595769"/>
<rect x="215" y="32" width="7" height="2" transform="rotate(-90 215 32)" fill="#595769"/>
<rect x="179" y="35" width="1" height="13" transform="rotate(-90 179 35)" fill="#595769"/>
<rect x="182" y="32" width="10" height="2" transform="rotate(-90 182 32)" fill="#595769"/>
<rect x="187" y="32" width="6" height="2" transform="rotate(-90 187 32)" fill="#595769"/>
<rect x="148" y="29" width="1" height="13" transform="rotate(-90 148 29)" fill="#595769"/>
<rect x="150.5" y="34" width="11" height="2" transform="rotate(-90 150.5 34)" fill="#595769"/>
<rect x="155.5" y="32" width="7" height="2" transform="rotate(-90 155.5 32)" fill="#595769"/>
<rect width="1" height="13" transform="matrix(4.37114e-08 1 1 -4.37114e-08 117 22)" fill="#595769"/>
<rect width="10" height="2" transform="matrix(4.37114e-08 1 1 -4.37114e-08 120 25)" fill="#595769"/>
<rect width="6" height="2" transform="matrix(4.37114e-08 1 1 -4.37114e-08 125 25)" fill="#595769"/>
<rect width="1" height="13" transform="matrix(-1 0 0 1 99 22)" fill="#595769"/>
<rect width="10" height="2" transform="matrix(-1 0 0 1 96 25)" fill="#595769"/>
<rect width="6" height="2" transform="matrix(-1 0 0 1 96 30)" fill="#595769"/>
<rect x="59" y="22" width="1" height="13" fill="#595769"/>
<rect x="54" y="24.5" width="11" height="2" fill="#595769"/>
<rect x="56" y="29.5" width="7" height="2" fill="#595769"/>
<rect x="23" y="22" width="1" height="13" fill="#595769"/>
<rect x="26" y="25" width="10" height="2" fill="#595769"/>
<rect x="26" y="30" width="6" height="2" fill="#595769"/>
</g>
<rect opacity="0.5" x="130" y="71" width="85" height="8" rx="4" fill="#29273B"/>
<path d="M225 74L228 77L231 74" stroke="#595769"/>
<rect opacity="0.5" x="130" y="102" width="85" height="8" rx="4" fill="#29273B"/>
<path d="M225 105L228 108L231 105" stroke="#595769"/>
<g opacity="0.8">
<rect x="22.5" y="60.5" width="62" height="62" rx="0.5" stroke="#595769"/>
<rect x="41.5" y="79.5" width="24" height="24" rx="1.5" stroke="#595769" stroke-linejoin="round" stroke-dasharray="3 2"/>
<rect x="53" y="65" width="1" height="10" fill="#595769"/>
<rect x="37" y="91" width="1" height="10" transform="rotate(90 37 91)" fill="#595769"/>
<rect x="80" y="91" width="1" height="10" transform="rotate(90 80 91)" fill="#595769"/>
<rect x="53" y="108" width="1" height="10" fill="#595769"/>
<rect x="53" y="83" width="1" height="17" fill="#595769"/>
<rect x="62" y="91" width="1" height="17" transform="rotate(90 62 91)" fill="#595769"/>
<path d="M106 73L104 75M104 75L106 77M104 75H113M113 75L111 73M113 75L111 77" stroke="#595769"/>
<path d="M110.5 104L108.5 102M108.5 102L106.5 104M108.5 102L108.5 111M108.5 111L110.5 109M108.5 111L106.5 109" stroke="#595769"/>
</g>
</svg>
