<svg width="628" height="628" viewBox="0 0 628 628" fill="none" xmlns="http://www.w3.org/2000/svg">
<path d="M175.157 594.53C71.9666 543.363 1 436.95 1 313.956C1 269.463 10.357 227.181 27.0946 188.856L175.157 594.53Z" stroke="#57BBF8" stroke-width="2"/>
<path d="M523.163 81.208C522.749 81.1845 522.332 81.1691 521.917 81.1691C490.439 81.1691 468.195 108.581 468.195 137.896C468.195 162.057 481.049 182.791 495.475 206.061C496.697 208.032 497.93 210.021 499.168 212.033C511.095 232.902 524.92 259.584 524.92 298.112C524.92 323.172 515.873 352.043 503.51 391.492C502.708 394.053 501.892 396.658 501.063 399.309L501.059 399.321L470.645 500.955L358.606 167.68C367.585 167.184 376.061 166.475 382.384 165.879C385.7 165.566 388.425 165.285 390.322 165.081C391.27 164.979 392.012 164.897 392.516 164.84C392.768 164.812 392.962 164.79 393.092 164.775L393.24 164.758L393.277 164.753L393.287 164.752L393.289 164.752L393.29 164.752C393.29 164.752 393.29 164.752 393.174 163.759L393.29 164.752L393.291 164.752C397.78 164.22 401.08 162.156 403.179 159.329C405.265 156.518 406.125 153.009 405.857 149.624C405.59 146.24 404.193 142.926 401.693 140.515C399.177 138.09 395.599 136.633 391.101 136.898L391.092 136.899L391.082 136.899L391.091 137.021C391.082 136.899 391.082 136.899 391.082 136.899L391.08 136.9L391.073 136.9L391.046 136.902L390.936 136.911L390.505 136.944C390.125 136.973 389.563 137.016 388.837 137.07C387.384 137.179 385.271 137.335 382.633 137.521C377.356 137.895 369.979 138.393 361.577 138.89C344.766 139.886 323.872 140.881 307.486 140.881C292.092 140.881 271.442 139.887 254.625 138.89C246.22 138.393 238.779 137.895 233.438 137.521C230.768 137.335 228.624 137.179 227.147 137.07C226.408 137.016 225.837 136.973 225.45 136.944L225.011 136.911L224.899 136.902L224.871 136.9L224.864 136.899L224.862 136.899C224.862 136.899 224.862 136.899 224.785 137.896L224.862 136.899L224.853 136.899L224.844 136.898C220.336 136.632 216.759 138.162 214.251 140.67C211.761 143.16 210.371 146.565 210.107 150.005C209.843 153.445 210.7 156.991 212.797 159.762C214.906 162.549 218.219 164.483 222.71 164.755L222.725 164.757L222.864 164.774C222.986 164.789 223.167 164.811 223.403 164.839C223.876 164.896 224.569 164.979 225.454 165.08C227.223 165.284 229.758 165.565 232.822 165.878C238.79 166.487 246.77 167.214 255.011 167.711L303.583 300.792L235.929 503.695L122.966 167.692C131.961 167.196 140.438 166.487 146.757 165.891C150.071 165.578 152.793 165.297 154.687 165.093C155.634 164.991 156.374 164.909 156.878 164.852C157.13 164.824 157.322 164.802 157.452 164.787L157.6 164.77L157.637 164.765L157.647 164.764L157.649 164.764L157.65 164.764C157.65 164.764 157.65 164.764 157.636 164.641L157.65 164.764L157.651 164.764C162.139 164.232 165.437 162.168 167.535 159.341C169.62 156.53 170.478 153.02 170.211 149.636C169.943 146.252 168.546 142.938 166.047 140.527C163.532 138.102 159.957 136.645 155.461 136.91L155.452 136.911L155.442 136.911L155.52 137.908C155.442 136.911 155.442 136.911 155.441 136.911L155.44 136.912L155.433 136.912L155.405 136.914L155.296 136.923L154.865 136.956C154.485 136.985 153.923 137.028 153.197 137.082C151.744 137.191 149.631 137.347 146.994 137.533C141.718 137.907 134.341 138.405 125.939 138.902C109.129 139.898 88.2347 140.893 71.8456 140.893C66.4451 140.893 60.1603 140.762 53.4679 140.57C109.571 56.4375 205.276 1 313.968 1C394.404 1 467.728 31.3523 523.163 81.208Z" stroke="#57BBF8" stroke-width="2"/>
<path d="M415.056 606.162L415.061 606.178L415.068 606.193C415.556 607.402 416.122 608.534 416.739 609.606C384.535 620.789 349.981 626.941 313.968 626.941C283.612 626.941 254.303 622.54 226.562 614.485L319.504 344.411L415.056 606.162Z" stroke="#57BBF8" stroke-width="2"/>
<path d="M592.576 195.606C592.576 186.029 592.052 177.006 591.106 168.494C613.983 211.957 626.929 261.446 626.923 313.961C626.923 428.449 565.389 528.528 473.633 583.105L568.641 308.414C586.6 263.534 592.576 227.6 592.576 195.606Z" stroke="#57BBF8" stroke-width="2"/>
</svg>
