<svg width="136" height="189" viewBox="0 0 136 189" fill="none" xmlns="http://www.w3.org/2000/svg">
<rect x="0.449477" y="0.449477" width="135.101" height="188.101" rx="4.94425" fill="#141323" stroke="#29273B" stroke-width="0.898955"/>
<rect opacity="0.5" x="32" y="63" width="38" height="8" rx="4" fill="#29273B"/>
<rect opacity="0.5" x="32" y="91" width="38" height="8" rx="4" fill="#29273B"/>
<rect x="11.8462" y="60.5386" width="13.5385" height="13.5385" rx="0.846154" fill="#595769"/>
<path d="M89.6737 69.0003C90.6084 69.0003 91.3661 68.2426 91.3661 67.308C91.3661 66.3733 90.6084 65.6156 89.6737 65.6156C88.7391 65.6156 87.9814 66.3733 87.9814 67.308C87.9814 68.2426 88.7391 69.0003 89.6737 69.0003Z" fill="#595769"/>
<path fill-rule="evenodd" clip-rule="evenodd" d="M95.0948 67.0618C95.0949 67.0619 95.0949 67.062 94.7507 67.308C95.0949 67.5539 95.0949 67.554 95.0948 67.5541L95.0939 67.5553L95.0921 67.5578L95.0862 67.566L95.065 67.5945C95.0469 67.6188 95.0207 67.6533 94.9867 67.6966C94.9187 67.7831 94.8194 67.905 94.6913 68.0504C94.4356 68.3406 94.0626 68.7276 93.5917 69.1153C92.6579 69.8844 91.2951 70.6926 89.6737 70.6926C88.0524 70.6926 86.6896 69.8844 85.7558 69.1153C85.2849 68.7276 84.9119 68.3406 84.6562 68.0504C84.5281 67.905 84.4288 67.7831 84.3608 67.6966C84.3268 67.6533 84.3006 67.6188 84.2825 67.5945L84.2613 67.566L84.2554 67.5578L84.2536 67.5553L84.253 67.5544C84.2529 67.5543 84.2526 67.5539 84.5968 67.308C84.2526 67.062 84.2526 67.0619 84.2527 67.0618L84.2536 67.0606L84.2554 67.0581L84.2613 67.0499L84.2825 67.0214C84.3006 66.9971 84.3268 66.9626 84.3608 66.9193C84.4288 66.8328 84.5281 66.7109 84.6562 66.5655C84.9119 66.2753 85.2849 65.8883 85.7558 65.5006C86.6896 64.7316 88.0524 63.9233 89.6737 63.9233C91.2951 63.9233 92.6579 64.7316 93.5917 65.5006C94.0626 65.8883 94.4356 66.2753 94.6913 66.5655C94.8194 66.7109 94.9187 66.8328 94.9867 66.9193C95.0207 66.9626 95.0469 66.9971 95.065 67.0214L95.0862 67.0499L95.0921 67.0581L95.0939 67.0606L95.0948 67.0618ZM85.2911 67.491C85.2317 67.4236 85.1794 67.3621 85.1345 67.308C85.1794 67.2538 85.2317 67.1923 85.2911 67.1249C85.5246 66.8599 85.8655 66.5064 86.2937 66.1538C87.1579 65.442 88.3335 64.7695 89.6737 64.7695C91.014 64.7695 92.1896 65.442 93.0538 66.1538C93.482 66.5064 93.8229 66.8599 94.0564 67.1249C94.1158 67.1923 94.1681 67.2538 94.2129 67.308C94.1681 67.3621 94.1158 67.4236 94.0564 67.491C93.8229 67.7561 93.482 68.1095 93.0538 68.4621C92.1896 69.1739 91.014 69.8464 89.6737 69.8464C88.3335 69.8464 87.1579 69.1739 86.2937 68.4621C85.8655 68.1095 85.5246 67.7561 85.2911 67.491Z" fill="#595769"/>
<path d="M94.7507 67.308L95.0948 67.0618L95.2706 67.308L95.0948 67.5541L94.7507 67.308Z" fill="#595769"/>
<path d="M84.2527 67.0618L84.5968 67.308L84.253 67.5544L84.0769 67.308L84.2527 67.0618Z" fill="#595769"/>
<path d="M115.155 67.731H119.809H110.501" stroke="#595769" stroke-width="0.846154"/>
<rect opacity="0.5" x="11" y="18" width="38" height="8" rx="4" fill="#29273B"/>
<path d="M114.962 17.6924V22.3462M114.962 27.0001V22.3462M114.962 22.3462H119.615H110.308" stroke="#595769" stroke-width="0.846154"/>
<circle cx="87.0385" cy="19.8078" r="1.26923" fill="#595769"/>
<circle cx="92.1155" cy="19.8078" r="1.26923" fill="#595769"/>
<circle cx="92.1154" cy="24.8847" r="1.26923" fill="#595769"/>
<circle cx="87.0385" cy="24.8847" r="1.26923" fill="#595769"/>
<circle cx="114.962" cy="95.654" r="1.26923" fill="#595769"/>
<circle cx="120.038" cy="95.654" r="1.26923" fill="#595769"/>
<circle cx="109.885" cy="95.654" r="1.26923" fill="#595769"/>
<rect x="13.5385" y="97.7693" width="10.1538" height="2.53846" fill="#595769"/>
<rect x="13.5385" y="93.5386" width="10.1538" height="1.69231" fill="#595769"/>
<rect x="13.5385" y="90.1538" width="10.1538" height="0.846154" fill="#595769"/>
<rect x="13" y="138" width="77" height="2" fill="#1E1D2F"/>
<rect x="13" y="138" width="50" height="2" fill="#595769"/>
<circle cx="61" cy="139" r="4" fill="#595769"/>
<rect x="13" y="166" width="77" height="2" fill="#1E1D2F"/>
<rect x="13" y="166" width="29" height="2" fill="#595769"/>
<circle cx="41" cy="167" r="4" fill="#595769"/>
<rect x="99.5" y="131.5" width="23" height="15" rx="1.5" stroke="#1E1D2F"/>
<rect x="99.5" y="159.5" width="23" height="15" rx="1.5" stroke="#1E1D2F"/>
<line opacity="0.5" y1="117.5" x2="136" y2="117.5" stroke="#29273B"/>
<line opacity="0.5" y1="42.5" x2="136" y2="42.5" stroke="#29273B"/>
</svg>
