<svg width="326" height="303" viewBox="0 0 326 303" fill="none" xmlns="http://www.w3.org/2000/svg">
<rect x="0.5" y="0.5" width="305" height="302" rx="5.5" fill="#141323" stroke="#29273B"/>
<path d="M0 6C0 2.68629 2.68629 0 6 0H300C303.314 0 306 2.68629 306 6V20H0V6Z" fill="#29273B"/>
<circle opacity="0.7" cx="12.5" cy="10.5" r="2.5" fill="white"/>
<circle opacity="0.3" cx="25.5" cy="10.5" r="2.5" fill="white"/>
<circle opacity="0.3" cx="38.5" cy="10.5" r="2.5" fill="white"/>
<rect x="19" y="44" width="38" height="16" rx="6" fill="#36344A"/>
<rect x="33" y="139" width="75" height="6" rx="3" fill="#36344A"/>
<path d="M51.2595 105L51.3275 96.483H51.2765L48.1485 105H46.1085L43.0655 96.483H43.0145L43.0825 105H40.3455V92.964H44.4765L47.2135 100.682H47.2815L49.8995 92.964H54.0985V105H51.2595ZM61.4268 101.311H61.0698C60.7638 101.311 60.4522 101.328 60.1348 101.362C59.8288 101.385 59.5512 101.436 59.3018 101.515C59.0638 101.594 58.8655 101.713 58.7068 101.872C58.5482 102.019 58.4688 102.218 58.4688 102.467C58.4688 102.626 58.5028 102.762 58.5708 102.875C58.6502 102.988 58.7465 103.079 58.8598 103.147C58.9732 103.215 59.1035 103.266 59.2508 103.3C59.3982 103.323 59.5398 103.334 59.6758 103.334C60.2425 103.334 60.6732 103.181 60.9678 102.875C61.2738 102.558 61.4268 102.133 61.4268 101.6V101.311ZM56.3098 97.69C56.8085 97.214 57.3865 96.857 58.0438 96.619C58.7125 96.381 59.3925 96.262 60.0838 96.262C60.7978 96.262 61.3985 96.3527 61.8858 96.534C62.3845 96.704 62.7868 96.976 63.0928 97.35C63.3988 97.7127 63.6198 98.1773 63.7558 98.744C63.9032 99.2993 63.9768 99.9623 63.9768 100.733V105H61.4268V104.099H61.3758C61.1605 104.45 60.8318 104.722 60.3898 104.915C59.9592 105.108 59.4888 105.204 58.9788 105.204C58.6388 105.204 58.2875 105.159 57.9248 105.068C57.5622 104.977 57.2278 104.83 56.9218 104.626C56.6272 104.422 56.3835 104.15 56.1908 103.81C55.9982 103.47 55.9018 103.051 55.9018 102.552C55.9018 101.94 56.0662 101.447 56.3948 101.073C56.7348 100.699 57.1655 100.41 57.6868 100.206C58.2195 100.002 58.8088 99.866 59.4548 99.798C60.1008 99.73 60.7298 99.696 61.3418 99.696V99.56C61.3418 99.1407 61.1945 98.8347 60.8998 98.642C60.6052 98.438 60.2425 98.336 59.8118 98.336C59.4152 98.336 59.0298 98.421 58.6558 98.591C58.2932 98.761 57.9815 98.965 57.7208 99.203L56.3098 97.69ZM75.1527 105H71.7017L68.9307 100.937H68.8797V105H66.0747V92.148H68.8797V99.968H68.9307L71.6337 96.534H75.0167L71.7527 100.359L75.1527 105ZM81.7003 99.798C81.7003 99.356 81.5586 98.9763 81.2753 98.659C81.0033 98.3417 80.5896 98.183 80.0343 98.183C79.7623 98.183 79.5129 98.2283 79.2863 98.319C79.0596 98.3983 78.8613 98.5117 78.6913 98.659C78.5213 98.8063 78.3853 98.982 78.2833 99.186C78.1813 99.3787 78.1246 99.5827 78.1133 99.798H81.7003ZM84.2673 100.869C84.2673 100.982 84.2673 101.096 84.2673 101.209C84.2673 101.322 84.2616 101.43 84.2503 101.532H78.1133C78.1359 101.77 78.2039 101.985 78.3173 102.178C78.4419 102.371 78.5949 102.541 78.7763 102.688C78.9689 102.824 79.1786 102.932 79.4053 103.011C79.6433 103.09 79.8869 103.13 80.1363 103.13C80.5783 103.13 80.9523 103.051 81.2583 102.892C81.5643 102.722 81.8136 102.507 82.0063 102.246L83.9443 103.47C83.5476 104.048 83.0206 104.496 82.3633 104.813C81.7173 105.119 80.9636 105.272 80.1023 105.272C79.4676 105.272 78.8669 105.176 78.3003 104.983C77.7336 104.779 77.2349 104.49 76.8043 104.116C76.3849 103.731 76.0506 103.26 75.8013 102.705C75.5633 102.15 75.4443 101.515 75.4443 100.801C75.4443 100.11 75.5633 99.4863 75.8013 98.931C76.0393 98.3643 76.3623 97.8883 76.7703 97.503C77.1783 97.1063 77.6599 96.8003 78.2153 96.585C78.7706 96.3697 79.3713 96.262 80.0173 96.262C80.6406 96.262 81.2129 96.3697 81.7343 96.585C82.2556 96.789 82.7033 97.0893 83.0773 97.486C83.4513 97.8827 83.7403 98.3643 83.9443 98.931C84.1596 99.4977 84.2673 100.144 84.2673 100.869ZM90.3992 105V92.964H93.3232V105H90.3992ZM98.6843 98.625V101.855C98.6843 102.252 98.758 102.552 98.9053 102.756C99.064 102.949 99.3416 103.045 99.7383 103.045C99.8743 103.045 100.016 103.034 100.163 103.011C100.322 102.988 100.452 102.954 100.554 102.909L100.588 104.949C100.396 105.017 100.152 105.074 99.8573 105.119C99.5626 105.176 99.268 105.204 98.9733 105.204C98.4066 105.204 97.9306 105.136 97.5453 105C97.16 104.853 96.8483 104.649 96.6103 104.388C96.3836 104.116 96.2193 103.799 96.1173 103.436C96.0153 103.062 95.9643 102.648 95.9643 102.195V98.625H94.6043V96.534H95.9473V94.307H98.6843V96.534H100.673V98.625H98.6843ZM36.0785 116.092C35.8292 115.775 35.5005 115.525 35.0925 115.344C34.6958 115.151 34.3105 115.055 33.9365 115.055C33.7438 115.055 33.5455 115.072 33.3415 115.106C33.1488 115.14 32.9732 115.208 32.8145 115.31C32.6558 115.401 32.5198 115.525 32.4065 115.684C32.3045 115.831 32.2535 116.024 32.2535 116.262C32.2535 116.466 32.2932 116.636 32.3725 116.772C32.4632 116.908 32.5878 117.027 32.7465 117.129C32.9165 117.231 33.1148 117.327 33.3415 117.418C33.5682 117.497 33.8232 117.582 34.1065 117.673C34.5145 117.809 34.9395 117.962 35.3815 118.132C35.8235 118.291 36.2258 118.506 36.5885 118.778C36.9512 119.05 37.2515 119.39 37.4895 119.798C37.7275 120.195 37.8465 120.693 37.8465 121.294C37.8465 121.985 37.7162 122.586 37.4555 123.096C37.2062 123.595 36.8662 124.008 36.4355 124.337C36.0048 124.666 35.5118 124.909 34.9565 125.068C34.4012 125.227 33.8288 125.306 33.2395 125.306C32.3782 125.306 31.5452 125.159 30.7405 124.864C29.9358 124.558 29.2672 124.127 28.7345 123.572L30.6385 121.634C30.9332 121.997 31.3185 122.303 31.7945 122.552C32.2818 122.79 32.7635 122.909 33.2395 122.909C33.4548 122.909 33.6645 122.886 33.8685 122.841C34.0725 122.796 34.2482 122.722 34.3955 122.62C34.5542 122.518 34.6788 122.382 34.7695 122.212C34.8602 122.042 34.9055 121.838 34.9055 121.6C34.9055 121.373 34.8488 121.181 34.7355 121.022C34.6222 120.863 34.4578 120.722 34.2425 120.597C34.0385 120.461 33.7778 120.342 33.4605 120.24C33.1545 120.127 32.8032 120.008 32.4065 119.883C32.0212 119.758 31.6415 119.611 31.2675 119.441C30.9048 119.271 30.5762 119.056 30.2815 118.795C29.9982 118.523 29.7658 118.2 29.5845 117.826C29.4145 117.441 29.3295 116.976 29.3295 116.432C29.3295 115.763 29.4655 115.191 29.7375 114.715C30.0095 114.239 30.3665 113.848 30.8085 113.542C31.2505 113.236 31.7492 113.015 32.3045 112.879C32.8598 112.732 33.4208 112.658 33.9875 112.658C34.6675 112.658 35.3588 112.783 36.0615 113.032C36.7755 113.281 37.3988 113.65 37.9315 114.137L36.0785 116.092ZM42.5378 118.625V121.855C42.5378 122.252 42.6115 122.552 42.7588 122.756C42.9175 122.949 43.1952 123.045 43.5918 123.045C43.7278 123.045 43.8695 123.034 44.0168 123.011C44.1755 122.988 44.3058 122.954 44.4078 122.909L44.4418 124.949C44.2492 125.017 44.0055 125.074 43.7108 125.119C43.4162 125.176 43.1215 125.204 42.8268 125.204C42.2602 125.204 41.7842 125.136 41.3988 125C41.0135 124.853 40.7018 124.649 40.4638 124.388C40.2372 124.116 40.0728 123.799 39.9708 123.436C39.8688 123.062 39.8178 122.648 39.8178 122.195V118.625H38.4578V116.534H39.8008V114.307H42.5378V116.534H44.5268V118.625H42.5378ZM50.835 121.311H50.478C50.172 121.311 49.8604 121.328 49.543 121.362C49.237 121.385 48.9594 121.436 48.71 121.515C48.472 121.594 48.2737 121.713 48.115 121.872C47.9564 122.019 47.877 122.218 47.877 122.467C47.877 122.626 47.911 122.762 47.979 122.875C48.0584 122.988 48.1547 123.079 48.268 123.147C48.3814 123.215 48.5117 123.266 48.659 123.3C48.8064 123.323 48.948 123.334 49.084 123.334C49.6507 123.334 50.0814 123.181 50.376 122.875C50.682 122.558 50.835 122.133 50.835 121.6V121.311ZM45.718 117.69C46.2167 117.214 46.7947 116.857 47.452 116.619C48.1207 116.381 48.8007 116.262 49.492 116.262C50.206 116.262 50.8067 116.353 51.294 116.534C51.7927 116.704 52.195 116.976 52.501 117.35C52.807 117.713 53.028 118.177 53.164 118.744C53.3114 119.299 53.385 119.962 53.385 120.733V125H50.835V124.099H50.784C50.5687 124.45 50.24 124.722 49.798 124.915C49.3674 125.108 48.897 125.204 48.387 125.204C48.047 125.204 47.6957 125.159 47.333 125.068C46.9704 124.977 46.636 124.83 46.33 124.626C46.0354 124.422 45.7917 124.15 45.599 123.81C45.4064 123.47 45.31 123.051 45.31 122.552C45.31 121.94 45.4744 121.447 45.803 121.073C46.143 120.699 46.5737 120.41 47.095 120.206C47.6277 120.002 48.217 119.866 48.863 119.798C49.509 119.73 50.138 119.696 50.75 119.696V119.56C50.75 119.141 50.6027 118.835 50.308 118.642C50.0134 118.438 49.6507 118.336 49.22 118.336C48.8234 118.336 48.438 118.421 48.064 118.591C47.7014 118.761 47.3897 118.965 47.129 119.203L45.718 117.69ZM61.0249 125V120.376C61.0249 120.138 61.0023 119.911 60.9569 119.696C60.9229 119.481 60.8606 119.294 60.7699 119.135C60.6793 118.965 60.5489 118.835 60.3789 118.744C60.2203 118.642 60.0163 118.591 59.7669 118.591C59.5176 118.591 59.2966 118.642 59.1039 118.744C58.9226 118.835 58.7696 118.965 58.6449 119.135C58.5203 119.305 58.4239 119.503 58.3559 119.73C58.2993 119.945 58.2709 120.172 58.2709 120.41V125H55.4659V116.534H58.1689V117.707H58.2029C58.3049 117.526 58.4353 117.35 58.5939 117.18C58.7639 116.999 58.9566 116.846 59.1719 116.721C59.3986 116.596 59.6423 116.494 59.9029 116.415C60.1636 116.336 60.4413 116.296 60.7359 116.296C61.3026 116.296 61.7843 116.398 62.1809 116.602C62.5776 116.806 62.8949 117.072 63.1329 117.401C63.3823 117.718 63.5579 118.087 63.6599 118.506C63.7733 118.925 63.8299 119.345 63.8299 119.764V125H61.0249ZM72.3505 125V123.895H72.3165C72.0445 124.326 71.6535 124.66 71.1435 124.898C70.6448 125.125 70.1122 125.238 69.5455 125.238C68.9108 125.238 68.3442 125.113 67.8455 124.864C67.3468 124.615 66.9218 124.286 66.5705 123.878C66.2305 123.459 65.9698 122.977 65.7885 122.433C65.6072 121.889 65.5165 121.322 65.5165 120.733C65.5165 120.144 65.6072 119.583 65.7885 119.05C65.9812 118.506 66.2475 118.03 66.5875 117.622C66.9388 117.214 67.3582 116.891 67.8455 116.653C68.3442 116.415 68.8995 116.296 69.5115 116.296C70.1348 116.296 70.6618 116.415 71.0925 116.653C71.5232 116.891 71.8575 117.152 72.0955 117.435H72.1295V112.148H74.9175V125H72.3505ZM72.2485 120.75C72.2485 120.478 72.1975 120.212 72.0955 119.951C72.0048 119.69 71.8688 119.458 71.6875 119.254C71.5175 119.05 71.3078 118.886 71.0585 118.761C70.8092 118.636 70.5258 118.574 70.2085 118.574C69.8798 118.574 69.5908 118.636 69.3415 118.761C69.0922 118.886 68.8825 119.05 68.7125 119.254C68.5425 119.447 68.4122 119.673 68.3215 119.934C68.2422 120.195 68.2025 120.461 68.2025 120.733C68.2025 121.005 68.2422 121.277 68.3215 121.549C68.4122 121.81 68.5425 122.042 68.7125 122.246C68.8825 122.45 69.0922 122.614 69.3415 122.739C69.5908 122.864 69.8798 122.926 70.2085 122.926C70.5258 122.926 70.8092 122.864 71.0585 122.739C71.3078 122.614 71.5175 122.45 71.6875 122.246C71.8688 122.042 72.0048 121.81 72.0955 121.549C72.1975 121.288 72.2485 121.022 72.2485 120.75ZM94.08 118.931C94.08 119.883 93.9156 120.756 93.587 121.549C93.2583 122.331 92.7993 123.005 92.21 123.572C91.632 124.127 90.9406 124.558 90.136 124.864C89.3313 125.17 88.4586 125.323 87.518 125.323C86.5773 125.323 85.7046 125.17 84.9 124.864C84.1066 124.558 83.4153 124.127 82.826 123.572C82.248 123.005 81.7946 122.331 81.466 121.549C81.1373 120.756 80.973 119.883 80.973 118.931C80.973 117.968 81.1373 117.101 81.466 116.33C81.7946 115.548 82.248 114.885 82.826 114.341C83.4153 113.797 84.1066 113.378 84.9 113.083C85.7046 112.788 86.5773 112.641 87.518 112.641C88.4586 112.641 89.3313 112.788 90.136 113.083C90.9406 113.378 91.632 113.797 92.21 114.341C92.7993 114.885 93.2583 115.548 93.587 116.33C93.9156 117.101 94.08 117.968 94.08 118.931ZM90.969 118.931C90.969 118.41 90.884 117.922 90.714 117.469C90.544 117.016 90.306 116.63 90 116.313C89.7053 115.984 89.3426 115.729 88.912 115.548C88.4926 115.355 88.028 115.259 87.518 115.259C87.008 115.259 86.5433 115.355 86.124 115.548C85.7046 115.729 85.342 115.984 85.036 116.313C84.73 116.63 84.492 117.016 84.322 117.469C84.1633 117.922 84.084 118.41 84.084 118.931C84.084 119.475 84.169 119.979 84.339 120.444C84.509 120.897 84.7413 121.288 85.036 121.617C85.342 121.946 85.7046 122.206 86.124 122.399C86.5433 122.58 87.008 122.671 87.518 122.671C88.028 122.671 88.4926 122.58 88.912 122.399C89.3313 122.206 89.694 121.946 90 121.617C90.306 121.288 90.544 120.897 90.714 120.444C90.884 119.979 90.969 119.475 90.969 118.931ZM101.417 125V123.827H101.383C101.281 124.02 101.145 124.201 100.975 124.371C100.816 124.541 100.624 124.688 100.397 124.813C100.182 124.938 99.9379 125.04 99.6659 125.119C99.4053 125.198 99.1276 125.238 98.8329 125.238C98.2663 125.238 97.7846 125.136 97.3879 124.932C97.0026 124.728 96.6853 124.467 96.4359 124.15C96.1979 123.821 96.0223 123.453 95.9089 123.045C95.8069 122.626 95.7559 122.201 95.7559 121.77V116.534H98.5609V121.124C98.5609 121.362 98.5779 121.589 98.6119 121.804C98.6459 122.019 98.7083 122.212 98.7989 122.382C98.9009 122.552 99.0313 122.688 99.1899 122.79C99.3486 122.881 99.5583 122.926 99.8189 122.926C100.306 122.926 100.675 122.745 100.924 122.382C101.185 122.019 101.315 121.594 101.315 121.107V116.534H104.103V125H101.417ZM109.309 118.625V121.855C109.309 122.252 109.383 122.552 109.53 122.756C109.689 122.949 109.967 123.045 110.363 123.045C110.499 123.045 110.641 123.034 110.788 123.011C110.947 122.988 111.077 122.954 111.179 122.909L111.213 124.949C111.021 125.017 110.777 125.074 110.482 125.119C110.188 125.176 109.893 125.204 109.598 125.204C109.032 125.204 108.556 125.136 108.17 125C107.785 124.853 107.473 124.649 107.235 124.388C107.009 124.116 106.844 123.799 106.742 123.436C106.64 123.062 106.589 122.648 106.589 122.195V118.625H105.229V116.534H106.572V114.307H109.309V116.534H111.298V118.625H109.309Z" fill="#676579"/>
<rect x="41" y="150" width="58" height="6" rx="3" fill="#36344A"/>
<rect x="51" y="170" width="38" height="16" rx="6" fill="#36344A"/>
<rect x="109" y="49" width="25" height="6" rx="3" fill="#36344A"/>
<rect x="141" y="49" width="25" height="6" rx="3" fill="#36344A"/>
<rect x="173" y="49" width="25" height="6" rx="3" fill="#36344A"/>
<rect x="205" y="49" width="25" height="6" rx="3" fill="#36344A"/>
<rect x="250" y="47" width="34" height="10" rx="5" fill="#36344A"/>
<rect x="140" y="72" width="186" height="132" rx="4" fill="#36344A"/>
<circle cx="59" cy="239" r="13" fill="#36344A"/>
<rect x="43" y="262" width="32" height="6" rx="3" fill="#36344A"/>
<rect x="46" y="273" width="25" height="6" rx="3" fill="#36344A"/>
<circle cx="153" cy="239" r="13" fill="#36344A"/>
<rect x="137" y="262" width="32" height="6" rx="3" fill="#36344A"/>
<rect x="140" y="273" width="25" height="6" rx="3" fill="#36344A"/>
<circle cx="247" cy="239" r="13" fill="#36344A"/>
<rect x="231" y="262" width="32" height="6" rx="3" fill="#36344A"/>
<rect x="234" y="273" width="25" height="6" rx="3" fill="#36344A"/>
</svg>
