<svg width="23" height="23" viewBox="0 0 23 23" fill="none" xmlns="http://www.w3.org/2000/svg">
<g opacity="0.6" clip-path="url(#clip0)">
<path d="M20.6042 22.9997H2.39583C1.07429 22.9997 0 21.9244 0 20.6038V15.8122C0 15.5477 0.214667 15.333 0.479167 15.333C0.743666 15.333 0.958333 15.5477 0.958333 15.8122V20.6038C0.958333 21.3964 1.60329 22.0413 2.39583 22.0413H20.6042C21.3967 22.0413 22.0417 21.3964 22.0417 20.6038V15.8122C22.0417 15.5477 22.2563 15.333 22.5208 15.333C22.7853 15.333 23 15.5477 23 15.8122V20.6038C23 21.9244 21.9257 22.9997 20.6042 22.9997Z" fill="#9C98C0"/>
<path d="M11.5 16.2917C11.2355 16.2917 11.0208 16.077 11.0208 15.8125V0.479167C11.0208 0.214667 11.2355 0 11.5 0C11.7645 0 11.9792 0.214667 11.9792 0.479167V15.8125C11.9792 16.077 11.7645 16.2917 11.5 16.2917Z" fill="#9C98C0"/>
<path d="M15.3333 4.79144C15.2107 4.79144 15.088 4.74448 14.9941 4.65152L11.5 1.15648L8.00592 4.65152C7.81904 4.83839 7.51525 4.83839 7.32837 4.65152C7.1415 4.46464 7.1415 4.16085 7.32837 3.97398L11.1617 0.140645C11.3486 -0.0462305 11.6524 -0.0462305 11.8392 0.140645L15.6726 3.97398C15.8595 4.16085 15.8595 4.46464 15.6726 4.65152C15.5787 4.74448 15.456 4.79144 15.3333 4.79144Z" fill="#9C98C0"/>
</g>
<defs>
<clipPath id="clip0">
<rect width="23" height="23" fill="white"/>
</clipPath>
</defs>
</svg>
